<?xml version="1.0" encoding="UTF-8" standalone="no"?>
<!DOCTYPE svg PUBLIC "-//W3C//DTD SVG 1.1//EN" "http://www.w3.org/Graphics/SVG/1.1/DTD/svg11.dtd">
<svg width="100%" height="100%" viewBox="0 0 5315 3544" version="1.1" xmlns="http://www.w3.org/2000/svg" xmlns:xlink="http://www.w3.org/1999/xlink" xml:space="preserve" xmlns:serif="http://www.serif.com/" style="fill-rule:evenodd;clip-rule:evenodd;stroke-linecap:round;stroke-linejoin:round;stroke-miterlimit:1.5;">
    <g transform="matrix(1.15571,0,0,1.46734,-332.363,-225.683)">
        <rect x="517.54" y="403.826" width="4138.82" height="1915.74" style="fill:none;stroke:black;stroke-width:0.76px;"/>
    </g>
    <g transform="matrix(1,0,0,1,405.974,482.85)">
        <circle cx="1.497" cy="1.412" r="0.01" style="fill:rgb(235,235,235);stroke:black;stroke-width:0.21px;"/>
    </g>
    <g transform="matrix(1,0,0,1,405.974,746.216)">
        <circle cx="1.497" cy="1.412" r="0.01" style="fill:rgb(235,235,235);stroke:black;stroke-width:0.21px;"/>
    </g>
    <g transform="matrix(1,0,0,1,866.604,746.236)">
        <circle cx="1.497" cy="1.412" r="0.01" style="fill:rgb(235,235,235);stroke:black;stroke-width:0.21px;"/>
    </g>
    <g transform="matrix(1,0,0,1,405.974,482.85)">
        <circle cx="1.497" cy="1.412" r="0.01" style="fill:rgb(235,235,235);stroke:black;stroke-width:0.21px;"/>
    </g>
    <g transform="matrix(1,0,0,1,405.974,746.236)">
        <circle cx="1.497" cy="1.412" r="0.01" style="fill:rgb(235,235,235);stroke:black;stroke-width:0.21px;"/>
    </g>
    <g transform="matrix(1,0,0,1,405.974,746.236)">
        <circle cx="1.497" cy="1.412" r="0.01" style="fill:rgb(235,235,235);stroke:black;stroke-width:0.21px;"/>
    </g>
    <g transform="matrix(1,0,0,1,866.604,482.85)">
        <circle cx="1.497" cy="1.412" r="0.01" style="fill:rgb(235,235,235);stroke:black;stroke-width:0.21px;"/>
    </g>
    <g transform="matrix(1,0,0,1,866.604,482.85)">
        <circle cx="1.497" cy="1.412" r="0.01" style="fill:rgb(235,235,235);stroke:black;stroke-width:0.21px;"/>
    </g>
    <g transform="matrix(1,0,0,1,866.624,746.236)">
        <circle cx="1.497" cy="1.412" r="0.01" style="fill:rgb(235,235,235);stroke:black;stroke-width:0.21px;"/>
    </g>
    <g transform="matrix(1,0,0,1,866.624,746.236)">
        <circle cx="1.497" cy="1.412" r="0.01" style="fill:rgb(235,235,235);stroke:black;stroke-width:0.21px;"/>
    </g>
    <g transform="matrix(1,0,0,1,356.924,489.656)">
        <text x="73.8px" y="39.538px" style="font-family:'HelveticaNeue-Medium', 'Helvetica Neue', sans-serif;font-weight:500;font-size:29.167px;">This device runs GNUK</text>
    </g>
    <g transform="matrix(1.00747,0,0,1.00747,326.066,524.948)">
        <text x="97.951px" y="112.528px" style="font-family:'HelveticaNeue-Bold', 'Helvetica Neue';font-weight:700;font-size:79.167px;">Modirum</text>
    </g>
    <g transform="matrix(1,0,0,1,335.905,494.134)">
        <text x="205.784px" y="170.827px" style="font-family:'HelveticaNeue-Medium', 'Helvetica Neue', sans-serif;font-weight:500;font-size:22.917px;">Secur<tspan x="266.925px 279.667px " y="170.827px 170.827px ">ed</tspan> by Fr<tspan x="353.55px 366.292px " y="170.827px 170.827px ">ee</tspan>BSD</text>
    </g>
    <g transform="matrix(1,0,0,1,363.165,493.065)">
        <text x="65.463px" y="59.4px" style="font-family:'HelveticaNeue', 'Helvetica Neue';font-size:20.833px;">Fr<tspan x="83.984px 95.171px " y="59.4px 59.4px ">ee</tspan> Softwar<tspan x="183.879px 195.067px " y="59.4px 59.4px ">e </tspan>Initiative of Japan</text>
    </g>
    <g transform="matrix(0.868762,0,0,0.878049,383.192,483.873)">
        <ellipse cx="0.63" cy="0.441" rx="0.03" ry="0.009" style="fill:rgb(235,235,235);stroke:black;stroke-width:0.24px;"/>
    </g>
    <g transform="matrix(-0.165244,0,0,-0.165244,851.674,722.331)">
        <ellipse cx="401.17" cy="203.938" rx="0.306" ry="0.295" style="fill:none;stroke:black;stroke-width:1.26px;"/>
    </g>
</svg>
