  0
SECTION
  2
HEADER
  9
$ACADVER
  1
AC1009
  9
$EXTMIN
 10
0.0
 20
0.0
 30
0.0
  9
$EXTMAX
 10
1000.0
 20
1000.0
 30
0.0
  9
$FILLMODE
 70
 0
  9
$SPLFRAME
 70
 1
  0
ENDSEC
  0
SECTION
  2
TABLES
  0
TABLE
  2
LAYER
 70
1
  0
LAYER
  2
0
 70
     0
 62
     7
  6
CONTINUOUS
  0
ENDTAB
  0
ENDSEC
  0
SECTION
  2
ENTITIES
  0
POLYLINE
  8
0
 62
     0
 66
     1
 10
0
 20
0
 30
0.0
 70
     1
 40
0.658755
 41
0.658755
  0
VERTEX
  8
0
 10
2.76839
 20
33.0951
 30
0.0
 40
0.00914938
 41
0.00914938
  0
VERTEX
  8
0
 10
52.5942
 20
33.0951
 30
0.0
 40
0.00914938
 41
0.00914938
  0
VERTEX
  8
0
 10
52.5942
 20
3.81342
 30
0.0
 40
0.00914938
 41
0.00914938
  0
VERTEX
  8
0
 10
2.76839
 20
3.81342
 30
0.0
 40
0.00914938
 41
0.00914938
  0
VERTEX
  8
0
 10
2.76839
 20
33.0951
 30
0.0
 40
0.00914938
 41
0.00914938
  0
SEQEND
 8
0
  0
POLYLINE
  8
0
 62
     7
 66
     1
 10
0
 20
0
 30
0.0
 70
     1
 40
0
 41
0
  0
VERTEX
  8
0
 10
4.24457
 20
31.8722
 30
0.0
 40
0
 41
0
  0
VERTEX
  8
0
 10
4.24457
 20
31.8722
 30
0.0
 40
0
 41
0
  0
VERTEX
  8
0
 10
4.24447
 20
31.8722
 30
0.0
 40
0
 41
0
  0
VERTEX
  8
0
 10
4.24447
 20
31.8722
 30
0.0
 40
0
 41
0
  0
VERTEX
  8
0
 10
4.24447
 20
31.8722
 30
0.0
 40
0
 41
0
  0
VERTEX
  8
0
 10
4.24442
 20
31.8722
 30
0.0
 40
0
 41
0
  0
VERTEX
  8
0
 10
4.24442
 20
31.8722
 30
0.0
 40
0
 41
0
  0
VERTEX
  8
0
 10
4.24442
 20
31.8722
 30
0.0
 40
0
 41
0
  0
VERTEX
  8
0
 10
4.24447
 20
31.8724
 30
0.0
 40
0
 41
0
  0
VERTEX
  8
0
 10
4.24447
 20
31.8724
 30
0.0
 40
0
 41
0
  0
VERTEX
  8
0
 10
4.24447
 20
31.8724
 30
0.0
 40
0
 41
0
  0
VERTEX
  8
0
 10
4.24457
 20
31.8722
 30
0.0
 40
0
 41
0
  0
VERTEX
  8
0
 10
4.24457
 20
31.8722
 30
0.0
 40
0
 41
0
  0
SEQEND
 8
0
  0
POLYLINE
  8
0
 62
     0
 66
     1
 10
0
 20
0
 30
0.0
 70
     1
 40
0.1575
 41
0.1575
  0
VERTEX
  8
0
 10
4.24457
 20
31.8722
 30
0.0
 40
0.0021875
 41
0.0021875
  0
VERTEX
  8
0
 10
4.24457
 20
31.8722
 30
0.0
 40
0.0021875
 41
0.0021875
  0
VERTEX
  8
0
 10
4.24447
 20
31.8722
 30
0.0
 40
0.0021875
 41
0.0021875
  0
VERTEX
  8
0
 10
4.24447
 20
31.8722
 30
0.0
 40
0.0021875
 41
0.0021875
  0
VERTEX
  8
0
 10
4.24447
 20
31.8722
 30
0.0
 40
0.0021875
 41
0.0021875
  0
VERTEX
  8
0
 10
4.24442
 20
31.8722
 30
0.0
 40
0.0021875
 41
0.0021875
  0
VERTEX
  8
0
 10
4.24442
 20
31.8722
 30
0.0
 40
0.0021875
 41
0.0021875
  0
VERTEX
  8
0
 10
4.24442
 20
31.8722
 30
0.0
 40
0.0021875
 41
0.0021875
  0
VERTEX
  8
0
 10
4.24447
 20
31.8724
 30
0.0
 40
0.0021875
 41
0.0021875
  0
VERTEX
  8
0
 10
4.24447
 20
31.8724
 30
0.0
 40
0.0021875
 41
0.0021875
  0
VERTEX
  8
0
 10
4.24447
 20
31.8724
 30
0.0
 40
0.0021875
 41
0.0021875
  0
VERTEX
  8
0
 10
4.24457
 20
31.8722
 30
0.0
 40
0.0021875
 41
0.0021875
  0
VERTEX
  8
0
 10
4.24457
 20
31.8722
 30
0.0
 40
0.0021875
 41
0.0021875
  0
SEQEND
 8
0
  0
POLYLINE
  8
0
 62
     7
 66
     1
 10
0
 20
0
 30
0.0
 70
     1
 40
0
 41
0
  0
VERTEX
  8
0
 10
4.24457
 20
29.1289
 30
0.0
 40
0
 41
0
  0
VERTEX
  8
0
 10
4.24457
 20
29.1289
 30
0.0
 40
0
 41
0
  0
VERTEX
  8
0
 10
4.24447
 20
29.1288
 30
0.0
 40
0
 41
0
  0
VERTEX
  8
0
 10
4.24447
 20
29.1288
 30
0.0
 40
0
 41
0
  0
VERTEX
  8
0
 10
4.24447
 20
29.1288
 30
0.0
 40
0
 41
0
  0
VERTEX
  8
0
 10
4.24442
 20
29.1289
 30
0.0
 40
0
 41
0
  0
VERTEX
  8
0
 10
4.24442
 20
29.1289
 30
0.0
 40
0
 41
0
  0
VERTEX
  8
0
 10
4.24442
 20
29.1289
 30
0.0
 40
0
 41
0
  0
VERTEX
  8
0
 10
4.24447
 20
29.129
 30
0.0
 40
0
 41
0
  0
VERTEX
  8
0
 10
4.24447
 20
29.129
 30
0.0
 40
0
 41
0
  0
VERTEX
  8
0
 10
4.24447
 20
29.129
 30
0.0
 40
0
 41
0
  0
VERTEX
  8
0
 10
4.24457
 20
29.1289
 30
0.0
 40
0
 41
0
  0
VERTEX
  8
0
 10
4.24457
 20
29.1289
 30
0.0
 40
0
 41
0
  0
SEQEND
 8
0
  0
POLYLINE
  8
0
 62
     0
 66
     1
 10
0
 20
0
 30
0.0
 70
     1
 40
0.1575
 41
0.1575
  0
VERTEX
  8
0
 10
4.24457
 20
29.1289
 30
0.0
 40
0.0021875
 41
0.0021875
  0
VERTEX
  8
0
 10
4.24457
 20
29.1289
 30
0.0
 40
0.0021875
 41
0.0021875
  0
VERTEX
  8
0
 10
4.24447
 20
29.1288
 30
0.0
 40
0.0021875
 41
0.0021875
  0
VERTEX
  8
0
 10
4.24447
 20
29.1288
 30
0.0
 40
0.0021875
 41
0.0021875
  0
VERTEX
  8
0
 10
4.24447
 20
29.1288
 30
0.0
 40
0.0021875
 41
0.0021875
  0
VERTEX
  8
0
 10
4.24442
 20
29.1289
 30
0.0
 40
0.0021875
 41
0.0021875
  0
VERTEX
  8
0
 10
4.24442
 20
29.1289
 30
0.0
 40
0.0021875
 41
0.0021875
  0
VERTEX
  8
0
 10
4.24442
 20
29.1289
 30
0.0
 40
0.0021875
 41
0.0021875
  0
VERTEX
  8
0
 10
4.24447
 20
29.129
 30
0.0
 40
0.0021875
 41
0.0021875
  0
VERTEX
  8
0
 10
4.24447
 20
29.129
 30
0.0
 40
0.0021875
 41
0.0021875
  0
VERTEX
  8
0
 10
4.24447
 20
29.129
 30
0.0
 40
0.0021875
 41
0.0021875
  0
VERTEX
  8
0
 10
4.24457
 20
29.1289
 30
0.0
 40
0.0021875
 41
0.0021875
  0
VERTEX
  8
0
 10
4.24457
 20
29.1289
 30
0.0
 40
0.0021875
 41
0.0021875
  0
SEQEND
 8
0
  0
POLYLINE
  8
0
 62
     7
 66
     1
 10
0
 20
0
 30
0.0
 70
     1
 40
0
 41
0
  0
VERTEX
  8
0
 10
9.04281
 20
29.1288
 30
0.0
 40
0
 41
0
  0
VERTEX
  8
0
 10
9.04281
 20
29.1288
 30
0.0
 40
0
 41
0
  0
VERTEX
  8
0
 10
9.04269
 20
29.1286
 30
0.0
 40
0
 41
0
  0
VERTEX
  8
0
 10
9.04269
 20
29.1286
 30
0.0
 40
0
 41
0
  0
VERTEX
  8
0
 10
9.04269
 20
29.1286
 30
0.0
 40
0
 41
0
  0
VERTEX
  8
0
 10
9.04258
 20
29.1288
 30
0.0
 40
0
 41
0
  0
VERTEX
  8
0
 10
9.04258
 20
29.1288
 30
0.0
 40
0
 41
0
  0
VERTEX
  8
0
 10
9.04258
 20
29.1288
 30
0.0
 40
0
 41
0
  0
VERTEX
  8
0
 10
9.04269
 20
29.1288
 30
0.0
 40
0
 41
0
  0
VERTEX
  8
0
 10
9.04269
 20
29.1288
 30
0.0
 40
0
 41
0
  0
VERTEX
  8
0
 10
9.04269
 20
29.1288
 30
0.0
 40
0
 41
0
  0
VERTEX
  8
0
 10
9.04281
 20
29.1288
 30
0.0
 40
0
 41
0
  0
VERTEX
  8
0
 10
9.04281
 20
29.1288
 30
0.0
 40
0
 41
0
  0
SEQEND
 8
0
  0
POLYLINE
  8
0
 62
     0
 66
     1
 10
0
 20
0
 30
0.0
 70
     1
 40
0.1575
 41
0.1575
  0
VERTEX
  8
0
 10
9.04281
 20
29.1288
 30
0.0
 40
0.0021875
 41
0.0021875
  0
VERTEX
  8
0
 10
9.04281
 20
29.1288
 30
0.0
 40
0.0021875
 41
0.0021875
  0
VERTEX
  8
0
 10
9.04269
 20
29.1286
 30
0.0
 40
0.0021875
 41
0.0021875
  0
VERTEX
  8
0
 10
9.04269
 20
29.1286
 30
0.0
 40
0.0021875
 41
0.0021875
  0
VERTEX
  8
0
 10
9.04269
 20
29.1286
 30
0.0
 40
0.0021875
 41
0.0021875
  0
VERTEX
  8
0
 10
9.04258
 20
29.1288
 30
0.0
 40
0.0021875
 41
0.0021875
  0
VERTEX
  8
0
 10
9.04258
 20
29.1288
 30
0.0
 40
0.0021875
 41
0.0021875
  0
VERTEX
  8
0
 10
9.04258
 20
29.1288
 30
0.0
 40
0.0021875
 41
0.0021875
  0
VERTEX
  8
0
 10
9.04269
 20
29.1288
 30
0.0
 40
0.0021875
 41
0.0021875
  0
VERTEX
  8
0
 10
9.04269
 20
29.1288
 30
0.0
 40
0.0021875
 41
0.0021875
  0
VERTEX
  8
0
 10
9.04269
 20
29.1288
 30
0.0
 40
0.0021875
 41
0.0021875
  0
VERTEX
  8
0
 10
9.04281
 20
29.1288
 30
0.0
 40
0.0021875
 41
0.0021875
  0
VERTEX
  8
0
 10
9.04281
 20
29.1288
 30
0.0
 40
0.0021875
 41
0.0021875
  0
SEQEND
 8
0
  0
POLYLINE
  8
0
 62
     7
 66
     1
 10
0
 20
0
 30
0.0
 70
     1
 40
0
 41
0
  0
VERTEX
  8
0
 10
4.24457
 20
31.8722
 30
0.0
 40
0
 41
0
  0
VERTEX
  8
0
 10
4.24457
 20
31.8722
 30
0.0
 40
0
 41
0
  0
VERTEX
  8
0
 10
4.24447
 20
31.8722
 30
0.0
 40
0
 41
0
  0
VERTEX
  8
0
 10
4.24447
 20
31.8722
 30
0.0
 40
0
 41
0
  0
VERTEX
  8
0
 10
4.24447
 20
31.8722
 30
0.0
 40
0
 41
0
  0
VERTEX
  8
0
 10
4.24442
 20
31.8722
 30
0.0
 40
0
 41
0
  0
VERTEX
  8
0
 10
4.24442
 20
31.8722
 30
0.0
 40
0
 41
0
  0
VERTEX
  8
0
 10
4.24442
 20
31.8722
 30
0.0
 40
0
 41
0
  0
VERTEX
  8
0
 10
4.24447
 20
31.8724
 30
0.0
 40
0
 41
0
  0
VERTEX
  8
0
 10
4.24447
 20
31.8724
 30
0.0
 40
0
 41
0
  0
VERTEX
  8
0
 10
4.24447
 20
31.8724
 30
0.0
 40
0
 41
0
  0
VERTEX
  8
0
 10
4.24457
 20
31.8722
 30
0.0
 40
0
 41
0
  0
VERTEX
  8
0
 10
4.24457
 20
31.8722
 30
0.0
 40
0
 41
0
  0
SEQEND
 8
0
  0
POLYLINE
  8
0
 62
     0
 66
     1
 10
0
 20
0
 30
0.0
 70
     1
 40
0.1575
 41
0.1575
  0
VERTEX
  8
0
 10
4.24457
 20
31.8722
 30
0.0
 40
0.0021875
 41
0.0021875
  0
VERTEX
  8
0
 10
4.24457
 20
31.8722
 30
0.0
 40
0.0021875
 41
0.0021875
  0
VERTEX
  8
0
 10
4.24447
 20
31.8722
 30
0.0
 40
0.0021875
 41
0.0021875
  0
VERTEX
  8
0
 10
4.24447
 20
31.8722
 30
0.0
 40
0.0021875
 41
0.0021875
  0
VERTEX
  8
0
 10
4.24447
 20
31.8722
 30
0.0
 40
0.0021875
 41
0.0021875
  0
VERTEX
  8
0
 10
4.24442
 20
31.8722
 30
0.0
 40
0.0021875
 41
0.0021875
  0
VERTEX
  8
0
 10
4.24442
 20
31.8722
 30
0.0
 40
0.0021875
 41
0.0021875
  0
VERTEX
  8
0
 10
4.24442
 20
31.8722
 30
0.0
 40
0.0021875
 41
0.0021875
  0
VERTEX
  8
0
 10
4.24447
 20
31.8724
 30
0.0
 40
0.0021875
 41
0.0021875
  0
VERTEX
  8
0
 10
4.24447
 20
31.8724
 30
0.0
 40
0.0021875
 41
0.0021875
  0
VERTEX
  8
0
 10
4.24447
 20
31.8724
 30
0.0
 40
0.0021875
 41
0.0021875
  0
VERTEX
  8
0
 10
4.24457
 20
31.8722
 30
0.0
 40
0.0021875
 41
0.0021875
  0
VERTEX
  8
0
 10
4.24457
 20
31.8722
 30
0.0
 40
0.0021875
 41
0.0021875
  0
SEQEND
 8
0
  0
POLYLINE
  8
0
 62
     7
 66
     1
 10
0
 20
0
 30
0.0
 70
     1
 40
0
 41
0
  0
VERTEX
  8
0
 10
4.24457
 20
29.1288
 30
0.0
 40
0
 41
0
  0
VERTEX
  8
0
 10
4.24457
 20
29.1288
 30
0.0
 40
0
 41
0
  0
VERTEX
  8
0
 10
4.24447
 20
29.1286
 30
0.0
 40
0
 41
0
  0
VERTEX
  8
0
 10
4.24447
 20
29.1286
 30
0.0
 40
0
 41
0
  0
VERTEX
  8
0
 10
4.24447
 20
29.1286
 30
0.0
 40
0
 41
0
  0
VERTEX
  8
0
 10
4.24442
 20
29.1288
 30
0.0
 40
0
 41
0
  0
VERTEX
  8
0
 10
4.24442
 20
29.1288
 30
0.0
 40
0
 41
0
  0
VERTEX
  8
0
 10
4.24442
 20
29.1288
 30
0.0
 40
0
 41
0
  0
VERTEX
  8
0
 10
4.24447
 20
29.1288
 30
0.0
 40
0
 41
0
  0
VERTEX
  8
0
 10
4.24447
 20
29.1288
 30
0.0
 40
0
 41
0
  0
VERTEX
  8
0
 10
4.24447
 20
29.1288
 30
0.0
 40
0
 41
0
  0
VERTEX
  8
0
 10
4.24457
 20
29.1288
 30
0.0
 40
0
 41
0
  0
VERTEX
  8
0
 10
4.24457
 20
29.1288
 30
0.0
 40
0
 41
0
  0
SEQEND
 8
0
  0
POLYLINE
  8
0
 62
     0
 66
     1
 10
0
 20
0
 30
0.0
 70
     1
 40
0.1575
 41
0.1575
  0
VERTEX
  8
0
 10
4.24457
 20
29.1288
 30
0.0
 40
0.0021875
 41
0.0021875
  0
VERTEX
  8
0
 10
4.24457
 20
29.1288
 30
0.0
 40
0.0021875
 41
0.0021875
  0
VERTEX
  8
0
 10
4.24447
 20
29.1286
 30
0.0
 40
0.0021875
 41
0.0021875
  0
VERTEX
  8
0
 10
4.24447
 20
29.1286
 30
0.0
 40
0.0021875
 41
0.0021875
  0
VERTEX
  8
0
 10
4.24447
 20
29.1286
 30
0.0
 40
0.0021875
 41
0.0021875
  0
VERTEX
  8
0
 10
4.24442
 20
29.1288
 30
0.0
 40
0.0021875
 41
0.0021875
  0
VERTEX
  8
0
 10
4.24442
 20
29.1288
 30
0.0
 40
0.0021875
 41
0.0021875
  0
VERTEX
  8
0
 10
4.24442
 20
29.1288
 30
0.0
 40
0.0021875
 41
0.0021875
  0
VERTEX
  8
0
 10
4.24447
 20
29.1288
 30
0.0
 40
0.0021875
 41
0.0021875
  0
VERTEX
  8
0
 10
4.24447
 20
29.1288
 30
0.0
 40
0.0021875
 41
0.0021875
  0
VERTEX
  8
0
 10
4.24447
 20
29.1288
 30
0.0
 40
0.0021875
 41
0.0021875
  0
VERTEX
  8
0
 10
4.24457
 20
29.1288
 30
0.0
 40
0.0021875
 41
0.0021875
  0
VERTEX
  8
0
 10
4.24457
 20
29.1288
 30
0.0
 40
0.0021875
 41
0.0021875
  0
SEQEND
 8
0
  0
POLYLINE
  8
0
 62
     7
 66
     1
 10
0
 20
0
 30
0.0
 70
     1
 40
0
 41
0
  0
VERTEX
  8
0
 10
4.24457
 20
29.1288
 30
0.0
 40
0
 41
0
  0
VERTEX
  8
0
 10
4.24457
 20
29.1288
 30
0.0
 40
0
 41
0
  0
VERTEX
  8
0
 10
4.24447
 20
29.1286
 30
0.0
 40
0
 41
0
  0
VERTEX
  8
0
 10
4.24447
 20
29.1286
 30
0.0
 40
0
 41
0
  0
VERTEX
  8
0
 10
4.24447
 20
29.1286
 30
0.0
 40
0
 41
0
  0
VERTEX
  8
0
 10
4.24442
 20
29.1288
 30
0.0
 40
0
 41
0
  0
VERTEX
  8
0
 10
4.24442
 20
29.1288
 30
0.0
 40
0
 41
0
  0
VERTEX
  8
0
 10
4.24442
 20
29.1288
 30
0.0
 40
0
 41
0
  0
VERTEX
  8
0
 10
4.24447
 20
29.1288
 30
0.0
 40
0
 41
0
  0
VERTEX
  8
0
 10
4.24447
 20
29.1288
 30
0.0
 40
0
 41
0
  0
VERTEX
  8
0
 10
4.24447
 20
29.1288
 30
0.0
 40
0
 41
0
  0
VERTEX
  8
0
 10
4.24457
 20
29.1288
 30
0.0
 40
0
 41
0
  0
VERTEX
  8
0
 10
4.24457
 20
29.1288
 30
0.0
 40
0
 41
0
  0
SEQEND
 8
0
  0
POLYLINE
  8
0
 62
     0
 66
     1
 10
0
 20
0
 30
0.0
 70
     1
 40
0.1575
 41
0.1575
  0
VERTEX
  8
0
 10
4.24457
 20
29.1288
 30
0.0
 40
0.0021875
 41
0.0021875
  0
VERTEX
  8
0
 10
4.24457
 20
29.1288
 30
0.0
 40
0.0021875
 41
0.0021875
  0
VERTEX
  8
0
 10
4.24447
 20
29.1286
 30
0.0
 40
0.0021875
 41
0.0021875
  0
VERTEX
  8
0
 10
4.24447
 20
29.1286
 30
0.0
 40
0.0021875
 41
0.0021875
  0
VERTEX
  8
0
 10
4.24447
 20
29.1286
 30
0.0
 40
0.0021875
 41
0.0021875
  0
VERTEX
  8
0
 10
4.24442
 20
29.1288
 30
0.0
 40
0.0021875
 41
0.0021875
  0
VERTEX
  8
0
 10
4.24442
 20
29.1288
 30
0.0
 40
0.0021875
 41
0.0021875
  0
VERTEX
  8
0
 10
4.24442
 20
29.1288
 30
0.0
 40
0.0021875
 41
0.0021875
  0
VERTEX
  8
0
 10
4.24447
 20
29.1288
 30
0.0
 40
0.0021875
 41
0.0021875
  0
VERTEX
  8
0
 10
4.24447
 20
29.1288
 30
0.0
 40
0.0021875
 41
0.0021875
  0
VERTEX
  8
0
 10
4.24447
 20
29.1288
 30
0.0
 40
0.0021875
 41
0.0021875
  0
VERTEX
  8
0
 10
4.24457
 20
29.1288
 30
0.0
 40
0.0021875
 41
0.0021875
  0
VERTEX
  8
0
 10
4.24457
 20
29.1288
 30
0.0
 40
0.0021875
 41
0.0021875
  0
SEQEND
 8
0
  0
POLYLINE
  8
0
 62
     7
 66
     1
 10
0
 20
0
 30
0.0
 70
     1
 40
0
 41
0
  0
VERTEX
  8
0
 10
9.04281
 20
31.8722
 30
0.0
 40
0
 41
0
  0
VERTEX
  8
0
 10
9.04281
 20
31.8722
 30
0.0
 40
0
 41
0
  0
VERTEX
  8
0
 10
9.04269
 20
31.8722
 30
0.0
 40
0
 41
0
  0
VERTEX
  8
0
 10
9.04269
 20
31.8722
 30
0.0
 40
0
 41
0
  0
VERTEX
  8
0
 10
9.04269
 20
31.8722
 30
0.0
 40
0
 41
0
  0
VERTEX
  8
0
 10
9.04258
 20
31.8722
 30
0.0
 40
0
 41
0
  0
VERTEX
  8
0
 10
9.04258
 20
31.8722
 30
0.0
 40
0
 41
0
  0
VERTEX
  8
0
 10
9.04258
 20
31.8722
 30
0.0
 40
0
 41
0
  0
VERTEX
  8
0
 10
9.04269
 20
31.8724
 30
0.0
 40
0
 41
0
  0
VERTEX
  8
0
 10
9.04269
 20
31.8724
 30
0.0
 40
0
 41
0
  0
VERTEX
  8
0
 10
9.04269
 20
31.8724
 30
0.0
 40
0
 41
0
  0
VERTEX
  8
0
 10
9.04281
 20
31.8722
 30
0.0
 40
0
 41
0
  0
VERTEX
  8
0
 10
9.04281
 20
31.8722
 30
0.0
 40
0
 41
0
  0
SEQEND
 8
0
  0
POLYLINE
  8
0
 62
     0
 66
     1
 10
0
 20
0
 30
0.0
 70
     1
 40
0.1575
 41
0.1575
  0
VERTEX
  8
0
 10
9.04281
 20
31.8722
 30
0.0
 40
0.0021875
 41
0.0021875
  0
VERTEX
  8
0
 10
9.04281
 20
31.8722
 30
0.0
 40
0.0021875
 41
0.0021875
  0
VERTEX
  8
0
 10
9.04269
 20
31.8722
 30
0.0
 40
0.0021875
 41
0.0021875
  0
VERTEX
  8
0
 10
9.04269
 20
31.8722
 30
0.0
 40
0.0021875
 41
0.0021875
  0
VERTEX
  8
0
 10
9.04269
 20
31.8722
 30
0.0
 40
0.0021875
 41
0.0021875
  0
VERTEX
  8
0
 10
9.04258
 20
31.8722
 30
0.0
 40
0.0021875
 41
0.0021875
  0
VERTEX
  8
0
 10
9.04258
 20
31.8722
 30
0.0
 40
0.0021875
 41
0.0021875
  0
VERTEX
  8
0
 10
9.04258
 20
31.8722
 30
0.0
 40
0.0021875
 41
0.0021875
  0
VERTEX
  8
0
 10
9.04269
 20
31.8724
 30
0.0
 40
0.0021875
 41
0.0021875
  0
VERTEX
  8
0
 10
9.04269
 20
31.8724
 30
0.0
 40
0.0021875
 41
0.0021875
  0
VERTEX
  8
0
 10
9.04269
 20
31.8724
 30
0.0
 40
0.0021875
 41
0.0021875
  0
VERTEX
  8
0
 10
9.04281
 20
31.8722
 30
0.0
 40
0.0021875
 41
0.0021875
  0
VERTEX
  8
0
 10
9.04281
 20
31.8722
 30
0.0
 40
0.0021875
 41
0.0021875
  0
SEQEND
 8
0
  0
POLYLINE
  8
0
 62
     7
 66
     1
 10
0
 20
0
 30
0.0
 70
     1
 40
0
 41
0
  0
VERTEX
  8
0
 10
9.04281
 20
31.8722
 30
0.0
 40
0
 41
0
  0
VERTEX
  8
0
 10
9.04281
 20
31.8722
 30
0.0
 40
0
 41
0
  0
VERTEX
  8
0
 10
9.04269
 20
31.8722
 30
0.0
 40
0
 41
0
  0
VERTEX
  8
0
 10
9.04269
 20
31.8722
 30
0.0
 40
0
 41
0
  0
VERTEX
  8
0
 10
9.04269
 20
31.8722
 30
0.0
 40
0
 41
0
  0
VERTEX
  8
0
 10
9.04258
 20
31.8722
 30
0.0
 40
0
 41
0
  0
VERTEX
  8
0
 10
9.04258
 20
31.8722
 30
0.0
 40
0
 41
0
  0
VERTEX
  8
0
 10
9.04258
 20
31.8722
 30
0.0
 40
0
 41
0
  0
VERTEX
  8
0
 10
9.04269
 20
31.8724
 30
0.0
 40
0
 41
0
  0
VERTEX
  8
0
 10
9.04269
 20
31.8724
 30
0.0
 40
0
 41
0
  0
VERTEX
  8
0
 10
9.04269
 20
31.8724
 30
0.0
 40
0
 41
0
  0
VERTEX
  8
0
 10
9.04281
 20
31.8722
 30
0.0
 40
0
 41
0
  0
VERTEX
  8
0
 10
9.04281
 20
31.8722
 30
0.0
 40
0
 41
0
  0
SEQEND
 8
0
  0
POLYLINE
  8
0
 62
     0
 66
     1
 10
0
 20
0
 30
0.0
 70
     1
 40
0.1575
 41
0.1575
  0
VERTEX
  8
0
 10
9.04281
 20
31.8722
 30
0.0
 40
0.0021875
 41
0.0021875
  0
VERTEX
  8
0
 10
9.04281
 20
31.8722
 30
0.0
 40
0.0021875
 41
0.0021875
  0
VERTEX
  8
0
 10
9.04269
 20
31.8722
 30
0.0
 40
0.0021875
 41
0.0021875
  0
VERTEX
  8
0
 10
9.04269
 20
31.8722
 30
0.0
 40
0.0021875
 41
0.0021875
  0
VERTEX
  8
0
 10
9.04269
 20
31.8722
 30
0.0
 40
0.0021875
 41
0.0021875
  0
VERTEX
  8
0
 10
9.04258
 20
31.8722
 30
0.0
 40
0.0021875
 41
0.0021875
  0
VERTEX
  8
0
 10
9.04258
 20
31.8722
 30
0.0
 40
0.0021875
 41
0.0021875
  0
VERTEX
  8
0
 10
9.04258
 20
31.8722
 30
0.0
 40
0.0021875
 41
0.0021875
  0
VERTEX
  8
0
 10
9.04269
 20
31.8724
 30
0.0
 40
0.0021875
 41
0.0021875
  0
VERTEX
  8
0
 10
9.04269
 20
31.8724
 30
0.0
 40
0.0021875
 41
0.0021875
  0
VERTEX
  8
0
 10
9.04269
 20
31.8724
 30
0.0
 40
0.0021875
 41
0.0021875
  0
VERTEX
  8
0
 10
9.04281
 20
31.8722
 30
0.0
 40
0.0021875
 41
0.0021875
  0
VERTEX
  8
0
 10
9.04281
 20
31.8722
 30
0.0
 40
0.0021875
 41
0.0021875
  0
SEQEND
 8
0
  0
POLYLINE
  8
0
 62
     7
 66
     1
 10
0
 20
0
 30
0.0
 70
     1
 40
0
 41
0
  0
VERTEX
  8
0
 10
9.04303
 20
29.1288
 30
0.0
 40
0
 41
0
  0
VERTEX
  8
0
 10
9.04303
 20
29.1288
 30
0.0
 40
0
 41
0
  0
VERTEX
  8
0
 10
9.04292
 20
29.1286
 30
0.0
 40
0
 41
0
  0
VERTEX
  8
0
 10
9.04292
 20
29.1286
 30
0.0
 40
0
 41
0
  0
VERTEX
  8
0
 10
9.04292
 20
29.1286
 30
0.0
 40
0
 41
0
  0
VERTEX
  8
0
 10
9.04281
 20
29.1288
 30
0.0
 40
0
 41
0
  0
VERTEX
  8
0
 10
9.04281
 20
29.1288
 30
0.0
 40
0
 41
0
  0
VERTEX
  8
0
 10
9.04281
 20
29.1288
 30
0.0
 40
0
 41
0
  0
VERTEX
  8
0
 10
9.04292
 20
29.1288
 30
0.0
 40
0
 41
0
  0
VERTEX
  8
0
 10
9.04292
 20
29.1288
 30
0.0
 40
0
 41
0
  0
VERTEX
  8
0
 10
9.04292
 20
29.1288
 30
0.0
 40
0
 41
0
  0
VERTEX
  8
0
 10
9.04303
 20
29.1288
 30
0.0
 40
0
 41
0
  0
VERTEX
  8
0
 10
9.04303
 20
29.1288
 30
0.0
 40
0
 41
0
  0
SEQEND
 8
0
  0
POLYLINE
  8
0
 62
     0
 66
     1
 10
0
 20
0
 30
0.0
 70
     1
 40
0.1575
 41
0.1575
  0
VERTEX
  8
0
 10
9.04303
 20
29.1288
 30
0.0
 40
0.0021875
 41
0.0021875
  0
VERTEX
  8
0
 10
9.04303
 20
29.1288
 30
0.0
 40
0.0021875
 41
0.0021875
  0
VERTEX
  8
0
 10
9.04292
 20
29.1286
 30
0.0
 40
0.0021875
 41
0.0021875
  0
VERTEX
  8
0
 10
9.04292
 20
29.1286
 30
0.0
 40
0.0021875
 41
0.0021875
  0
VERTEX
  8
0
 10
9.04292
 20
29.1286
 30
0.0
 40
0.0021875
 41
0.0021875
  0
VERTEX
  8
0
 10
9.04281
 20
29.1288
 30
0.0
 40
0.0021875
 41
0.0021875
  0
VERTEX
  8
0
 10
9.04281
 20
29.1288
 30
0.0
 40
0.0021875
 41
0.0021875
  0
VERTEX
  8
0
 10
9.04281
 20
29.1288
 30
0.0
 40
0.0021875
 41
0.0021875
  0
VERTEX
  8
0
 10
9.04292
 20
29.1288
 30
0.0
 40
0.0021875
 41
0.0021875
  0
VERTEX
  8
0
 10
9.04292
 20
29.1288
 30
0.0
 40
0.0021875
 41
0.0021875
  0
VERTEX
  8
0
 10
9.04292
 20
29.1288
 30
0.0
 40
0.0021875
 41
0.0021875
  0
VERTEX
  8
0
 10
9.04303
 20
29.1288
 30
0.0
 40
0.0021875
 41
0.0021875
  0
VERTEX
  8
0
 10
9.04303
 20
29.1288
 30
0.0
 40
0.0021875
 41
0.0021875
  0
SEQEND
 8
0
  0
POLYLINE
  8
0
 62
     7
 66
     1
 10
0
 20
0
 30
0.0
 70
     1
 40
0
 41
0
  0
VERTEX
  8
0
 10
9.04303
 20
29.1288
 30
0.0
 40
0
 41
0
  0
VERTEX
  8
0
 10
9.04303
 20
29.1288
 30
0.0
 40
0
 41
0
  0
VERTEX
  8
0
 10
9.04292
 20
29.1286
 30
0.0
 40
0
 41
0
  0
VERTEX
  8
0
 10
9.04292
 20
29.1286
 30
0.0
 40
0
 41
0
  0
VERTEX
  8
0
 10
9.04292
 20
29.1286
 30
0.0
 40
0
 41
0
  0
VERTEX
  8
0
 10
9.04281
 20
29.1288
 30
0.0
 40
0
 41
0
  0
VERTEX
  8
0
 10
9.04281
 20
29.1288
 30
0.0
 40
0
 41
0
  0
VERTEX
  8
0
 10
9.04281
 20
29.1288
 30
0.0
 40
0
 41
0
  0
VERTEX
  8
0
 10
9.04292
 20
29.1288
 30
0.0
 40
0
 41
0
  0
VERTEX
  8
0
 10
9.04292
 20
29.1288
 30
0.0
 40
0
 41
0
  0
VERTEX
  8
0
 10
9.04292
 20
29.1288
 30
0.0
 40
0
 41
0
  0
VERTEX
  8
0
 10
9.04303
 20
29.1288
 30
0.0
 40
0
 41
0
  0
VERTEX
  8
0
 10
9.04303
 20
29.1288
 30
0.0
 40
0
 41
0
  0
SEQEND
 8
0
  0
POLYLINE
  8
0
 62
     0
 66
     1
 10
0
 20
0
 30
0.0
 70
     1
 40
0.1575
 41
0.1575
  0
VERTEX
  8
0
 10
9.04303
 20
29.1288
 30
0.0
 40
0.0021875
 41
0.0021875
  0
VERTEX
  8
0
 10
9.04303
 20
29.1288
 30
0.0
 40
0.0021875
 41
0.0021875
  0
VERTEX
  8
0
 10
9.04292
 20
29.1286
 30
0.0
 40
0.0021875
 41
0.0021875
  0
VERTEX
  8
0
 10
9.04292
 20
29.1286
 30
0.0
 40
0.0021875
 41
0.0021875
  0
VERTEX
  8
0
 10
9.04292
 20
29.1286
 30
0.0
 40
0.0021875
 41
0.0021875
  0
VERTEX
  8
0
 10
9.04281
 20
29.1288
 30
0.0
 40
0.0021875
 41
0.0021875
  0
VERTEX
  8
0
 10
9.04281
 20
29.1288
 30
0.0
 40
0.0021875
 41
0.0021875
  0
VERTEX
  8
0
 10
9.04281
 20
29.1288
 30
0.0
 40
0.0021875
 41
0.0021875
  0
VERTEX
  8
0
 10
9.04292
 20
29.1288
 30
0.0
 40
0.0021875
 41
0.0021875
  0
VERTEX
  8
0
 10
9.04292
 20
29.1288
 30
0.0
 40
0.0021875
 41
0.0021875
  0
VERTEX
  8
0
 10
9.04292
 20
29.1288
 30
0.0
 40
0.0021875
 41
0.0021875
  0
VERTEX
  8
0
 10
9.04303
 20
29.1288
 30
0.0
 40
0.0021875
 41
0.0021875
  0
VERTEX
  8
0
 10
9.04303
 20
29.1288
 30
0.0
 40
0.0021875
 41
0.0021875
  0
SEQEND
 8
0
  0
TEXT
  8
0
 62
     0
 10
4.48671
 20
31.4042
 30
0
 40
0.303822
  1
This device 
 50
0
  7
DejaVuSans
  0
TEXT
  8
0
 62
     0
 10
6.29925
 20
31.4042
 30
0
 40
0.303822
  1
run
 50
0
  7
DejaVuSans
  0
TEXT
  8
0
 62
     0
 10
6.81015
 20
31.4042
 30
0
 40
0.303822
  1
s GNUK
 50
0
  7
DejaVuSans
  0
TEXT
  8
0
 62
     0
 10
4.42447
 20
30.2675
 30
0
 40
0.830817
  1
Modi
 50
0
  7
DejaVuSans-Bold
  0
TEXT
  8
0
 62
     0
 10
6.70386
 20
30.2675
 30
0
 40
0.830817
  1
rum
 50
0
  7
DejaVuSans-Bold
  0
TEXT
  8
0
 62
     0
 10
5.6426
 20
29.99
 30
0
 40
0.238718
  1
Secur
 50
0
  7
DejaVuSans
  0
TEXT
  8
0
 62
     0
 10
6.27937
 20
29.99
 30
0
 40
0.238718
  1
e
 50
0
  7
DejaVuSans
  0
TEXT
  8
0
 62
     0
 10
6.41215
 20
29.99
 30
0
 40
0.238718
  1
d by F
 50
0
  7
DejaVuSans
  0
TEXT
  8
0
 62
     0
 10
7.12868
 20
29.99
 30
0
 40
0.238718
  1
r
 50
0
  7
DejaVuSans
  0
TEXT
  8
0
 62
     0
 10
7.18171
 20
29.99
 30
0
 40
0.238718
  1
e
 50
0
  7
DejaVuSans
  0
TEXT
  8
0
 62
     0
 10
7.31425
 20
29.99
 30
0
 40
0.238718
  1
eB
 50
0
  7
DejaVuSans
  0
TEXT
  8
0
 62
     0
 10
7.62056
 20
29.99
 30
0
 40
0.238718
  1
SD
 50
0
  7
DejaVuSans
  0
TEXT
  8
0
 62
     0
 10
4.46488
 20
31.1618
 30
0
 40
0.217011
  1
F
 50
0
  7
DejaVuSans
  0
TEXT
  8
0
 62
     0
 10
4.57425
 20
31.1618
 30
0
 40
0.217011
  1
r
 50
0
  7
DejaVuSans
  0
TEXT
  8
0
 62
     0
 10
4.65781
 20
31.1618
 30
0
 40
0.217011
  1
e
 50
0
  7
DejaVuSans
  0
TEXT
  8
0
 62
     0
 10
4.77413
 20
31.1618
 30
0
 40
0.217011
  1
e Sof
 50
0
  7
DejaVuSans
  0
TEXT
  8
0
 62
     0
 10
5.31953
 20
31.1618
 30
0
 40
0.217011
  1
twar
 50
0
  7
DejaVuSans
  0
TEXT
  8
0
 62
     0
 10
5.69811
 20
31.1618
 30
0
 40
0.217011
  1
e
 50
0
  7
DejaVuSans
  0
TEXT
  8
0
 62
     0
 10
5.81465
 20
31.1618
 30
0
 40
0.217011
  1
 Initiative of Japan
 50
0
  7
DejaVuSans
  0
POLYLINE
  8
0
 62
     7
 66
     1
 10
0
 20
0
 30
0.0
 70
     1
 40
0
 41
0
  0
VERTEX
  8
0
 10
3.99756
 20
31.8722
 30
0.0
 40
0
 41
0
  0
VERTEX
  8
0
 10
3.99756
 20
31.8722
 30
0.0
 40
0
 41
0
  0
VERTEX
  8
0
 10
3.99735
 20
31.8722
 30
0.0
 40
0
 41
0
  0
VERTEX
  8
0
 10
3.99729
 20
31.8722
 30
0.0
 40
0
 41
0
  0
VERTEX
  8
0
 10
3.99718
 20
31.8722
 30
0.0
 40
0
 41
0
  0
VERTEX
  8
0
 10
3.99701
 20
31.8722
 30
0.0
 40
0
 41
0
  0
VERTEX
  8
0
 10
3.99701
 20
31.8722
 30
0.0
 40
0
 41
0
  0
VERTEX
  8
0
 10
3.99701
 20
31.8722
 30
0.0
 40
0
 41
0
  0
VERTEX
  8
0
 10
3.99718
 20
31.8724
 30
0.0
 40
0
 41
0
  0
VERTEX
  8
0
 10
3.99729
 20
31.8724
 30
0.0
 40
0
 41
0
  0
VERTEX
  8
0
 10
3.99735
 20
31.8724
 30
0.0
 40
0
 41
0
  0
VERTEX
  8
0
 10
3.99756
 20
31.8722
 30
0.0
 40
0
 41
0
  0
VERTEX
  8
0
 10
3.99756
 20
31.8722
 30
0.0
 40
0
 41
0
  0
SEQEND
 8
0
  0
POLYLINE
  8
0
 62
     0
 66
     1
 10
0
 20
0
 30
0.0
 70
     1
 40
0.156377
 41
0.156377
  0
VERTEX
  8
0
 10
3.99756
 20
31.8722
 30
0.0
 40
0.0021719
 41
0.0021719
  0
VERTEX
  8
0
 10
3.99756
 20
31.8722
 30
0.0
 40
0.0021719
 41
0.0021719
  0
VERTEX
  8
0
 10
3.99735
 20
31.8722
 30
0.0
 40
0.0021719
 41
0.0021719
  0
VERTEX
  8
0
 10
3.99729
 20
31.8722
 30
0.0
 40
0.0021719
 41
0.0021719
  0
VERTEX
  8
0
 10
3.99718
 20
31.8722
 30
0.0
 40
0.0021719
 41
0.0021719
  0
VERTEX
  8
0
 10
3.99701
 20
31.8722
 30
0.0
 40
0.0021719
 41
0.0021719
  0
VERTEX
  8
0
 10
3.99701
 20
31.8722
 30
0.0
 40
0.0021719
 41
0.0021719
  0
VERTEX
  8
0
 10
3.99701
 20
31.8722
 30
0.0
 40
0.0021719
 41
0.0021719
  0
VERTEX
  8
0
 10
3.99718
 20
31.8724
 30
0.0
 40
0.0021719
 41
0.0021719
  0
VERTEX
  8
0
 10
3.99729
 20
31.8724
 30
0.0
 40
0.0021719
 41
0.0021719
  0
VERTEX
  8
0
 10
3.99735
 20
31.8724
 30
0.0
 40
0.0021719
 41
0.0021719
  0
VERTEX
  8
0
 10
3.99756
 20
31.8722
 30
0.0
 40
0.0021719
 41
0.0021719
  0
VERTEX
  8
0
 10
3.99756
 20
31.8722
 30
0.0
 40
0.0021719
 41
0.0021719
  0
SEQEND
 8
0
  0
POLYLINE
  8
0
 62
     0
 66
     1
 10
0
 20
0
 30
0.0
 70
     1
 40
0.156156
 41
0.156156
  0
VERTEX
  8
0
 10
8.18056
 20
29.7435
 30
0.0
 40
0.00216883
 41
0.00216883
  0
VERTEX
  8
0
 10
8.18056
 20
29.7436
 30
0.0
 40
0.00216883
 41
0.00216883
  0
VERTEX
  8
0
 10
8.18093
 20
29.7439
 30
0.0
 40
0.00216883
 41
0.00216883
  0
VERTEX
  8
0
 10
8.1811
 20
29.7439
 30
0.0
 40
0.00216883
 41
0.00216883
  0
VERTEX
  8
0
 10
8.18121
 20
29.7439
 30
0.0
 40
0.00216883
 41
0.00216883
  0
VERTEX
  8
0
 10
8.18158
 20
29.7436
 30
0.0
 40
0.00216883
 41
0.00216883
  0
VERTEX
  8
0
 10
8.18158
 20
29.7435
 30
0.0
 40
0.00216883
 41
0.00216883
  0
VERTEX
  8
0
 10
8.18158
 20
29.7433
 30
0.0
 40
0.00216883
 41
0.00216883
  0
VERTEX
  8
0
 10
8.18121
 20
29.7429
 30
0.0
 40
0.00216883
 41
0.00216883
  0
VERTEX
  8
0
 10
8.1811
 20
29.7429
 30
0.0
 40
0.00216883
 41
0.00216883
  0
VERTEX
  8
0
 10
8.18093
 20
29.7429
 30
0.0
 40
0.00216883
 41
0.00216883
  0
VERTEX
  8
0
 10
8.18056
 20
29.7433
 30
0.0
 40
0.00216883
 41
0.00216883
  0
VERTEX
  8
0
 10
8.18056
 20
29.7435
 30
0.0
 40
0.00216883
 41
0.00216883
  0
SEQEND
 8
0
  0
ENDSEC
  0
EOF
