  0
SECTION
  2
HEADER
  9
$ACADVER
  1
AC1009
  9
$EXTMIN
 10
0.0
 20
0.0
 30
0.0
  9
$EXTMAX
 10
1000.0
 20
1000.0
 30
0.0
  9
$FILLMODE
 70
 0
  9
$SPLFRAME
 70
 1
  0
ENDSEC
  0
SECTION
  2
TABLES
  0
TABLE
  2
LAYER
 70
1
  0
LAYER
  2
0
 70
     0
 62
     7
  6
CONTINUOUS
  0
ENDTAB
  0
ENDSEC
  0
SECTION
  2
ENTITIES
  0
POLYLINE
  8
0
 62
     0
 66
     1
 10
0
 20
0
 30
0.0
 70
     1
 40
0.658755
 41
0.658755
  0
VERTEX
  8
0
 10
2.76839
 20
33.0951
 30
0.0
 40
0.00914938
 41
0.00914938
  0
VERTEX
  8
0
 10
52.5942
 20
33.0951
 30
0.0
 40
0.00914938
 41
0.00914938
  0
VERTEX
  8
0
 10
52.5942
 20
3.81342
 30
0.0
 40
0.00914938
 41
0.00914938
  0
VERTEX
  8
0
 10
2.76839
 20
3.81342
 30
0.0
 40
0.00914938
 41
0.00914938
  0
VERTEX
  8
0
 10
2.76839
 20
33.0951
 30
0.0
 40
0.00914938
 41
0.00914938
  0
SEQEND
 8
0
  0
POLYLINE
  8
0
 62
     7
 66
     1
 10
0
 20
0
 30
0.0
 70
     1
 40
0
 41
0
  0
VERTEX
  8
0
 10
4.24457
 20
31.8722
 30
0.0
 40
0
 41
0
  0
VERTEX
  8
0
 10
4.24457
 20
31.8722
 30
0.0
 40
0
 41
0
  0
VERTEX
  8
0
 10
4.24447
 20
31.8722
 30
0.0
 40
0
 41
0
  0
VERTEX
  8
0
 10
4.24447
 20
31.8722
 30
0.0
 40
0
 41
0
  0
VERTEX
  8
0
 10
4.24447
 20
31.8722
 30
0.0
 40
0
 41
0
  0
VERTEX
  8
0
 10
4.24442
 20
31.8722
 30
0.0
 40
0
 41
0
  0
VERTEX
  8
0
 10
4.24442
 20
31.8722
 30
0.0
 40
0
 41
0
  0
VERTEX
  8
0
 10
4.24442
 20
31.8722
 30
0.0
 40
0
 41
0
  0
VERTEX
  8
0
 10
4.24447
 20
31.8724
 30
0.0
 40
0
 41
0
  0
VERTEX
  8
0
 10
4.24447
 20
31.8724
 30
0.0
 40
0
 41
0
  0
VERTEX
  8
0
 10
4.24447
 20
31.8724
 30
0.0
 40
0
 41
0
  0
VERTEX
  8
0
 10
4.24457
 20
31.8722
 30
0.0
 40
0
 41
0
  0
VERTEX
  8
0
 10
4.24457
 20
31.8722
 30
0.0
 40
0
 41
0
  0
SEQEND
 8
0
  0
POLYLINE
  8
0
 62
     0
 66
     1
 10
0
 20
0
 30
0.0
 70
     1
 40
0.1575
 41
0.1575
  0
VERTEX
  8
0
 10
4.24457
 20
31.8722
 30
0.0
 40
0.0021875
 41
0.0021875
  0
VERTEX
  8
0
 10
4.24457
 20
31.8722
 30
0.0
 40
0.0021875
 41
0.0021875
  0
VERTEX
  8
0
 10
4.24447
 20
31.8722
 30
0.0
 40
0.0021875
 41
0.0021875
  0
VERTEX
  8
0
 10
4.24447
 20
31.8722
 30
0.0
 40
0.0021875
 41
0.0021875
  0
VERTEX
  8
0
 10
4.24447
 20
31.8722
 30
0.0
 40
0.0021875
 41
0.0021875
  0
VERTEX
  8
0
 10
4.24442
 20
31.8722
 30
0.0
 40
0.0021875
 41
0.0021875
  0
VERTEX
  8
0
 10
4.24442
 20
31.8722
 30
0.0
 40
0.0021875
 41
0.0021875
  0
VERTEX
  8
0
 10
4.24442
 20
31.8722
 30
0.0
 40
0.0021875
 41
0.0021875
  0
VERTEX
  8
0
 10
4.24447
 20
31.8724
 30
0.0
 40
0.0021875
 41
0.0021875
  0
VERTEX
  8
0
 10
4.24447
 20
31.8724
 30
0.0
 40
0.0021875
 41
0.0021875
  0
VERTEX
  8
0
 10
4.24447
 20
31.8724
 30
0.0
 40
0.0021875
 41
0.0021875
  0
VERTEX
  8
0
 10
4.24457
 20
31.8722
 30
0.0
 40
0.0021875
 41
0.0021875
  0
VERTEX
  8
0
 10
4.24457
 20
31.8722
 30
0.0
 40
0.0021875
 41
0.0021875
  0
SEQEND
 8
0
  0
POLYLINE
  8
0
 62
     7
 66
     1
 10
0
 20
0
 30
0.0
 70
     1
 40
0
 41
0
  0
VERTEX
  8
0
 10
4.24457
 20
31.8722
 30
0.0
 40
0
 41
0
  0
VERTEX
  8
0
 10
4.24457
 20
31.8722
 30
0.0
 40
0
 41
0
  0
VERTEX
  8
0
 10
4.24447
 20
31.8722
 30
0.0
 40
0
 41
0
  0
VERTEX
  8
0
 10
4.24447
 20
31.8722
 30
0.0
 40
0
 41
0
  0
VERTEX
  8
0
 10
4.24447
 20
31.8722
 30
0.0
 40
0
 41
0
  0
VERTEX
  8
0
 10
4.24442
 20
31.8722
 30
0.0
 40
0
 41
0
  0
VERTEX
  8
0
 10
4.24442
 20
31.8722
 30
0.0
 40
0
 41
0
  0
VERTEX
  8
0
 10
4.24442
 20
31.8722
 30
0.0
 40
0
 41
0
  0
VERTEX
  8
0
 10
4.24447
 20
31.8724
 30
0.0
 40
0
 41
0
  0
VERTEX
  8
0
 10
4.24447
 20
31.8724
 30
0.0
 40
0
 41
0
  0
VERTEX
  8
0
 10
4.24447
 20
31.8724
 30
0.0
 40
0
 41
0
  0
VERTEX
  8
0
 10
4.24457
 20
31.8722
 30
0.0
 40
0
 41
0
  0
VERTEX
  8
0
 10
4.24457
 20
31.8722
 30
0.0
 40
0
 41
0
  0
SEQEND
 8
0
  0
POLYLINE
  8
0
 62
     0
 66
     1
 10
0
 20
0
 30
0.0
 70
     1
 40
0.1575
 41
0.1575
  0
VERTEX
  8
0
 10
4.24457
 20
31.8722
 30
0.0
 40
0.0021875
 41
0.0021875
  0
VERTEX
  8
0
 10
4.24457
 20
31.8722
 30
0.0
 40
0.0021875
 41
0.0021875
  0
VERTEX
  8
0
 10
4.24447
 20
31.8722
 30
0.0
 40
0.0021875
 41
0.0021875
  0
VERTEX
  8
0
 10
4.24447
 20
31.8722
 30
0.0
 40
0.0021875
 41
0.0021875
  0
VERTEX
  8
0
 10
4.24447
 20
31.8722
 30
0.0
 40
0.0021875
 41
0.0021875
  0
VERTEX
  8
0
 10
4.24442
 20
31.8722
 30
0.0
 40
0.0021875
 41
0.0021875
  0
VERTEX
  8
0
 10
4.24442
 20
31.8722
 30
0.0
 40
0.0021875
 41
0.0021875
  0
VERTEX
  8
0
 10
4.24442
 20
31.8722
 30
0.0
 40
0.0021875
 41
0.0021875
  0
VERTEX
  8
0
 10
4.24447
 20
31.8724
 30
0.0
 40
0.0021875
 41
0.0021875
  0
VERTEX
  8
0
 10
4.24447
 20
31.8724
 30
0.0
 40
0.0021875
 41
0.0021875
  0
VERTEX
  8
0
 10
4.24447
 20
31.8724
 30
0.0
 40
0.0021875
 41
0.0021875
  0
VERTEX
  8
0
 10
4.24457
 20
31.8722
 30
0.0
 40
0.0021875
 41
0.0021875
  0
VERTEX
  8
0
 10
4.24457
 20
31.8722
 30
0.0
 40
0.0021875
 41
0.0021875
  0
SEQEND
 8
0
  0
TEXT
  8
0
 62
     0
 10
4.48671
 20
31.4042
 30
0
 40
0.303822
  1
This device 
 50
0
  7
DejaVuSans
  0
TEXT
  8
0
 62
     0
 10
6.29925
 20
31.4042
 30
0
 40
0.303822
  1
run
 50
0
  7
DejaVuSans
  0
TEXT
  8
0
 62
     0
 10
6.81015
 20
31.4042
 30
0
 40
0.303822
  1
s GNUK
 50
0
  7
DejaVuSans
  0
TEXT
  8
0
 62
     0
 10
4.42447
 20
30.2675
 30
0
 40
0.830817
  1
Modi
 50
0
  7
DejaVuSans-Bold
  0
TEXT
  8
0
 62
     0
 10
6.70386
 20
30.2675
 30
0
 40
0.830817
  1
rum
 50
0
  7
DejaVuSans-Bold
  0
TEXT
  8
0
 62
     0
 10
5.6426
 20
29.99
 30
0
 40
0.238718
  1
Secur
 50
0
  7
DejaVuSans
  0
TEXT
  8
0
 62
     0
 10
6.27937
 20
29.99
 30
0
 40
0.238718
  1
e
 50
0
  7
DejaVuSans
  0
TEXT
  8
0
 62
     0
 10
6.41215
 20
29.99
 30
0
 40
0.238718
  1
d by F
 50
0
  7
DejaVuSans
  0
TEXT
  8
0
 62
     0
 10
7.12868
 20
29.99
 30
0
 40
0.238718
  1
r
 50
0
  7
DejaVuSans
  0
TEXT
  8
0
 62
     0
 10
7.18171
 20
29.99
 30
0
 40
0.238718
  1
e
 50
0
  7
DejaVuSans
  0
TEXT
  8
0
 62
     0
 10
7.31425
 20
29.99
 30
0
 40
0.238718
  1
eB
 50
0
  7
DejaVuSans
  0
TEXT
  8
0
 62
     0
 10
7.62056
 20
29.99
 30
0
 40
0.238718
  1
SD
 50
0
  7
DejaVuSans
  0
TEXT
  8
0
 62
     0
 10
4.46488
 20
31.1618
 30
0
 40
0.217011
  1
F
 50
0
  7
DejaVuSans
  0
TEXT
  8
0
 62
     0
 10
4.57425
 20
31.1618
 30
0
 40
0.217011
  1
r
 50
0
  7
DejaVuSans
  0
TEXT
  8
0
 62
     0
 10
4.65781
 20
31.1618
 30
0
 40
0.217011
  1
e
 50
0
  7
DejaVuSans
  0
TEXT
  8
0
 62
     0
 10
4.77413
 20
31.1618
 30
0
 40
0.217011
  1
e Sof
 50
0
  7
DejaVuSans
  0
TEXT
  8
0
 62
     0
 10
5.31953
 20
31.1618
 30
0
 40
0.217011
  1
twar
 50
0
  7
DejaVuSans
  0
TEXT
  8
0
 62
     0
 10
5.69811
 20
31.1618
 30
0
 40
0.217011
  1
e
 50
0
  7
DejaVuSans
  0
TEXT
  8
0
 62
     0
 10
5.81465
 20
31.1618
 30
0
 40
0.217011
  1
 Initiative of Japan
 50
0
  7
DejaVuSans
  0
POLYLINE
  8
0
 62
     7
 66
     1
 10
0
 20
0
 30
0.0
 70
     1
 40
0
 41
0
  0
VERTEX
  8
0
 10
3.99756
 20
31.8722
 30
0.0
 40
0
 41
0
  0
VERTEX
  8
0
 10
3.99756
 20
31.8722
 30
0.0
 40
0
 41
0
  0
VERTEX
  8
0
 10
3.99735
 20
31.8722
 30
0.0
 40
0
 41
0
  0
VERTEX
  8
0
 10
3.99729
 20
31.8722
 30
0.0
 40
0
 41
0
  0
VERTEX
  8
0
 10
3.99718
 20
31.8722
 30
0.0
 40
0
 41
0
  0
VERTEX
  8
0
 10
3.99701
 20
31.8722
 30
0.0
 40
0
 41
0
  0
VERTEX
  8
0
 10
3.99701
 20
31.8722
 30
0.0
 40
0
 41
0
  0
VERTEX
  8
0
 10
3.99701
 20
31.8722
 30
0.0
 40
0
 41
0
  0
VERTEX
  8
0
 10
3.99718
 20
31.8724
 30
0.0
 40
0
 41
0
  0
VERTEX
  8
0
 10
3.99729
 20
31.8724
 30
0.0
 40
0
 41
0
  0
VERTEX
  8
0
 10
3.99735
 20
31.8724
 30
0.0
 40
0
 41
0
  0
VERTEX
  8
0
 10
3.99756
 20
31.8722
 30
0.0
 40
0
 41
0
  0
VERTEX
  8
0
 10
3.99756
 20
31.8722
 30
0.0
 40
0
 41
0
  0
SEQEND
 8
0
  0
POLYLINE
  8
0
 62
     0
 66
     1
 10
0
 20
0
 30
0.0
 70
     1
 40
0.156377
 41
0.156377
  0
VERTEX
  8
0
 10
3.99756
 20
31.8722
 30
0.0
 40
0.0021719
 41
0.0021719
  0
VERTEX
  8
0
 10
3.99756
 20
31.8722
 30
0.0
 40
0.0021719
 41
0.0021719
  0
VERTEX
  8
0
 10
3.99735
 20
31.8722
 30
0.0
 40
0.0021719
 41
0.0021719
  0
VERTEX
  8
0
 10
3.99729
 20
31.8722
 30
0.0
 40
0.0021719
 41
0.0021719
  0
VERTEX
  8
0
 10
3.99718
 20
31.8722
 30
0.0
 40
0.0021719
 41
0.0021719
  0
VERTEX
  8
0
 10
3.99701
 20
31.8722
 30
0.0
 40
0.0021719
 41
0.0021719
  0
VERTEX
  8
0
 10
3.99701
 20
31.8722
 30
0.0
 40
0.0021719
 41
0.0021719
  0
VERTEX
  8
0
 10
3.99701
 20
31.8722
 30
0.0
 40
0.0021719
 41
0.0021719
  0
VERTEX
  8
0
 10
3.99718
 20
31.8724
 30
0.0
 40
0.0021719
 41
0.0021719
  0
VERTEX
  8
0
 10
3.99729
 20
31.8724
 30
0.0
 40
0.0021719
 41
0.0021719
  0
VERTEX
  8
0
 10
3.99735
 20
31.8724
 30
0.0
 40
0.0021719
 41
0.0021719
  0
VERTEX
  8
0
 10
3.99756
 20
31.8722
 30
0.0
 40
0.0021719
 41
0.0021719
  0
VERTEX
  8
0
 10
3.99756
 20
31.8722
 30
0.0
 40
0.0021719
 41
0.0021719
  0
SEQEND
 8
0
  0
POLYLINE
  8
0
 62
     0
 66
     1
 10
0
 20
0
 30
0.0
 70
     1
 40
0.156156
 41
0.156156
  0
VERTEX
  8
0
 10
8.18056
 20
29.7435
 30
0.0
 40
0.00216883
 41
0.00216883
  0
VERTEX
  8
0
 10
8.18056
 20
29.7436
 30
0.0
 40
0.00216883
 41
0.00216883
  0
VERTEX
  8
0
 10
8.18093
 20
29.7439
 30
0.0
 40
0.00216883
 41
0.00216883
  0
VERTEX
  8
0
 10
8.1811
 20
29.7439
 30
0.0
 40
0.00216883
 41
0.00216883
  0
VERTEX
  8
0
 10
8.18121
 20
29.7439
 30
0.0
 40
0.00216883
 41
0.00216883
  0
VERTEX
  8
0
 10
8.18158
 20
29.7436
 30
0.0
 40
0.00216883
 41
0.00216883
  0
VERTEX
  8
0
 10
8.18158
 20
29.7435
 30
0.0
 40
0.00216883
 41
0.00216883
  0
VERTEX
  8
0
 10
8.18158
 20
29.7433
 30
0.0
 40
0.00216883
 41
0.00216883
  0
VERTEX
  8
0
 10
8.18121
 20
29.7429
 30
0.0
 40
0.00216883
 41
0.00216883
  0
VERTEX
  8
0
 10
8.1811
 20
29.7429
 30
0.0
 40
0.00216883
 41
0.00216883
  0
VERTEX
  8
0
 10
8.18093
 20
29.7429
 30
0.0
 40
0.00216883
 41
0.00216883
  0
VERTEX
  8
0
 10
8.18056
 20
29.7433
 30
0.0
 40
0.00216883
 41
0.00216883
  0
VERTEX
  8
0
 10
8.18056
 20
29.7435
 30
0.0
 40
0.00216883
 41
0.00216883
  0
SEQEND
 8
0
  0
POLYLINE
  8
0
 62
     7
 66
     1
 10
0
 20
0
 30
0.0
 70
     1
 40
0
 41
0
  0
VERTEX
  8
0
 10
4.24457
 20
29.1289
 30
0.0
 40
0
 41
0
  0
VERTEX
  8
0
 10
4.24457
 20
29.1289
 30
0.0
 40
0
 41
0
  0
VERTEX
  8
0
 10
4.24447
 20
29.1288
 30
0.0
 40
0
 41
0
  0
VERTEX
  8
0
 10
4.24447
 20
29.1288
 30
0.0
 40
0
 41
0
  0
VERTEX
  8
0
 10
4.24447
 20
29.1288
 30
0.0
 40
0
 41
0
  0
VERTEX
  8
0
 10
4.24442
 20
29.1289
 30
0.0
 40
0
 41
0
  0
VERTEX
  8
0
 10
4.24442
 20
29.1289
 30
0.0
 40
0
 41
0
  0
VERTEX
  8
0
 10
4.24442
 20
29.1289
 30
0.0
 40
0
 41
0
  0
VERTEX
  8
0
 10
4.24447
 20
29.129
 30
0.0
 40
0
 41
0
  0
VERTEX
  8
0
 10
4.24447
 20
29.129
 30
0.0
 40
0
 41
0
  0
VERTEX
  8
0
 10
4.24447
 20
29.129
 30
0.0
 40
0
 41
0
  0
VERTEX
  8
0
 10
4.24457
 20
29.1289
 30
0.0
 40
0
 41
0
  0
VERTEX
  8
0
 10
4.24457
 20
29.1289
 30
0.0
 40
0
 41
0
  0
SEQEND
 8
0
  0
POLYLINE
  8
0
 62
     0
 66
     1
 10
0
 20
0
 30
0.0
 70
     1
 40
0.1575
 41
0.1575
  0
VERTEX
  8
0
 10
4.24457
 20
29.1289
 30
0.0
 40
0.0021875
 41
0.0021875
  0
VERTEX
  8
0
 10
4.24457
 20
29.1289
 30
0.0
 40
0.0021875
 41
0.0021875
  0
VERTEX
  8
0
 10
4.24447
 20
29.1288
 30
0.0
 40
0.0021875
 41
0.0021875
  0
VERTEX
  8
0
 10
4.24447
 20
29.1288
 30
0.0
 40
0.0021875
 41
0.0021875
  0
VERTEX
  8
0
 10
4.24447
 20
29.1288
 30
0.0
 40
0.0021875
 41
0.0021875
  0
VERTEX
  8
0
 10
4.24442
 20
29.1289
 30
0.0
 40
0.0021875
 41
0.0021875
  0
VERTEX
  8
0
 10
4.24442
 20
29.1289
 30
0.0
 40
0.0021875
 41
0.0021875
  0
VERTEX
  8
0
 10
4.24442
 20
29.1289
 30
0.0
 40
0.0021875
 41
0.0021875
  0
VERTEX
  8
0
 10
4.24447
 20
29.129
 30
0.0
 40
0.0021875
 41
0.0021875
  0
VERTEX
  8
0
 10
4.24447
 20
29.129
 30
0.0
 40
0.0021875
 41
0.0021875
  0
VERTEX
  8
0
 10
4.24447
 20
29.129
 30
0.0
 40
0.0021875
 41
0.0021875
  0
VERTEX
  8
0
 10
4.24457
 20
29.1289
 30
0.0
 40
0.0021875
 41
0.0021875
  0
VERTEX
  8
0
 10
4.24457
 20
29.1289
 30
0.0
 40
0.0021875
 41
0.0021875
  0
SEQEND
 8
0
  0
POLYLINE
  8
0
 62
     7
 66
     1
 10
0
 20
0
 30
0.0
 70
     1
 40
0
 41
0
  0
VERTEX
  8
0
 10
9.04281
 20
29.1288
 30
0.0
 40
0
 41
0
  0
VERTEX
  8
0
 10
9.04281
 20
29.1288
 30
0.0
 40
0
 41
0
  0
VERTEX
  8
0
 10
9.04269
 20
29.1286
 30
0.0
 40
0
 41
0
  0
VERTEX
  8
0
 10
9.04269
 20
29.1286
 30
0.0
 40
0
 41
0
  0
VERTEX
  8
0
 10
9.04269
 20
29.1286
 30
0.0
 40
0
 41
0
  0
VERTEX
  8
0
 10
9.04258
 20
29.1288
 30
0.0
 40
0
 41
0
  0
VERTEX
  8
0
 10
9.04258
 20
29.1288
 30
0.0
 40
0
 41
0
  0
VERTEX
  8
0
 10
9.04258
 20
29.1288
 30
0.0
 40
0
 41
0
  0
VERTEX
  8
0
 10
9.04269
 20
29.1288
 30
0.0
 40
0
 41
0
  0
VERTEX
  8
0
 10
9.04269
 20
29.1288
 30
0.0
 40
0
 41
0
  0
VERTEX
  8
0
 10
9.04269
 20
29.1288
 30
0.0
 40
0
 41
0
  0
VERTEX
  8
0
 10
9.04281
 20
29.1288
 30
0.0
 40
0
 41
0
  0
VERTEX
  8
0
 10
9.04281
 20
29.1288
 30
0.0
 40
0
 41
0
  0
SEQEND
 8
0
  0
POLYLINE
  8
0
 62
     0
 66
     1
 10
0
 20
0
 30
0.0
 70
     1
 40
0.1575
 41
0.1575
  0
VERTEX
  8
0
 10
9.04281
 20
29.1288
 30
0.0
 40
0.0021875
 41
0.0021875
  0
VERTEX
  8
0
 10
9.04281
 20
29.1288
 30
0.0
 40
0.0021875
 41
0.0021875
  0
VERTEX
  8
0
 10
9.04269
 20
29.1286
 30
0.0
 40
0.0021875
 41
0.0021875
  0
VERTEX
  8
0
 10
9.04269
 20
29.1286
 30
0.0
 40
0.0021875
 41
0.0021875
  0
VERTEX
  8
0
 10
9.04269
 20
29.1286
 30
0.0
 40
0.0021875
 41
0.0021875
  0
VERTEX
  8
0
 10
9.04258
 20
29.1288
 30
0.0
 40
0.0021875
 41
0.0021875
  0
VERTEX
  8
0
 10
9.04258
 20
29.1288
 30
0.0
 40
0.0021875
 41
0.0021875
  0
VERTEX
  8
0
 10
9.04258
 20
29.1288
 30
0.0
 40
0.0021875
 41
0.0021875
  0
VERTEX
  8
0
 10
9.04269
 20
29.1288
 30
0.0
 40
0.0021875
 41
0.0021875
  0
VERTEX
  8
0
 10
9.04269
 20
29.1288
 30
0.0
 40
0.0021875
 41
0.0021875
  0
VERTEX
  8
0
 10
9.04269
 20
29.1288
 30
0.0
 40
0.0021875
 41
0.0021875
  0
VERTEX
  8
0
 10
9.04281
 20
29.1288
 30
0.0
 40
0.0021875
 41
0.0021875
  0
VERTEX
  8
0
 10
9.04281
 20
29.1288
 30
0.0
 40
0.0021875
 41
0.0021875
  0
SEQEND
 8
0
  0
POLYLINE
  8
0
 62
     7
 66
     1
 10
0
 20
0
 30
0.0
 70
     1
 40
0
 41
0
  0
VERTEX
  8
0
 10
4.24457
 20
29.1288
 30
0.0
 40
0
 41
0
  0
VERTEX
  8
0
 10
4.24457
 20
29.1288
 30
0.0
 40
0
 41
0
  0
VERTEX
  8
0
 10
4.24447
 20
29.1286
 30
0.0
 40
0
 41
0
  0
VERTEX
  8
0
 10
4.24447
 20
29.1286
 30
0.0
 40
0
 41
0
  0
VERTEX
  8
0
 10
4.24447
 20
29.1286
 30
0.0
 40
0
 41
0
  0
VERTEX
  8
0
 10
4.24442
 20
29.1288
 30
0.0
 40
0
 41
0
  0
VERTEX
  8
0
 10
4.24442
 20
29.1288
 30
0.0
 40
0
 41
0
  0
VERTEX
  8
0
 10
4.24442
 20
29.1288
 30
0.0
 40
0
 41
0
  0
VERTEX
  8
0
 10
4.24447
 20
29.1288
 30
0.0
 40
0
 41
0
  0
VERTEX
  8
0
 10
4.24447
 20
29.1288
 30
0.0
 40
0
 41
0
  0
VERTEX
  8
0
 10
4.24447
 20
29.1288
 30
0.0
 40
0
 41
0
  0
VERTEX
  8
0
 10
4.24457
 20
29.1288
 30
0.0
 40
0
 41
0
  0
VERTEX
  8
0
 10
4.24457
 20
29.1288
 30
0.0
 40
0
 41
0
  0
SEQEND
 8
0
  0
POLYLINE
  8
0
 62
     0
 66
     1
 10
0
 20
0
 30
0.0
 70
     1
 40
0.1575
 41
0.1575
  0
VERTEX
  8
0
 10
4.24457
 20
29.1288
 30
0.0
 40
0.0021875
 41
0.0021875
  0
VERTEX
  8
0
 10
4.24457
 20
29.1288
 30
0.0
 40
0.0021875
 41
0.0021875
  0
VERTEX
  8
0
 10
4.24447
 20
29.1286
 30
0.0
 40
0.0021875
 41
0.0021875
  0
VERTEX
  8
0
 10
4.24447
 20
29.1286
 30
0.0
 40
0.0021875
 41
0.0021875
  0
VERTEX
  8
0
 10
4.24447
 20
29.1286
 30
0.0
 40
0.0021875
 41
0.0021875
  0
VERTEX
  8
0
 10
4.24442
 20
29.1288
 30
0.0
 40
0.0021875
 41
0.0021875
  0
VERTEX
  8
0
 10
4.24442
 20
29.1288
 30
0.0
 40
0.0021875
 41
0.0021875
  0
VERTEX
  8
0
 10
4.24442
 20
29.1288
 30
0.0
 40
0.0021875
 41
0.0021875
  0
VERTEX
  8
0
 10
4.24447
 20
29.1288
 30
0.0
 40
0.0021875
 41
0.0021875
  0
VERTEX
  8
0
 10
4.24447
 20
29.1288
 30
0.0
 40
0.0021875
 41
0.0021875
  0
VERTEX
  8
0
 10
4.24447
 20
29.1288
 30
0.0
 40
0.0021875
 41
0.0021875
  0
VERTEX
  8
0
 10
4.24457
 20
29.1288
 30
0.0
 40
0.0021875
 41
0.0021875
  0
VERTEX
  8
0
 10
4.24457
 20
29.1288
 30
0.0
 40
0.0021875
 41
0.0021875
  0
SEQEND
 8
0
  0
POLYLINE
  8
0
 62
     7
 66
     1
 10
0
 20
0
 30
0.0
 70
     1
 40
0
 41
0
  0
VERTEX
  8
0
 10
4.24457
 20
29.1288
 30
0.0
 40
0
 41
0
  0
VERTEX
  8
0
 10
4.24457
 20
29.1288
 30
0.0
 40
0
 41
0
  0
VERTEX
  8
0
 10
4.24447
 20
29.1286
 30
0.0
 40
0
 41
0
  0
VERTEX
  8
0
 10
4.24447
 20
29.1286
 30
0.0
 40
0
 41
0
  0
VERTEX
  8
0
 10
4.24447
 20
29.1286
 30
0.0
 40
0
 41
0
  0
VERTEX
  8
0
 10
4.24442
 20
29.1288
 30
0.0
 40
0
 41
0
  0
VERTEX
  8
0
 10
4.24442
 20
29.1288
 30
0.0
 40
0
 41
0
  0
VERTEX
  8
0
 10
4.24442
 20
29.1288
 30
0.0
 40
0
 41
0
  0
VERTEX
  8
0
 10
4.24447
 20
29.1288
 30
0.0
 40
0
 41
0
  0
VERTEX
  8
0
 10
4.24447
 20
29.1288
 30
0.0
 40
0
 41
0
  0
VERTEX
  8
0
 10
4.24447
 20
29.1288
 30
0.0
 40
0
 41
0
  0
VERTEX
  8
0
 10
4.24457
 20
29.1288
 30
0.0
 40
0
 41
0
  0
VERTEX
  8
0
 10
4.24457
 20
29.1288
 30
0.0
 40
0
 41
0
  0
SEQEND
 8
0
  0
POLYLINE
  8
0
 62
     0
 66
     1
 10
0
 20
0
 30
0.0
 70
     1
 40
0.1575
 41
0.1575
  0
VERTEX
  8
0
 10
4.24457
 20
29.1288
 30
0.0
 40
0.0021875
 41
0.0021875
  0
VERTEX
  8
0
 10
4.24457
 20
29.1288
 30
0.0
 40
0.0021875
 41
0.0021875
  0
VERTEX
  8
0
 10
4.24447
 20
29.1286
 30
0.0
 40
0.0021875
 41
0.0021875
  0
VERTEX
  8
0
 10
4.24447
 20
29.1286
 30
0.0
 40
0.0021875
 41
0.0021875
  0
VERTEX
  8
0
 10
4.24447
 20
29.1286
 30
0.0
 40
0.0021875
 41
0.0021875
  0
VERTEX
  8
0
 10
4.24442
 20
29.1288
 30
0.0
 40
0.0021875
 41
0.0021875
  0
VERTEX
  8
0
 10
4.24442
 20
29.1288
 30
0.0
 40
0.0021875
 41
0.0021875
  0
VERTEX
  8
0
 10
4.24442
 20
29.1288
 30
0.0
 40
0.0021875
 41
0.0021875
  0
VERTEX
  8
0
 10
4.24447
 20
29.1288
 30
0.0
 40
0.0021875
 41
0.0021875
  0
VERTEX
  8
0
 10
4.24447
 20
29.1288
 30
0.0
 40
0.0021875
 41
0.0021875
  0
VERTEX
  8
0
 10
4.24447
 20
29.1288
 30
0.0
 40
0.0021875
 41
0.0021875
  0
VERTEX
  8
0
 10
4.24457
 20
29.1288
 30
0.0
 40
0.0021875
 41
0.0021875
  0
VERTEX
  8
0
 10
4.24457
 20
29.1288
 30
0.0
 40
0.0021875
 41
0.0021875
  0
SEQEND
 8
0
  0
POLYLINE
  8
0
 62
     7
 66
     1
 10
0
 20
0
 30
0.0
 70
     1
 40
0
 41
0
  0
VERTEX
  8
0
 10
9.04281
 20
31.8722
 30
0.0
 40
0
 41
0
  0
VERTEX
  8
0
 10
9.04281
 20
31.8722
 30
0.0
 40
0
 41
0
  0
VERTEX
  8
0
 10
9.04269
 20
31.8722
 30
0.0
 40
0
 41
0
  0
VERTEX
  8
0
 10
9.04269
 20
31.8722
 30
0.0
 40
0
 41
0
  0
VERTEX
  8
0
 10
9.04269
 20
31.8722
 30
0.0
 40
0
 41
0
  0
VERTEX
  8
0
 10
9.04258
 20
31.8722
 30
0.0
 40
0
 41
0
  0
VERTEX
  8
0
 10
9.04258
 20
31.8722
 30
0.0
 40
0
 41
0
  0
VERTEX
  8
0
 10
9.04258
 20
31.8722
 30
0.0
 40
0
 41
0
  0
VERTEX
  8
0
 10
9.04269
 20
31.8724
 30
0.0
 40
0
 41
0
  0
VERTEX
  8
0
 10
9.04269
 20
31.8724
 30
0.0
 40
0
 41
0
  0
VERTEX
  8
0
 10
9.04269
 20
31.8724
 30
0.0
 40
0
 41
0
  0
VERTEX
  8
0
 10
9.04281
 20
31.8722
 30
0.0
 40
0
 41
0
  0
VERTEX
  8
0
 10
9.04281
 20
31.8722
 30
0.0
 40
0
 41
0
  0
SEQEND
 8
0
  0
POLYLINE
  8
0
 62
     0
 66
     1
 10
0
 20
0
 30
0.0
 70
     1
 40
0.1575
 41
0.1575
  0
VERTEX
  8
0
 10
9.04281
 20
31.8722
 30
0.0
 40
0.0021875
 41
0.0021875
  0
VERTEX
  8
0
 10
9.04281
 20
31.8722
 30
0.0
 40
0.0021875
 41
0.0021875
  0
VERTEX
  8
0
 10
9.04269
 20
31.8722
 30
0.0
 40
0.0021875
 41
0.0021875
  0
VERTEX
  8
0
 10
9.04269
 20
31.8722
 30
0.0
 40
0.0021875
 41
0.0021875
  0
VERTEX
  8
0
 10
9.04269
 20
31.8722
 30
0.0
 40
0.0021875
 41
0.0021875
  0
VERTEX
  8
0
 10
9.04258
 20
31.8722
 30
0.0
 40
0.0021875
 41
0.0021875
  0
VERTEX
  8
0
 10
9.04258
 20
31.8722
 30
0.0
 40
0.0021875
 41
0.0021875
  0
VERTEX
  8
0
 10
9.04258
 20
31.8722
 30
0.0
 40
0.0021875
 41
0.0021875
  0
VERTEX
  8
0
 10
9.04269
 20
31.8724
 30
0.0
 40
0.0021875
 41
0.0021875
  0
VERTEX
  8
0
 10
9.04269
 20
31.8724
 30
0.0
 40
0.0021875
 41
0.0021875
  0
VERTEX
  8
0
 10
9.04269
 20
31.8724
 30
0.0
 40
0.0021875
 41
0.0021875
  0
VERTEX
  8
0
 10
9.04281
 20
31.8722
 30
0.0
 40
0.0021875
 41
0.0021875
  0
VERTEX
  8
0
 10
9.04281
 20
31.8722
 30
0.0
 40
0.0021875
 41
0.0021875
  0
SEQEND
 8
0
  0
POLYLINE
  8
0
 62
     7
 66
     1
 10
0
 20
0
 30
0.0
 70
     1
 40
0
 41
0
  0
VERTEX
  8
0
 10
9.04281
 20
31.8722
 30
0.0
 40
0
 41
0
  0
VERTEX
  8
0
 10
9.04281
 20
31.8722
 30
0.0
 40
0
 41
0
  0
VERTEX
  8
0
 10
9.04269
 20
31.8722
 30
0.0
 40
0
 41
0
  0
VERTEX
  8
0
 10
9.04269
 20
31.8722
 30
0.0
 40
0
 41
0
  0
VERTEX
  8
0
 10
9.04269
 20
31.8722
 30
0.0
 40
0
 41
0
  0
VERTEX
  8
0
 10
9.04258
 20
31.8722
 30
0.0
 40
0
 41
0
  0
VERTEX
  8
0
 10
9.04258
 20
31.8722
 30
0.0
 40
0
 41
0
  0
VERTEX
  8
0
 10
9.04258
 20
31.8722
 30
0.0
 40
0
 41
0
  0
VERTEX
  8
0
 10
9.04269
 20
31.8724
 30
0.0
 40
0
 41
0
  0
VERTEX
  8
0
 10
9.04269
 20
31.8724
 30
0.0
 40
0
 41
0
  0
VERTEX
  8
0
 10
9.04269
 20
31.8724
 30
0.0
 40
0
 41
0
  0
VERTEX
  8
0
 10
9.04281
 20
31.8722
 30
0.0
 40
0
 41
0
  0
VERTEX
  8
0
 10
9.04281
 20
31.8722
 30
0.0
 40
0
 41
0
  0
SEQEND
 8
0
  0
POLYLINE
  8
0
 62
     0
 66
     1
 10
0
 20
0
 30
0.0
 70
     1
 40
0.1575
 41
0.1575
  0
VERTEX
  8
0
 10
9.04281
 20
31.8722
 30
0.0
 40
0.0021875
 41
0.0021875
  0
VERTEX
  8
0
 10
9.04281
 20
31.8722
 30
0.0
 40
0.0021875
 41
0.0021875
  0
VERTEX
  8
0
 10
9.04269
 20
31.8722
 30
0.0
 40
0.0021875
 41
0.0021875
  0
VERTEX
  8
0
 10
9.04269
 20
31.8722
 30
0.0
 40
0.0021875
 41
0.0021875
  0
VERTEX
  8
0
 10
9.04269
 20
31.8722
 30
0.0
 40
0.0021875
 41
0.0021875
  0
VERTEX
  8
0
 10
9.04258
 20
31.8722
 30
0.0
 40
0.0021875
 41
0.0021875
  0
VERTEX
  8
0
 10
9.04258
 20
31.8722
 30
0.0
 40
0.0021875
 41
0.0021875
  0
VERTEX
  8
0
 10
9.04258
 20
31.8722
 30
0.0
 40
0.0021875
 41
0.0021875
  0
VERTEX
  8
0
 10
9.04269
 20
31.8724
 30
0.0
 40
0.0021875
 41
0.0021875
  0
VERTEX
  8
0
 10
9.04269
 20
31.8724
 30
0.0
 40
0.0021875
 41
0.0021875
  0
VERTEX
  8
0
 10
9.04269
 20
31.8724
 30
0.0
 40
0.0021875
 41
0.0021875
  0
VERTEX
  8
0
 10
9.04281
 20
31.8722
 30
0.0
 40
0.0021875
 41
0.0021875
  0
VERTEX
  8
0
 10
9.04281
 20
31.8722
 30
0.0
 40
0.0021875
 41
0.0021875
  0
SEQEND
 8
0
  0
POLYLINE
  8
0
 62
     7
 66
     1
 10
0
 20
0
 30
0.0
 70
     1
 40
0
 41
0
  0
VERTEX
  8
0
 10
9.04303
 20
29.1288
 30
0.0
 40
0
 41
0
  0
VERTEX
  8
0
 10
9.04303
 20
29.1288
 30
0.0
 40
0
 41
0
  0
VERTEX
  8
0
 10
9.04292
 20
29.1286
 30
0.0
 40
0
 41
0
  0
VERTEX
  8
0
 10
9.04292
 20
29.1286
 30
0.0
 40
0
 41
0
  0
VERTEX
  8
0
 10
9.04292
 20
29.1286
 30
0.0
 40
0
 41
0
  0
VERTEX
  8
0
 10
9.04281
 20
29.1288
 30
0.0
 40
0
 41
0
  0
VERTEX
  8
0
 10
9.04281
 20
29.1288
 30
0.0
 40
0
 41
0
  0
VERTEX
  8
0
 10
9.04281
 20
29.1288
 30
0.0
 40
0
 41
0
  0
VERTEX
  8
0
 10
9.04292
 20
29.1288
 30
0.0
 40
0
 41
0
  0
VERTEX
  8
0
 10
9.04292
 20
29.1288
 30
0.0
 40
0
 41
0
  0
VERTEX
  8
0
 10
9.04292
 20
29.1288
 30
0.0
 40
0
 41
0
  0
VERTEX
  8
0
 10
9.04303
 20
29.1288
 30
0.0
 40
0
 41
0
  0
VERTEX
  8
0
 10
9.04303
 20
29.1288
 30
0.0
 40
0
 41
0
  0
SEQEND
 8
0
  0
POLYLINE
  8
0
 62
     0
 66
     1
 10
0
 20
0
 30
0.0
 70
     1
 40
0.1575
 41
0.1575
  0
VERTEX
  8
0
 10
9.04303
 20
29.1288
 30
0.0
 40
0.0021875
 41
0.0021875
  0
VERTEX
  8
0
 10
9.04303
 20
29.1288
 30
0.0
 40
0.0021875
 41
0.0021875
  0
VERTEX
  8
0
 10
9.04292
 20
29.1286
 30
0.0
 40
0.0021875
 41
0.0021875
  0
VERTEX
  8
0
 10
9.04292
 20
29.1286
 30
0.0
 40
0.0021875
 41
0.0021875
  0
VERTEX
  8
0
 10
9.04292
 20
29.1286
 30
0.0
 40
0.0021875
 41
0.0021875
  0
VERTEX
  8
0
 10
9.04281
 20
29.1288
 30
0.0
 40
0.0021875
 41
0.0021875
  0
VERTEX
  8
0
 10
9.04281
 20
29.1288
 30
0.0
 40
0.0021875
 41
0.0021875
  0
VERTEX
  8
0
 10
9.04281
 20
29.1288
 30
0.0
 40
0.0021875
 41
0.0021875
  0
VERTEX
  8
0
 10
9.04292
 20
29.1288
 30
0.0
 40
0.0021875
 41
0.0021875
  0
VERTEX
  8
0
 10
9.04292
 20
29.1288
 30
0.0
 40
0.0021875
 41
0.0021875
  0
VERTEX
  8
0
 10
9.04292
 20
29.1288
 30
0.0
 40
0.0021875
 41
0.0021875
  0
VERTEX
  8
0
 10
9.04303
 20
29.1288
 30
0.0
 40
0.0021875
 41
0.0021875
  0
VERTEX
  8
0
 10
9.04303
 20
29.1288
 30
0.0
 40
0.0021875
 41
0.0021875
  0
SEQEND
 8
0
  0
POLYLINE
  8
0
 62
     7
 66
     1
 10
0
 20
0
 30
0.0
 70
     1
 40
0
 41
0
  0
VERTEX
  8
0
 10
9.04303
 20
29.1288
 30
0.0
 40
0
 41
0
  0
VERTEX
  8
0
 10
9.04303
 20
29.1288
 30
0.0
 40
0
 41
0
  0
VERTEX
  8
0
 10
9.04292
 20
29.1286
 30
0.0
 40
0
 41
0
  0
VERTEX
  8
0
 10
9.04292
 20
29.1286
 30
0.0
 40
0
 41
0
  0
VERTEX
  8
0
 10
9.04292
 20
29.1286
 30
0.0
 40
0
 41
0
  0
VERTEX
  8
0
 10
9.04281
 20
29.1288
 30
0.0
 40
0
 41
0
  0
VERTEX
  8
0
 10
9.04281
 20
29.1288
 30
0.0
 40
0
 41
0
  0
VERTEX
  8
0
 10
9.04281
 20
29.1288
 30
0.0
 40
0
 41
0
  0
VERTEX
  8
0
 10
9.04292
 20
29.1288
 30
0.0
 40
0
 41
0
  0
VERTEX
  8
0
 10
9.04292
 20
29.1288
 30
0.0
 40
0
 41
0
  0
VERTEX
  8
0
 10
9.04292
 20
29.1288
 30
0.0
 40
0
 41
0
  0
VERTEX
  8
0
 10
9.04303
 20
29.1288
 30
0.0
 40
0
 41
0
  0
VERTEX
  8
0
 10
9.04303
 20
29.1288
 30
0.0
 40
0
 41
0
  0
SEQEND
 8
0
  0
POLYLINE
  8
0
 62
     0
 66
     1
 10
0
 20
0
 30
0.0
 70
     1
 40
0.1575
 41
0.1575
  0
VERTEX
  8
0
 10
9.04303
 20
29.1288
 30
0.0
 40
0.0021875
 41
0.0021875
  0
VERTEX
  8
0
 10
9.04303
 20
29.1288
 30
0.0
 40
0.0021875
 41
0.0021875
  0
VERTEX
  8
0
 10
9.04292
 20
29.1286
 30
0.0
 40
0.0021875
 41
0.0021875
  0
VERTEX
  8
0
 10
9.04292
 20
29.1286
 30
0.0
 40
0.0021875
 41
0.0021875
  0
VERTEX
  8
0
 10
9.04292
 20
29.1286
 30
0.0
 40
0.0021875
 41
0.0021875
  0
VERTEX
  8
0
 10
9.04281
 20
29.1288
 30
0.0
 40
0.0021875
 41
0.0021875
  0
VERTEX
  8
0
 10
9.04281
 20
29.1288
 30
0.0
 40
0.0021875
 41
0.0021875
  0
VERTEX
  8
0
 10
9.04281
 20
29.1288
 30
0.0
 40
0.0021875
 41
0.0021875
  0
VERTEX
  8
0
 10
9.04292
 20
29.1288
 30
0.0
 40
0.0021875
 41
0.0021875
  0
VERTEX
  8
0
 10
9.04292
 20
29.1288
 30
0.0
 40
0.0021875
 41
0.0021875
  0
VERTEX
  8
0
 10
9.04292
 20
29.1288
 30
0.0
 40
0.0021875
 41
0.0021875
  0
VERTEX
  8
0
 10
9.04303
 20
29.1288
 30
0.0
 40
0.0021875
 41
0.0021875
  0
VERTEX
  8
0
 10
9.04303
 20
29.1288
 30
0.0
 40
0.0021875
 41
0.0021875
  0
SEQEND
 8
0
  0
POLYLINE
  8
0
 62
     7
 66
     1
 10
0
 20
0
 30
0.0
 70
     1
 40
0
 41
0
  0
VERTEX
  8
0
 10
9.04432
 20
31.8722
 30
0.0
 40
0
 41
0
  0
VERTEX
  8
0
 10
9.04432
 20
31.8722
 30
0.0
 40
0
 41
0
  0
VERTEX
  8
0
 10
9.04422
 20
31.8722
 30
0.0
 40
0
 41
0
  0
VERTEX
  8
0
 10
9.04422
 20
31.8722
 30
0.0
 40
0
 41
0
  0
VERTEX
  8
0
 10
9.04422
 20
31.8722
 30
0.0
 40
0
 41
0
  0
VERTEX
  8
0
 10
9.04417
 20
31.8722
 30
0.0
 40
0
 41
0
  0
VERTEX
  8
0
 10
9.04417
 20
31.8722
 30
0.0
 40
0
 41
0
  0
VERTEX
  8
0
 10
9.04417
 20
31.8722
 30
0.0
 40
0
 41
0
  0
VERTEX
  8
0
 10
9.04422
 20
31.8724
 30
0.0
 40
0
 41
0
  0
VERTEX
  8
0
 10
9.04422
 20
31.8724
 30
0.0
 40
0
 41
0
  0
VERTEX
  8
0
 10
9.04422
 20
31.8724
 30
0.0
 40
0
 41
0
  0
VERTEX
  8
0
 10
9.04432
 20
31.8722
 30
0.0
 40
0
 41
0
  0
VERTEX
  8
0
 10
9.04432
 20
31.8722
 30
0.0
 40
0
 41
0
  0
SEQEND
 8
0
  0
POLYLINE
  8
0
 62
     0
 66
     1
 10
0
 20
0
 30
0.0
 70
     1
 40
0.1575
 41
0.1575
  0
VERTEX
  8
0
 10
9.04432
 20
31.8722
 30
0.0
 40
0.0021875
 41
0.0021875
  0
VERTEX
  8
0
 10
9.04432
 20
31.8722
 30
0.0
 40
0.0021875
 41
0.0021875
  0
VERTEX
  8
0
 10
9.04422
 20
31.8722
 30
0.0
 40
0.0021875
 41
0.0021875
  0
VERTEX
  8
0
 10
9.04422
 20
31.8722
 30
0.0
 40
0.0021875
 41
0.0021875
  0
VERTEX
  8
0
 10
9.04422
 20
31.8722
 30
0.0
 40
0.0021875
 41
0.0021875
  0
VERTEX
  8
0
 10
9.04417
 20
31.8722
 30
0.0
 40
0.0021875
 41
0.0021875
  0
VERTEX
  8
0
 10
9.04417
 20
31.8722
 30
0.0
 40
0.0021875
 41
0.0021875
  0
VERTEX
  8
0
 10
9.04417
 20
31.8722
 30
0.0
 40
0.0021875
 41
0.0021875
  0
VERTEX
  8
0
 10
9.04422
 20
31.8724
 30
0.0
 40
0.0021875
 41
0.0021875
  0
VERTEX
  8
0
 10
9.04422
 20
31.8724
 30
0.0
 40
0.0021875
 41
0.0021875
  0
VERTEX
  8
0
 10
9.04422
 20
31.8724
 30
0.0
 40
0.0021875
 41
0.0021875
  0
VERTEX
  8
0
 10
9.04432
 20
31.8722
 30
0.0
 40
0.0021875
 41
0.0021875
  0
VERTEX
  8
0
 10
9.04432
 20
31.8722
 30
0.0
 40
0.0021875
 41
0.0021875
  0
SEQEND
 8
0
  0
POLYLINE
  8
0
 62
     7
 66
     1
 10
0
 20
0
 30
0.0
 70
     1
 40
0
 41
0
  0
VERTEX
  8
0
 10
9.04432
 20
31.8722
 30
0.0
 40
0
 41
0
  0
VERTEX
  8
0
 10
9.04432
 20
31.8722
 30
0.0
 40
0
 41
0
  0
VERTEX
  8
0
 10
9.04422
 20
31.8722
 30
0.0
 40
0
 41
0
  0
VERTEX
  8
0
 10
9.04422
 20
31.8722
 30
0.0
 40
0
 41
0
  0
VERTEX
  8
0
 10
9.04422
 20
31.8722
 30
0.0
 40
0
 41
0
  0
VERTEX
  8
0
 10
9.04417
 20
31.8722
 30
0.0
 40
0
 41
0
  0
VERTEX
  8
0
 10
9.04417
 20
31.8722
 30
0.0
 40
0
 41
0
  0
VERTEX
  8
0
 10
9.04417
 20
31.8722
 30
0.0
 40
0
 41
0
  0
VERTEX
  8
0
 10
9.04422
 20
31.8724
 30
0.0
 40
0
 41
0
  0
VERTEX
  8
0
 10
9.04422
 20
31.8724
 30
0.0
 40
0
 41
0
  0
VERTEX
  8
0
 10
9.04422
 20
31.8724
 30
0.0
 40
0
 41
0
  0
VERTEX
  8
0
 10
9.04432
 20
31.8722
 30
0.0
 40
0
 41
0
  0
VERTEX
  8
0
 10
9.04432
 20
31.8722
 30
0.0
 40
0
 41
0
  0
SEQEND
 8
0
  0
POLYLINE
  8
0
 62
     0
 66
     1
 10
0
 20
0
 30
0.0
 70
     1
 40
0.1575
 41
0.1575
  0
VERTEX
  8
0
 10
9.04432
 20
31.8722
 30
0.0
 40
0.0021875
 41
0.0021875
  0
VERTEX
  8
0
 10
9.04432
 20
31.8722
 30
0.0
 40
0.0021875
 41
0.0021875
  0
VERTEX
  8
0
 10
9.04422
 20
31.8722
 30
0.0
 40
0.0021875
 41
0.0021875
  0
VERTEX
  8
0
 10
9.04422
 20
31.8722
 30
0.0
 40
0.0021875
 41
0.0021875
  0
VERTEX
  8
0
 10
9.04422
 20
31.8722
 30
0.0
 40
0.0021875
 41
0.0021875
  0
VERTEX
  8
0
 10
9.04417
 20
31.8722
 30
0.0
 40
0.0021875
 41
0.0021875
  0
VERTEX
  8
0
 10
9.04417
 20
31.8722
 30
0.0
 40
0.0021875
 41
0.0021875
  0
VERTEX
  8
0
 10
9.04417
 20
31.8722
 30
0.0
 40
0.0021875
 41
0.0021875
  0
VERTEX
  8
0
 10
9.04422
 20
31.8724
 30
0.0
 40
0.0021875
 41
0.0021875
  0
VERTEX
  8
0
 10
9.04422
 20
31.8724
 30
0.0
 40
0.0021875
 41
0.0021875
  0
VERTEX
  8
0
 10
9.04422
 20
31.8724
 30
0.0
 40
0.0021875
 41
0.0021875
  0
VERTEX
  8
0
 10
9.04432
 20
31.8722
 30
0.0
 40
0.0021875
 41
0.0021875
  0
VERTEX
  8
0
 10
9.04432
 20
31.8722
 30
0.0
 40
0.0021875
 41
0.0021875
  0
SEQEND
 8
0
  0
TEXT
  8
0
 62
     0
 10
9.28646
 20
31.4042
 30
0
 40
0.303822
  1
This device 
 50
0
  7
DejaVuSans
  0
TEXT
  8
0
 62
     0
 10
11.099
 20
31.4042
 30
0
 40
0.303822
  1
run
 50
0
  7
DejaVuSans
  0
TEXT
  8
0
 62
     0
 10
11.6099
 20
31.4042
 30
0
 40
0.303822
  1
s GNUK
 50
0
  7
DejaVuSans
  0
TEXT
  8
0
 62
     0
 10
9.22421
 20
30.2675
 30
0
 40
0.830817
  1
Modi
 50
0
  7
DejaVuSans-Bold
  0
TEXT
  8
0
 62
     0
 10
11.5036
 20
30.2675
 30
0
 40
0.830817
  1
rum
 50
0
  7
DejaVuSans-Bold
  0
TEXT
  8
0
 62
     0
 10
10.4423
 20
29.99
 30
0
 40
0.238718
  1
Secur
 50
0
  7
DejaVuSans
  0
TEXT
  8
0
 62
     0
 10
11.0791
 20
29.99
 30
0
 40
0.238718
  1
e
 50
0
  7
DejaVuSans
  0
TEXT
  8
0
 62
     0
 10
11.2119
 20
29.99
 30
0
 40
0.238718
  1
d by F
 50
0
  7
DejaVuSans
  0
TEXT
  8
0
 62
     0
 10
11.9284
 20
29.99
 30
0
 40
0.238718
  1
r
 50
0
  7
DejaVuSans
  0
TEXT
  8
0
 62
     0
 10
11.9815
 20
29.99
 30
0
 40
0.238718
  1
e
 50
0
  7
DejaVuSans
  0
TEXT
  8
0
 62
     0
 10
12.114
 20
29.99
 30
0
 40
0.238718
  1
eB
 50
0
  7
DejaVuSans
  0
TEXT
  8
0
 62
     0
 10
12.4203
 20
29.99
 30
0
 40
0.238718
  1
SD
 50
0
  7
DejaVuSans
  0
TEXT
  8
0
 62
     0
 10
9.26462
 20
31.1618
 30
0
 40
0.217011
  1
F
 50
0
  7
DejaVuSans
  0
TEXT
  8
0
 62
     0
 10
9.374
 20
31.1618
 30
0
 40
0.217011
  1
r
 50
0
  7
DejaVuSans
  0
TEXT
  8
0
 62
     0
 10
9.45756
 20
31.1618
 30
0
 40
0.217011
  1
e
 50
0
  7
DejaVuSans
  0
TEXT
  8
0
 62
     0
 10
9.57387
 20
31.1618
 30
0
 40
0.217011
  1
e Sof
 50
0
  7
DejaVuSans
  0
TEXT
  8
0
 62
     0
 10
10.1193
 20
31.1618
 30
0
 40
0.217011
  1
twar
 50
0
  7
DejaVuSans
  0
TEXT
  8
0
 62
     0
 10
10.4979
 20
31.1618
 30
0
 40
0.217011
  1
e
 50
0
  7
DejaVuSans
  0
TEXT
  8
0
 62
     0
 10
10.6144
 20
31.1618
 30
0
 40
0.217011
  1
 Initiative of Japan
 50
0
  7
DejaVuSans
  0
POLYLINE
  8
0
 62
     7
 66
     1
 10
0
 20
0
 30
0.0
 70
     1
 40
0
 41
0
  0
VERTEX
  8
0
 10
8.79731
 20
31.8722
 30
0.0
 40
0
 41
0
  0
VERTEX
  8
0
 10
8.79731
 20
31.8722
 30
0.0
 40
0
 41
0
  0
VERTEX
  8
0
 10
8.7971
 20
31.8722
 30
0.0
 40
0
 41
0
  0
VERTEX
  8
0
 10
8.79704
 20
31.8722
 30
0.0
 40
0
 41
0
  0
VERTEX
  8
0
 10
8.79693
 20
31.8722
 30
0.0
 40
0
 41
0
  0
VERTEX
  8
0
 10
8.79676
 20
31.8722
 30
0.0
 40
0
 41
0
  0
VERTEX
  8
0
 10
8.79676
 20
31.8722
 30
0.0
 40
0
 41
0
  0
VERTEX
  8
0
 10
8.79676
 20
31.8722
 30
0.0
 40
0
 41
0
  0
VERTEX
  8
0
 10
8.79693
 20
31.8724
 30
0.0
 40
0
 41
0
  0
VERTEX
  8
0
 10
8.79704
 20
31.8724
 30
0.0
 40
0
 41
0
  0
VERTEX
  8
0
 10
8.7971
 20
31.8724
 30
0.0
 40
0
 41
0
  0
VERTEX
  8
0
 10
8.79731
 20
31.8722
 30
0.0
 40
0
 41
0
  0
VERTEX
  8
0
 10
8.79731
 20
31.8722
 30
0.0
 40
0
 41
0
  0
SEQEND
 8
0
  0
POLYLINE
  8
0
 62
     0
 66
     1
 10
0
 20
0
 30
0.0
 70
     1
 40
0.156377
 41
0.156377
  0
VERTEX
  8
0
 10
8.79731
 20
31.8722
 30
0.0
 40
0.0021719
 41
0.0021719
  0
VERTEX
  8
0
 10
8.79731
 20
31.8722
 30
0.0
 40
0.0021719
 41
0.0021719
  0
VERTEX
  8
0
 10
8.7971
 20
31.8722
 30
0.0
 40
0.0021719
 41
0.0021719
  0
VERTEX
  8
0
 10
8.79704
 20
31.8722
 30
0.0
 40
0.0021719
 41
0.0021719
  0
VERTEX
  8
0
 10
8.79693
 20
31.8722
 30
0.0
 40
0.0021719
 41
0.0021719
  0
VERTEX
  8
0
 10
8.79676
 20
31.8722
 30
0.0
 40
0.0021719
 41
0.0021719
  0
VERTEX
  8
0
 10
8.79676
 20
31.8722
 30
0.0
 40
0.0021719
 41
0.0021719
  0
VERTEX
  8
0
 10
8.79676
 20
31.8722
 30
0.0
 40
0.0021719
 41
0.0021719
  0
VERTEX
  8
0
 10
8.79693
 20
31.8724
 30
0.0
 40
0.0021719
 41
0.0021719
  0
VERTEX
  8
0
 10
8.79704
 20
31.8724
 30
0.0
 40
0.0021719
 41
0.0021719
  0
VERTEX
  8
0
 10
8.7971
 20
31.8724
 30
0.0
 40
0.0021719
 41
0.0021719
  0
VERTEX
  8
0
 10
8.79731
 20
31.8722
 30
0.0
 40
0.0021719
 41
0.0021719
  0
VERTEX
  8
0
 10
8.79731
 20
31.8722
 30
0.0
 40
0.0021719
 41
0.0021719
  0
SEQEND
 8
0
  0
POLYLINE
  8
0
 62
     0
 66
     1
 10
0
 20
0
 30
0.0
 70
     1
 40
0.156156
 41
0.156156
  0
VERTEX
  8
0
 10
12.9803
 20
29.7435
 30
0.0
 40
0.00216883
 41
0.00216883
  0
VERTEX
  8
0
 10
12.9803
 20
29.7436
 30
0.0
 40
0.00216883
 41
0.00216883
  0
VERTEX
  8
0
 10
12.9807
 20
29.7439
 30
0.0
 40
0.00216883
 41
0.00216883
  0
VERTEX
  8
0
 10
12.9808
 20
29.7439
 30
0.0
 40
0.00216883
 41
0.00216883
  0
VERTEX
  8
0
 10
12.981
 20
29.7439
 30
0.0
 40
0.00216883
 41
0.00216883
  0
VERTEX
  8
0
 10
12.9813
 20
29.7436
 30
0.0
 40
0.00216883
 41
0.00216883
  0
VERTEX
  8
0
 10
12.9813
 20
29.7435
 30
0.0
 40
0.00216883
 41
0.00216883
  0
VERTEX
  8
0
 10
12.9813
 20
29.7433
 30
0.0
 40
0.00216883
 41
0.00216883
  0
VERTEX
  8
0
 10
12.981
 20
29.7429
 30
0.0
 40
0.00216883
 41
0.00216883
  0
VERTEX
  8
0
 10
12.9808
 20
29.7429
 30
0.0
 40
0.00216883
 41
0.00216883
  0
VERTEX
  8
0
 10
12.9807
 20
29.7429
 30
0.0
 40
0.00216883
 41
0.00216883
  0
VERTEX
  8
0
 10
12.9803
 20
29.7433
 30
0.0
 40
0.00216883
 41
0.00216883
  0
VERTEX
  8
0
 10
12.9803
 20
29.7435
 30
0.0
 40
0.00216883
 41
0.00216883
  0
SEQEND
 8
0
  0
POLYLINE
  8
0
 62
     7
 66
     1
 10
0
 20
0
 30
0.0
 70
     1
 40
0
 41
0
  0
VERTEX
  8
0
 10
4.24457
 20
29.1297
 30
0.0
 40
0
 41
0
  0
VERTEX
  8
0
 10
4.24457
 20
29.1297
 30
0.0
 40
0
 41
0
  0
VERTEX
  8
0
 10
4.24447
 20
29.1296
 30
0.0
 40
0
 41
0
  0
VERTEX
  8
0
 10
4.24447
 20
29.1296
 30
0.0
 40
0
 41
0
  0
VERTEX
  8
0
 10
4.24447
 20
29.1296
 30
0.0
 40
0
 41
0
  0
VERTEX
  8
0
 10
4.24442
 20
29.1297
 30
0.0
 40
0
 41
0
  0
VERTEX
  8
0
 10
4.24442
 20
29.1297
 30
0.0
 40
0
 41
0
  0
VERTEX
  8
0
 10
4.24442
 20
29.1297
 30
0.0
 40
0
 41
0
  0
VERTEX
  8
0
 10
4.24447
 20
29.1297
 30
0.0
 40
0
 41
0
  0
VERTEX
  8
0
 10
4.24447
 20
29.1297
 30
0.0
 40
0
 41
0
  0
VERTEX
  8
0
 10
4.24447
 20
29.1297
 30
0.0
 40
0
 41
0
  0
VERTEX
  8
0
 10
4.24457
 20
29.1297
 30
0.0
 40
0
 41
0
  0
VERTEX
  8
0
 10
4.24457
 20
29.1297
 30
0.0
 40
0
 41
0
  0
SEQEND
 8
0
  0
POLYLINE
  8
0
 62
     0
 66
     1
 10
0
 20
0
 30
0.0
 70
     1
 40
0.1575
 41
0.1575
  0
VERTEX
  8
0
 10
4.24457
 20
29.1297
 30
0.0
 40
0.0021875
 41
0.0021875
  0
VERTEX
  8
0
 10
4.24457
 20
29.1297
 30
0.0
 40
0.0021875
 41
0.0021875
  0
VERTEX
  8
0
 10
4.24447
 20
29.1296
 30
0.0
 40
0.0021875
 41
0.0021875
  0
VERTEX
  8
0
 10
4.24447
 20
29.1296
 30
0.0
 40
0.0021875
 41
0.0021875
  0
VERTEX
  8
0
 10
4.24447
 20
29.1296
 30
0.0
 40
0.0021875
 41
0.0021875
  0
VERTEX
  8
0
 10
4.24442
 20
29.1297
 30
0.0
 40
0.0021875
 41
0.0021875
  0
VERTEX
  8
0
 10
4.24442
 20
29.1297
 30
0.0
 40
0.0021875
 41
0.0021875
  0
VERTEX
  8
0
 10
4.24442
 20
29.1297
 30
0.0
 40
0.0021875
 41
0.0021875
  0
VERTEX
  8
0
 10
4.24447
 20
29.1297
 30
0.0
 40
0.0021875
 41
0.0021875
  0
VERTEX
  8
0
 10
4.24447
 20
29.1297
 30
0.0
 40
0.0021875
 41
0.0021875
  0
VERTEX
  8
0
 10
4.24447
 20
29.1297
 30
0.0
 40
0.0021875
 41
0.0021875
  0
VERTEX
  8
0
 10
4.24457
 20
29.1297
 30
0.0
 40
0.0021875
 41
0.0021875
  0
VERTEX
  8
0
 10
4.24457
 20
29.1297
 30
0.0
 40
0.0021875
 41
0.0021875
  0
SEQEND
 8
0
  0
POLYLINE
  8
0
 62
     7
 66
     1
 10
0
 20
0
 30
0.0
 70
     1
 40
0
 41
0
  0
VERTEX
  8
0
 10
4.24457
 20
29.1297
 30
0.0
 40
0
 41
0
  0
VERTEX
  8
0
 10
4.24457
 20
29.1297
 30
0.0
 40
0
 41
0
  0
VERTEX
  8
0
 10
4.24447
 20
29.1296
 30
0.0
 40
0
 41
0
  0
VERTEX
  8
0
 10
4.24447
 20
29.1296
 30
0.0
 40
0
 41
0
  0
VERTEX
  8
0
 10
4.24447
 20
29.1296
 30
0.0
 40
0
 41
0
  0
VERTEX
  8
0
 10
4.24442
 20
29.1297
 30
0.0
 40
0
 41
0
  0
VERTEX
  8
0
 10
4.24442
 20
29.1297
 30
0.0
 40
0
 41
0
  0
VERTEX
  8
0
 10
4.24442
 20
29.1297
 30
0.0
 40
0
 41
0
  0
VERTEX
  8
0
 10
4.24447
 20
29.1297
 30
0.0
 40
0
 41
0
  0
VERTEX
  8
0
 10
4.24447
 20
29.1297
 30
0.0
 40
0
 41
0
  0
VERTEX
  8
0
 10
4.24447
 20
29.1297
 30
0.0
 40
0
 41
0
  0
VERTEX
  8
0
 10
4.24457
 20
29.1297
 30
0.0
 40
0
 41
0
  0
VERTEX
  8
0
 10
4.24457
 20
29.1297
 30
0.0
 40
0
 41
0
  0
SEQEND
 8
0
  0
POLYLINE
  8
0
 62
     0
 66
     1
 10
0
 20
0
 30
0.0
 70
     1
 40
0.1575
 41
0.1575
  0
VERTEX
  8
0
 10
4.24457
 20
29.1297
 30
0.0
 40
0.0021875
 41
0.0021875
  0
VERTEX
  8
0
 10
4.24457
 20
29.1297
 30
0.0
 40
0.0021875
 41
0.0021875
  0
VERTEX
  8
0
 10
4.24447
 20
29.1296
 30
0.0
 40
0.0021875
 41
0.0021875
  0
VERTEX
  8
0
 10
4.24447
 20
29.1296
 30
0.0
 40
0.0021875
 41
0.0021875
  0
VERTEX
  8
0
 10
4.24447
 20
29.1296
 30
0.0
 40
0.0021875
 41
0.0021875
  0
VERTEX
  8
0
 10
4.24442
 20
29.1297
 30
0.0
 40
0.0021875
 41
0.0021875
  0
VERTEX
  8
0
 10
4.24442
 20
29.1297
 30
0.0
 40
0.0021875
 41
0.0021875
  0
VERTEX
  8
0
 10
4.24442
 20
29.1297
 30
0.0
 40
0.0021875
 41
0.0021875
  0
VERTEX
  8
0
 10
4.24447
 20
29.1297
 30
0.0
 40
0.0021875
 41
0.0021875
  0
VERTEX
  8
0
 10
4.24447
 20
29.1297
 30
0.0
 40
0.0021875
 41
0.0021875
  0
VERTEX
  8
0
 10
4.24447
 20
29.1297
 30
0.0
 40
0.0021875
 41
0.0021875
  0
VERTEX
  8
0
 10
4.24457
 20
29.1297
 30
0.0
 40
0.0021875
 41
0.0021875
  0
VERTEX
  8
0
 10
4.24457
 20
29.1297
 30
0.0
 40
0.0021875
 41
0.0021875
  0
SEQEND
 8
0
  0
TEXT
  8
0
 62
     0
 10
4.48671
 20
28.6617
 30
0
 40
0.303822
  1
This device 
 50
0
  7
DejaVuSans
  0
TEXT
  8
0
 62
     0
 10
6.29925
 20
28.6617
 30
0
 40
0.303822
  1
run
 50
0
  7
DejaVuSans
  0
TEXT
  8
0
 62
     0
 10
6.81015
 20
28.6617
 30
0
 40
0.303822
  1
s GNUK
 50
0
  7
DejaVuSans
  0
TEXT
  8
0
 62
     0
 10
4.42447
 20
27.525
 30
0
 40
0.830817
  1
Modi
 50
0
  7
DejaVuSans-Bold
  0
TEXT
  8
0
 62
     0
 10
6.70386
 20
27.525
 30
0
 40
0.830817
  1
rum
 50
0
  7
DejaVuSans-Bold
  0
TEXT
  8
0
 62
     0
 10
5.6426
 20
27.2474
 30
0
 40
0.238718
  1
Secur
 50
0
  7
DejaVuSans
  0
TEXT
  8
0
 62
     0
 10
6.27937
 20
27.2474
 30
0
 40
0.238718
  1
e
 50
0
  7
DejaVuSans
  0
TEXT
  8
0
 62
     0
 10
6.41215
 20
27.2474
 30
0
 40
0.238718
  1
d by F
 50
0
  7
DejaVuSans
  0
TEXT
  8
0
 62
     0
 10
7.12868
 20
27.2474
 30
0
 40
0.238718
  1
r
 50
0
  7
DejaVuSans
  0
TEXT
  8
0
 62
     0
 10
7.18171
 20
27.2474
 30
0
 40
0.238718
  1
e
 50
0
  7
DejaVuSans
  0
TEXT
  8
0
 62
     0
 10
7.31425
 20
27.2474
 30
0
 40
0.238718
  1
eB
 50
0
  7
DejaVuSans
  0
TEXT
  8
0
 62
     0
 10
7.62056
 20
27.2474
 30
0
 40
0.238718
  1
SD
 50
0
  7
DejaVuSans
  0
TEXT
  8
0
 62
     0
 10
4.46488
 20
28.4193
 30
0
 40
0.217011
  1
F
 50
0
  7
DejaVuSans
  0
TEXT
  8
0
 62
     0
 10
4.57425
 20
28.4193
 30
0
 40
0.217011
  1
r
 50
0
  7
DejaVuSans
  0
TEXT
  8
0
 62
     0
 10
4.65781
 20
28.4193
 30
0
 40
0.217011
  1
e
 50
0
  7
DejaVuSans
  0
TEXT
  8
0
 62
     0
 10
4.77413
 20
28.4193
 30
0
 40
0.217011
  1
e Sof
 50
0
  7
DejaVuSans
  0
TEXT
  8
0
 62
     0
 10
5.31953
 20
28.4193
 30
0
 40
0.217011
  1
twar
 50
0
  7
DejaVuSans
  0
TEXT
  8
0
 62
     0
 10
5.69811
 20
28.4193
 30
0
 40
0.217011
  1
e
 50
0
  7
DejaVuSans
  0
TEXT
  8
0
 62
     0
 10
5.81465
 20
28.4193
 30
0
 40
0.217011
  1
 Initiative of Japan
 50
0
  7
DejaVuSans
  0
POLYLINE
  8
0
 62
     7
 66
     1
 10
0
 20
0
 30
0.0
 70
     1
 40
0
 41
0
  0
VERTEX
  8
0
 10
3.99756
 20
29.1297
 30
0.0
 40
0
 41
0
  0
VERTEX
  8
0
 10
3.99756
 20
29.1297
 30
0.0
 40
0
 41
0
  0
VERTEX
  8
0
 10
3.99735
 20
29.1296
 30
0.0
 40
0
 41
0
  0
VERTEX
  8
0
 10
3.99729
 20
29.1296
 30
0.0
 40
0
 41
0
  0
VERTEX
  8
0
 10
3.99718
 20
29.1296
 30
0.0
 40
0
 41
0
  0
VERTEX
  8
0
 10
3.99701
 20
29.1297
 30
0.0
 40
0
 41
0
  0
VERTEX
  8
0
 10
3.99701
 20
29.1297
 30
0.0
 40
0
 41
0
  0
VERTEX
  8
0
 10
3.99701
 20
29.1297
 30
0.0
 40
0
 41
0
  0
VERTEX
  8
0
 10
3.99718
 20
29.1297
 30
0.0
 40
0
 41
0
  0
VERTEX
  8
0
 10
3.99729
 20
29.1297
 30
0.0
 40
0
 41
0
  0
VERTEX
  8
0
 10
3.99735
 20
29.1297
 30
0.0
 40
0
 41
0
  0
VERTEX
  8
0
 10
3.99756
 20
29.1297
 30
0.0
 40
0
 41
0
  0
VERTEX
  8
0
 10
3.99756
 20
29.1297
 30
0.0
 40
0
 41
0
  0
SEQEND
 8
0
  0
POLYLINE
  8
0
 62
     0
 66
     1
 10
0
 20
0
 30
0.0
 70
     1
 40
0.156377
 41
0.156377
  0
VERTEX
  8
0
 10
3.99756
 20
29.1297
 30
0.0
 40
0.0021719
 41
0.0021719
  0
VERTEX
  8
0
 10
3.99756
 20
29.1297
 30
0.0
 40
0.0021719
 41
0.0021719
  0
VERTEX
  8
0
 10
3.99735
 20
29.1296
 30
0.0
 40
0.0021719
 41
0.0021719
  0
VERTEX
  8
0
 10
3.99729
 20
29.1296
 30
0.0
 40
0.0021719
 41
0.0021719
  0
VERTEX
  8
0
 10
3.99718
 20
29.1296
 30
0.0
 40
0.0021719
 41
0.0021719
  0
VERTEX
  8
0
 10
3.99701
 20
29.1297
 30
0.0
 40
0.0021719
 41
0.0021719
  0
VERTEX
  8
0
 10
3.99701
 20
29.1297
 30
0.0
 40
0.0021719
 41
0.0021719
  0
VERTEX
  8
0
 10
3.99701
 20
29.1297
 30
0.0
 40
0.0021719
 41
0.0021719
  0
VERTEX
  8
0
 10
3.99718
 20
29.1297
 30
0.0
 40
0.0021719
 41
0.0021719
  0
VERTEX
  8
0
 10
3.99729
 20
29.1297
 30
0.0
 40
0.0021719
 41
0.0021719
  0
VERTEX
  8
0
 10
3.99735
 20
29.1297
 30
0.0
 40
0.0021719
 41
0.0021719
  0
VERTEX
  8
0
 10
3.99756
 20
29.1297
 30
0.0
 40
0.0021719
 41
0.0021719
  0
VERTEX
  8
0
 10
3.99756
 20
29.1297
 30
0.0
 40
0.0021719
 41
0.0021719
  0
SEQEND
 8
0
  0
POLYLINE
  8
0
 62
     0
 66
     1
 10
0
 20
0
 30
0.0
 70
     1
 40
0.156156
 41
0.156156
  0
VERTEX
  8
0
 10
8.18056
 20
27.0008
 30
0.0
 40
0.00216883
 41
0.00216883
  0
VERTEX
  8
0
 10
8.18056
 20
27.001
 30
0.0
 40
0.00216883
 41
0.00216883
  0
VERTEX
  8
0
 10
8.18093
 20
27.0014
 30
0.0
 40
0.00216883
 41
0.00216883
  0
VERTEX
  8
0
 10
8.1811
 20
27.0014
 30
0.0
 40
0.00216883
 41
0.00216883
  0
VERTEX
  8
0
 10
8.18121
 20
27.0014
 30
0.0
 40
0.00216883
 41
0.00216883
  0
VERTEX
  8
0
 10
8.18158
 20
27.001
 30
0.0
 40
0.00216883
 41
0.00216883
  0
VERTEX
  8
0
 10
8.18158
 20
27.0008
 30
0.0
 40
0.00216883
 41
0.00216883
  0
VERTEX
  8
0
 10
8.18158
 20
27.0007
 30
0.0
 40
0.00216883
 41
0.00216883
  0
VERTEX
  8
0
 10
8.18121
 20
27.0003
 30
0.0
 40
0.00216883
 41
0.00216883
  0
VERTEX
  8
0
 10
8.1811
 20
27.0003
 30
0.0
 40
0.00216883
 41
0.00216883
  0
VERTEX
  8
0
 10
8.18093
 20
27.0003
 30
0.0
 40
0.00216883
 41
0.00216883
  0
VERTEX
  8
0
 10
8.18056
 20
27.0007
 30
0.0
 40
0.00216883
 41
0.00216883
  0
VERTEX
  8
0
 10
8.18056
 20
27.0008
 30
0.0
 40
0.00216883
 41
0.00216883
  0
SEQEND
 8
0
  0
POLYLINE
  8
0
 62
     7
 66
     1
 10
0
 20
0
 30
0.0
 70
     1
 40
0
 41
0
  0
VERTEX
  8
0
 10
9.04281
 20
29.1288
 30
0.0
 40
0
 41
0
  0
VERTEX
  8
0
 10
9.04281
 20
29.1288
 30
0.0
 40
0
 41
0
  0
VERTEX
  8
0
 10
9.04269
 20
29.1286
 30
0.0
 40
0
 41
0
  0
VERTEX
  8
0
 10
9.04269
 20
29.1286
 30
0.0
 40
0
 41
0
  0
VERTEX
  8
0
 10
9.04269
 20
29.1286
 30
0.0
 40
0
 41
0
  0
VERTEX
  8
0
 10
9.04258
 20
29.1288
 30
0.0
 40
0
 41
0
  0
VERTEX
  8
0
 10
9.04258
 20
29.1288
 30
0.0
 40
0
 41
0
  0
VERTEX
  8
0
 10
9.04258
 20
29.1288
 30
0.0
 40
0
 41
0
  0
VERTEX
  8
0
 10
9.04269
 20
29.1288
 30
0.0
 40
0
 41
0
  0
VERTEX
  8
0
 10
9.04269
 20
29.1288
 30
0.0
 40
0
 41
0
  0
VERTEX
  8
0
 10
9.04269
 20
29.1288
 30
0.0
 40
0
 41
0
  0
VERTEX
  8
0
 10
9.04281
 20
29.1288
 30
0.0
 40
0
 41
0
  0
VERTEX
  8
0
 10
9.04281
 20
29.1288
 30
0.0
 40
0
 41
0
  0
SEQEND
 8
0
  0
POLYLINE
  8
0
 62
     0
 66
     1
 10
0
 20
0
 30
0.0
 70
     1
 40
0.1575
 41
0.1575
  0
VERTEX
  8
0
 10
9.04281
 20
29.1288
 30
0.0
 40
0.0021875
 41
0.0021875
  0
VERTEX
  8
0
 10
9.04281
 20
29.1288
 30
0.0
 40
0.0021875
 41
0.0021875
  0
VERTEX
  8
0
 10
9.04269
 20
29.1286
 30
0.0
 40
0.0021875
 41
0.0021875
  0
VERTEX
  8
0
 10
9.04269
 20
29.1286
 30
0.0
 40
0.0021875
 41
0.0021875
  0
VERTEX
  8
0
 10
9.04269
 20
29.1286
 30
0.0
 40
0.0021875
 41
0.0021875
  0
VERTEX
  8
0
 10
9.04258
 20
29.1288
 30
0.0
 40
0.0021875
 41
0.0021875
  0
VERTEX
  8
0
 10
9.04258
 20
29.1288
 30
0.0
 40
0.0021875
 41
0.0021875
  0
VERTEX
  8
0
 10
9.04258
 20
29.1288
 30
0.0
 40
0.0021875
 41
0.0021875
  0
VERTEX
  8
0
 10
9.04269
 20
29.1288
 30
0.0
 40
0.0021875
 41
0.0021875
  0
VERTEX
  8
0
 10
9.04269
 20
29.1288
 30
0.0
 40
0.0021875
 41
0.0021875
  0
VERTEX
  8
0
 10
9.04269
 20
29.1288
 30
0.0
 40
0.0021875
 41
0.0021875
  0
VERTEX
  8
0
 10
9.04281
 20
29.1288
 30
0.0
 40
0.0021875
 41
0.0021875
  0
VERTEX
  8
0
 10
9.04281
 20
29.1288
 30
0.0
 40
0.0021875
 41
0.0021875
  0
SEQEND
 8
0
  0
POLYLINE
  8
0
 62
     7
 66
     1
 10
0
 20
0
 30
0.0
 70
     1
 40
0
 41
0
  0
VERTEX
  8
0
 10
9.04281
 20
29.1288
 30
0.0
 40
0
 41
0
  0
VERTEX
  8
0
 10
9.04281
 20
29.1288
 30
0.0
 40
0
 41
0
  0
VERTEX
  8
0
 10
9.04269
 20
29.1286
 30
0.0
 40
0
 41
0
  0
VERTEX
  8
0
 10
9.04269
 20
29.1286
 30
0.0
 40
0
 41
0
  0
VERTEX
  8
0
 10
9.04269
 20
29.1286
 30
0.0
 40
0
 41
0
  0
VERTEX
  8
0
 10
9.04258
 20
29.1288
 30
0.0
 40
0
 41
0
  0
VERTEX
  8
0
 10
9.04258
 20
29.1288
 30
0.0
 40
0
 41
0
  0
VERTEX
  8
0
 10
9.04258
 20
29.1288
 30
0.0
 40
0
 41
0
  0
VERTEX
  8
0
 10
9.04269
 20
29.1288
 30
0.0
 40
0
 41
0
  0
VERTEX
  8
0
 10
9.04269
 20
29.1288
 30
0.0
 40
0
 41
0
  0
VERTEX
  8
0
 10
9.04269
 20
29.1288
 30
0.0
 40
0
 41
0
  0
VERTEX
  8
0
 10
9.04281
 20
29.1288
 30
0.0
 40
0
 41
0
  0
VERTEX
  8
0
 10
9.04281
 20
29.1288
 30
0.0
 40
0
 41
0
  0
SEQEND
 8
0
  0
POLYLINE
  8
0
 62
     0
 66
     1
 10
0
 20
0
 30
0.0
 70
     1
 40
0.1575
 41
0.1575
  0
VERTEX
  8
0
 10
9.04281
 20
29.1288
 30
0.0
 40
0.0021875
 41
0.0021875
  0
VERTEX
  8
0
 10
9.04281
 20
29.1288
 30
0.0
 40
0.0021875
 41
0.0021875
  0
VERTEX
  8
0
 10
9.04269
 20
29.1286
 30
0.0
 40
0.0021875
 41
0.0021875
  0
VERTEX
  8
0
 10
9.04269
 20
29.1286
 30
0.0
 40
0.0021875
 41
0.0021875
  0
VERTEX
  8
0
 10
9.04269
 20
29.1286
 30
0.0
 40
0.0021875
 41
0.0021875
  0
VERTEX
  8
0
 10
9.04258
 20
29.1288
 30
0.0
 40
0.0021875
 41
0.0021875
  0
VERTEX
  8
0
 10
9.04258
 20
29.1288
 30
0.0
 40
0.0021875
 41
0.0021875
  0
VERTEX
  8
0
 10
9.04258
 20
29.1288
 30
0.0
 40
0.0021875
 41
0.0021875
  0
VERTEX
  8
0
 10
9.04269
 20
29.1288
 30
0.0
 40
0.0021875
 41
0.0021875
  0
VERTEX
  8
0
 10
9.04269
 20
29.1288
 30
0.0
 40
0.0021875
 41
0.0021875
  0
VERTEX
  8
0
 10
9.04269
 20
29.1288
 30
0.0
 40
0.0021875
 41
0.0021875
  0
VERTEX
  8
0
 10
9.04281
 20
29.1288
 30
0.0
 40
0.0021875
 41
0.0021875
  0
VERTEX
  8
0
 10
9.04281
 20
29.1288
 30
0.0
 40
0.0021875
 41
0.0021875
  0
SEQEND
 8
0
  0
TEXT
  8
0
 62
     0
 10
9.28494
 20
28.6606
 30
0
 40
0.303822
  1
This device 
 50
0
  7
DejaVuSans
  0
TEXT
  8
0
 62
     0
 10
11.0975
 20
28.6606
 30
0
 40
0.303822
  1
run
 50
0
  7
DejaVuSans
  0
TEXT
  8
0
 62
     0
 10
11.6084
 20
28.6606
 30
0
 40
0.303822
  1
s GNUK
 50
0
  7
DejaVuSans
  0
TEXT
  8
0
 62
     0
 10
9.22269
 20
27.5239
 30
0
 40
0.830817
  1
Modi
 50
0
  7
DejaVuSans-Bold
  0
TEXT
  8
0
 62
     0
 10
11.5021
 20
27.5239
 30
0
 40
0.830817
  1
rum
 50
0
  7
DejaVuSans-Bold
  0
TEXT
  8
0
 62
     0
 10
10.4408
 20
27.2464
 30
0
 40
0.238718
  1
Secur
 50
0
  7
DejaVuSans
  0
TEXT
  8
0
 62
     0
 10
11.0776
 20
27.2464
 30
0
 40
0.238718
  1
e
 50
0
  7
DejaVuSans
  0
TEXT
  8
0
 62
     0
 10
11.2104
 20
27.2464
 30
0
 40
0.238718
  1
d by F
 50
0
  7
DejaVuSans
  0
TEXT
  8
0
 62
     0
 10
11.9269
 20
27.2464
 30
0
 40
0.238718
  1
r
 50
0
  7
DejaVuSans
  0
TEXT
  8
0
 62
     0
 10
11.9799
 20
27.2464
 30
0
 40
0.238718
  1
e
 50
0
  7
DejaVuSans
  0
TEXT
  8
0
 62
     0
 10
12.1125
 20
27.2464
 30
0
 40
0.238718
  1
eB
 50
0
  7
DejaVuSans
  0
TEXT
  8
0
 62
     0
 10
12.4188
 20
27.2464
 30
0
 40
0.238718
  1
SD
 50
0
  7
DejaVuSans
  0
TEXT
  8
0
 62
     0
 10
9.2631
 20
28.4182
 30
0
 40
0.217011
  1
F
 50
0
  7
DejaVuSans
  0
TEXT
  8
0
 62
     0
 10
9.37247
 20
28.4182
 30
0
 40
0.217011
  1
r
 50
0
  7
DejaVuSans
  0
TEXT
  8
0
 62
     0
 10
9.45603
 20
28.4182
 30
0
 40
0.217011
  1
e
 50
0
  7
DejaVuSans
  0
TEXT
  8
0
 62
     0
 10
9.57235
 20
28.4182
 30
0
 40
0.217011
  1
e Sof
 50
0
  7
DejaVuSans
  0
TEXT
  8
0
 62
     0
 10
10.1178
 20
28.4182
 30
0
 40
0.217011
  1
twar
 50
0
  7
DejaVuSans
  0
TEXT
  8
0
 62
     0
 10
10.4963
 20
28.4182
 30
0
 40
0.217011
  1
e
 50
0
  7
DejaVuSans
  0
TEXT
  8
0
 62
     0
 10
10.6129
 20
28.4182
 30
0
 40
0.217011
  1
 Initiative of Japan
 50
0
  7
DejaVuSans
  0
POLYLINE
  8
0
 62
     7
 66
     1
 10
0
 20
0
 30
0.0
 70
     1
 40
0
 41
0
  0
VERTEX
  8
0
 10
8.79579
 20
29.1288
 30
0.0
 40
0
 41
0
  0
VERTEX
  8
0
 10
8.79579
 20
29.1288
 30
0.0
 40
0
 41
0
  0
VERTEX
  8
0
 10
8.79557
 20
29.1286
 30
0.0
 40
0
 41
0
  0
VERTEX
  8
0
 10
8.79551
 20
29.1286
 30
0.0
 40
0
 41
0
  0
VERTEX
  8
0
 10
8.79542
 20
29.1286
 30
0.0
 40
0
 41
0
  0
VERTEX
  8
0
 10
8.79525
 20
29.1288
 30
0.0
 40
0
 41
0
  0
VERTEX
  8
0
 10
8.79525
 20
29.1288
 30
0.0
 40
0
 41
0
  0
VERTEX
  8
0
 10
8.79525
 20
29.1288
 30
0.0
 40
0
 41
0
  0
VERTEX
  8
0
 10
8.79542
 20
29.1288
 30
0.0
 40
0
 41
0
  0
VERTEX
  8
0
 10
8.79551
 20
29.1288
 30
0.0
 40
0
 41
0
  0
VERTEX
  8
0
 10
8.79557
 20
29.1288
 30
0.0
 40
0
 41
0
  0
VERTEX
  8
0
 10
8.79579
 20
29.1288
 30
0.0
 40
0
 41
0
  0
VERTEX
  8
0
 10
8.79579
 20
29.1288
 30
0.0
 40
0
 41
0
  0
SEQEND
 8
0
  0
POLYLINE
  8
0
 62
     0
 66
     1
 10
0
 20
0
 30
0.0
 70
     1
 40
0.156377
 41
0.156377
  0
VERTEX
  8
0
 10
8.79579
 20
29.1288
 30
0.0
 40
0.0021719
 41
0.0021719
  0
VERTEX
  8
0
 10
8.79579
 20
29.1288
 30
0.0
 40
0.0021719
 41
0.0021719
  0
VERTEX
  8
0
 10
8.79557
 20
29.1286
 30
0.0
 40
0.0021719
 41
0.0021719
  0
VERTEX
  8
0
 10
8.79551
 20
29.1286
 30
0.0
 40
0.0021719
 41
0.0021719
  0
VERTEX
  8
0
 10
8.79542
 20
29.1286
 30
0.0
 40
0.0021719
 41
0.0021719
  0
VERTEX
  8
0
 10
8.79525
 20
29.1288
 30
0.0
 40
0.0021719
 41
0.0021719
  0
VERTEX
  8
0
 10
8.79525
 20
29.1288
 30
0.0
 40
0.0021719
 41
0.0021719
  0
VERTEX
  8
0
 10
8.79525
 20
29.1288
 30
0.0
 40
0.0021719
 41
0.0021719
  0
VERTEX
  8
0
 10
8.79542
 20
29.1288
 30
0.0
 40
0.0021719
 41
0.0021719
  0
VERTEX
  8
0
 10
8.79551
 20
29.1288
 30
0.0
 40
0.0021719
 41
0.0021719
  0
VERTEX
  8
0
 10
8.79557
 20
29.1288
 30
0.0
 40
0.0021719
 41
0.0021719
  0
VERTEX
  8
0
 10
8.79579
 20
29.1288
 30
0.0
 40
0.0021719
 41
0.0021719
  0
VERTEX
  8
0
 10
8.79579
 20
29.1288
 30
0.0
 40
0.0021719
 41
0.0021719
  0
SEQEND
 8
0
  0
POLYLINE
  8
0
 62
     0
 66
     1
 10
0
 20
0
 30
0.0
 70
     1
 40
0.156156
 41
0.156156
  0
VERTEX
  8
0
 10
12.9788
 20
26.9999
 30
0.0
 40
0.00216883
 41
0.00216883
  0
VERTEX
  8
0
 10
12.9788
 20
27
 30
0.0
 40
0.00216883
 41
0.00216883
  0
VERTEX
  8
0
 10
12.9792
 20
27.0003
 30
0.0
 40
0.00216883
 41
0.00216883
  0
VERTEX
  8
0
 10
12.9793
 20
27.0003
 30
0.0
 40
0.00216883
 41
0.00216883
  0
VERTEX
  8
0
 10
12.9794
 20
27.0003
 30
0.0
 40
0.00216883
 41
0.00216883
  0
VERTEX
  8
0
 10
12.9798
 20
27
 30
0.0
 40
0.00216883
 41
0.00216883
  0
VERTEX
  8
0
 10
12.9798
 20
26.9999
 30
0.0
 40
0.00216883
 41
0.00216883
  0
VERTEX
  8
0
 10
12.9798
 20
26.9997
 30
0.0
 40
0.00216883
 41
0.00216883
  0
VERTEX
  8
0
 10
12.9794
 20
26.9993
 30
0.0
 40
0.00216883
 41
0.00216883
  0
VERTEX
  8
0
 10
12.9793
 20
26.9993
 30
0.0
 40
0.00216883
 41
0.00216883
  0
VERTEX
  8
0
 10
12.9792
 20
26.9993
 30
0.0
 40
0.00216883
 41
0.00216883
  0
VERTEX
  8
0
 10
12.9788
 20
26.9997
 30
0.0
 40
0.00216883
 41
0.00216883
  0
VERTEX
  8
0
 10
12.9788
 20
26.9999
 30
0.0
 40
0.00216883
 41
0.00216883
  0
SEQEND
 8
0
  0
ENDSEC
  0
EOF
