  0
SECTION
  2
HEADER
  9
$ACADVER
  1
AC1009
  9
$EXTMIN
 10
0.0
 20
0.0
 30
0.0
  9
$EXTMAX
 10
1000.0
 20
1000.0
 30
0.0
  9
$FILLMODE
 70
 0
  9
$SPLFRAME
 70
 1
  0
ENDSEC
  0
SECTION
  2
TABLES
  0
TABLE
  2
LAYER
 70
1
  0
LAYER
  2
0
 70
     0
 62
     7
  6
CONTINUOUS
  0
ENDTAB
  0
ENDSEC
  0
SECTION
  2
ENTITIES
  0
POLYLINE
  8
0
 62
     0
 66
     1
 10
0
 20
0
 30
0.0
 70
     1
 40
0.658755
 41
0.658755
  0
VERTEX
  8
0
 10
2.76839
 20
33.0951
 30
0.0
 40
0.00914938
 41
0.00914938
  0
VERTEX
  8
0
 10
52.5942
 20
33.0951
 30
0.0
 40
0.00914938
 41
0.00914938
  0
VERTEX
  8
0
 10
52.5942
 20
3.81342
 30
0.0
 40
0.00914938
 41
0.00914938
  0
VERTEX
  8
0
 10
2.76839
 20
3.81342
 30
0.0
 40
0.00914938
 41
0.00914938
  0
VERTEX
  8
0
 10
2.76839
 20
33.0951
 30
0.0
 40
0.00914938
 41
0.00914938
  0
SEQEND
 8
0
  0
POLYLINE
  8
0
 62
     0
 66
     1
 10
0
 20
0
 30
0.0
 70
     1
 40
0.75
 41
0.75
  0
VERTEX
  8
0
 10
3.99854
 20
26.3851
 30
0.0
 40
0.0104167
 41
0.0104167
  0
VERTEX
  8
0
 10
8.18158
 20
26.3851
 30
0.0
 40
0.0104167
 41
0.0104167
  0
VERTEX
  8
0
 10
8.18158
 20
24.2567
 30
0.0
 40
0.0104167
 41
0.0104167
  0
VERTEX
  8
0
 10
3.99854
 20
24.2567
 30
0.0
 40
0.0104167
 41
0.0104167
  0
VERTEX
  8
0
 10
3.99854
 20
26.3851
 30
0.0
 40
0.0104167
 41
0.0104167
  0
SEQEND
 8
0
  0
POLYLINE
  8
0
 62
     0
 66
     1
 10
0
 20
0
 30
0.0
 70
     1
 40
0.75
 41
0.75
  0
VERTEX
  8
0
 10
3.99854
 20
29.1288
 30
0.0
 40
0.0104167
 41
0.0104167
  0
VERTEX
  8
0
 10
8.18158
 20
29.1288
 30
0.0
 40
0.0104167
 41
0.0104167
  0
VERTEX
  8
0
 10
8.18158
 20
27.0003
 30
0.0
 40
0.0104167
 41
0.0104167
  0
VERTEX
  8
0
 10
3.99854
 20
27.0003
 30
0.0
 40
0.0104167
 41
0.0104167
  0
VERTEX
  8
0
 10
3.99854
 20
29.1288
 30
0.0
 40
0.0104167
 41
0.0104167
  0
SEQEND
 8
0
  0
POLYLINE
  8
0
 62
     0
 66
     1
 10
0
 20
0
 30
0.0
 70
     1
 40
0.75
 41
0.75
  0
VERTEX
  8
0
 10
3.99854
 20
31.8724
 30
0.0
 40
0.0104167
 41
0.0104167
  0
VERTEX
  8
0
 10
8.18158
 20
31.8724
 30
0.0
 40
0.0104167
 41
0.0104167
  0
VERTEX
  8
0
 10
8.18158
 20
29.7439
 30
0.0
 40
0.0104167
 41
0.0104167
  0
VERTEX
  8
0
 10
3.99854
 20
29.7439
 30
0.0
 40
0.0104167
 41
0.0104167
  0
VERTEX
  8
0
 10
3.99854
 20
31.8724
 30
0.0
 40
0.0104167
 41
0.0104167
  0
SEQEND
 8
0
  0
POLYLINE
  8
0
 62
     0
 66
     1
 10
0
 20
0
 30
0.0
 70
     1
 40
0.75
 41
0.75
  0
VERTEX
  8
0
 10
3.99854
 20
23.6415
 30
0.0
 40
0.0104167
 41
0.0104167
  0
VERTEX
  8
0
 10
8.18158
 20
23.6415
 30
0.0
 40
0.0104167
 41
0.0104167
  0
VERTEX
  8
0
 10
8.18158
 20
21.5132
 30
0.0
 40
0.0104167
 41
0.0104167
  0
VERTEX
  8
0
 10
3.99854
 20
21.5132
 30
0.0
 40
0.0104167
 41
0.0104167
  0
VERTEX
  8
0
 10
3.99854
 20
23.6415
 30
0.0
 40
0.0104167
 41
0.0104167
  0
SEQEND
 8
0
  0
POLYLINE
  8
0
 62
     0
 66
     1
 10
0
 20
0
 30
0.0
 70
     1
 40
0.75
 41
0.75
  0
VERTEX
  8
0
 10
3.99854
 20
20.8981
 30
0.0
 40
0.0104167
 41
0.0104167
  0
VERTEX
  8
0
 10
8.18158
 20
20.8981
 30
0.0
 40
0.0104167
 41
0.0104167
  0
VERTEX
  8
0
 10
8.18158
 20
18.7696
 30
0.0
 40
0.0104167
 41
0.0104167
  0
VERTEX
  8
0
 10
3.99854
 20
18.7696
 30
0.0
 40
0.0104167
 41
0.0104167
  0
VERTEX
  8
0
 10
3.99854
 20
20.8981
 30
0.0
 40
0.0104167
 41
0.0104167
  0
SEQEND
 8
0
  0
POLYLINE
  8
0
 62
     0
 66
     1
 10
0
 20
0
 30
0.0
 70
     1
 40
0.75
 41
0.75
  0
VERTEX
  8
0
 10
3.99854
 20
18.1543
 30
0.0
 40
0.0104167
 41
0.0104167
  0
VERTEX
  8
0
 10
8.18158
 20
18.1543
 30
0.0
 40
0.0104167
 41
0.0104167
  0
VERTEX
  8
0
 10
8.18158
 20
16.026
 30
0.0
 40
0.0104167
 41
0.0104167
  0
VERTEX
  8
0
 10
3.99854
 20
16.026
 30
0.0
 40
0.0104167
 41
0.0104167
  0
VERTEX
  8
0
 10
3.99854
 20
18.1543
 30
0.0
 40
0.0104167
 41
0.0104167
  0
SEQEND
 8
0
  0
POLYLINE
  8
0
 62
     0
 66
     1
 10
0
 20
0
 30
0.0
 70
     1
 40
0.75
 41
0.75
  0
VERTEX
  8
0
 10
3.99854
 20
15.4108
 30
0.0
 40
0.0104167
 41
0.0104167
  0
VERTEX
  8
0
 10
8.18158
 20
15.4108
 30
0.0
 40
0.0104167
 41
0.0104167
  0
VERTEX
  8
0
 10
8.18158
 20
13.2824
 30
0.0
 40
0.0104167
 41
0.0104167
  0
VERTEX
  8
0
 10
3.99854
 20
13.2824
 30
0.0
 40
0.0104167
 41
0.0104167
  0
VERTEX
  8
0
 10
3.99854
 20
15.4108
 30
0.0
 40
0.0104167
 41
0.0104167
  0
SEQEND
 8
0
  0
POLYLINE
  8
0
 62
     0
 66
     1
 10
0
 20
0
 30
0.0
 70
     1
 40
0.75
 41
0.75
  0
VERTEX
  8
0
 10
3.99854
 20
12.6672
 30
0.0
 40
0.0104167
 41
0.0104167
  0
VERTEX
  8
0
 10
8.18158
 20
12.6672
 30
0.0
 40
0.0104167
 41
0.0104167
  0
VERTEX
  8
0
 10
8.18158
 20
10.5387
 30
0.0
 40
0.0104167
 41
0.0104167
  0
VERTEX
  8
0
 10
3.99854
 20
10.5387
 30
0.0
 40
0.0104167
 41
0.0104167
  0
VERTEX
  8
0
 10
3.99854
 20
12.6672
 30
0.0
 40
0.0104167
 41
0.0104167
  0
SEQEND
 8
0
  0
POLYLINE
  8
0
 62
     0
 66
     1
 10
0
 20
0
 30
0.0
 70
     1
 40
0.75
 41
0.75
  0
VERTEX
  8
0
 10
3.99854
 20
9.9235
 30
0.0
 40
0.0104167
 41
0.0104167
  0
VERTEX
  8
0
 10
8.18158
 20
9.9235
 30
0.0
 40
0.0104167
 41
0.0104167
  0
VERTEX
  8
0
 10
8.18158
 20
7.79508
 30
0.0
 40
0.0104167
 41
0.0104167
  0
VERTEX
  8
0
 10
3.99854
 20
7.79508
 30
0.0
 40
0.0104167
 41
0.0104167
  0
VERTEX
  8
0
 10
3.99854
 20
9.9235
 30
0.0
 40
0.0104167
 41
0.0104167
  0
SEQEND
 8
0
  0
POLYLINE
  8
0
 62
     0
 66
     1
 10
0
 20
0
 30
0.0
 70
     1
 40
0.75
 41
0.75
  0
VERTEX
  8
0
 10
3.99854
 20
7.17996
 30
0.0
 40
0.0104167
 41
0.0104167
  0
VERTEX
  8
0
 10
8.18158
 20
7.17996
 30
0.0
 40
0.0104167
 41
0.0104167
  0
VERTEX
  8
0
 10
8.18158
 20
5.05154
 30
0.0
 40
0.0104167
 41
0.0104167
  0
VERTEX
  8
0
 10
3.99854
 20
5.05154
 30
0.0
 40
0.0104167
 41
0.0104167
  0
VERTEX
  8
0
 10
3.99854
 20
7.17996
 30
0.0
 40
0.0104167
 41
0.0104167
  0
SEQEND
 8
0
  0
POLYLINE
  8
0
 62
     0
 66
     1
 10
0
 20
0
 30
0.0
 70
     1
 40
0.75
 41
0.75
  0
VERTEX
  8
0
 10
8.79676
 20
26.3851
 30
0.0
 40
0.0104167
 41
0.0104167
  0
VERTEX
  8
0
 10
12.9798
 20
26.3851
 30
0.0
 40
0.0104167
 41
0.0104167
  0
VERTEX
  8
0
 10
12.9798
 20
24.2567
 30
0.0
 40
0.0104167
 41
0.0104167
  0
VERTEX
  8
0
 10
8.79676
 20
24.2567
 30
0.0
 40
0.0104167
 41
0.0104167
  0
VERTEX
  8
0
 10
8.79676
 20
26.3851
 30
0.0
 40
0.0104167
 41
0.0104167
  0
SEQEND
 8
0
  0
POLYLINE
  8
0
 62
     0
 66
     1
 10
0
 20
0
 30
0.0
 70
     1
 40
0.75
 41
0.75
  0
VERTEX
  8
0
 10
8.79676
 20
29.1288
 30
0.0
 40
0.0104167
 41
0.0104167
  0
VERTEX
  8
0
 10
12.9798
 20
29.1288
 30
0.0
 40
0.0104167
 41
0.0104167
  0
VERTEX
  8
0
 10
12.9798
 20
27.0003
 30
0.0
 40
0.0104167
 41
0.0104167
  0
VERTEX
  8
0
 10
8.79676
 20
27.0003
 30
0.0
 40
0.0104167
 41
0.0104167
  0
VERTEX
  8
0
 10
8.79676
 20
29.1288
 30
0.0
 40
0.0104167
 41
0.0104167
  0
SEQEND
 8
0
  0
POLYLINE
  8
0
 62
     0
 66
     1
 10
0
 20
0
 30
0.0
 70
     1
 40
0.75
 41
0.75
  0
VERTEX
  8
0
 10
8.79676
 20
31.8724
 30
0.0
 40
0.0104167
 41
0.0104167
  0
VERTEX
  8
0
 10
12.9798
 20
31.8724
 30
0.0
 40
0.0104167
 41
0.0104167
  0
VERTEX
  8
0
 10
12.9798
 20
29.7439
 30
0.0
 40
0.0104167
 41
0.0104167
  0
VERTEX
  8
0
 10
8.79676
 20
29.7439
 30
0.0
 40
0.0104167
 41
0.0104167
  0
VERTEX
  8
0
 10
8.79676
 20
31.8724
 30
0.0
 40
0.0104167
 41
0.0104167
  0
SEQEND
 8
0
  0
POLYLINE
  8
0
 62
     0
 66
     1
 10
0
 20
0
 30
0.0
 70
     1
 40
0.75
 41
0.75
  0
VERTEX
  8
0
 10
8.79676
 20
23.6415
 30
0.0
 40
0.0104167
 41
0.0104167
  0
VERTEX
  8
0
 10
12.9798
 20
23.6415
 30
0.0
 40
0.0104167
 41
0.0104167
  0
VERTEX
  8
0
 10
12.9798
 20
21.5132
 30
0.0
 40
0.0104167
 41
0.0104167
  0
VERTEX
  8
0
 10
8.79676
 20
21.5132
 30
0.0
 40
0.0104167
 41
0.0104167
  0
VERTEX
  8
0
 10
8.79676
 20
23.6415
 30
0.0
 40
0.0104167
 41
0.0104167
  0
SEQEND
 8
0
  0
POLYLINE
  8
0
 62
     0
 66
     1
 10
0
 20
0
 30
0.0
 70
     1
 40
0.75
 41
0.75
  0
VERTEX
  8
0
 10
8.79676
 20
20.8981
 30
0.0
 40
0.0104167
 41
0.0104167
  0
VERTEX
  8
0
 10
12.9798
 20
20.8981
 30
0.0
 40
0.0104167
 41
0.0104167
  0
VERTEX
  8
0
 10
12.9798
 20
18.7696
 30
0.0
 40
0.0104167
 41
0.0104167
  0
VERTEX
  8
0
 10
8.79676
 20
18.7696
 30
0.0
 40
0.0104167
 41
0.0104167
  0
VERTEX
  8
0
 10
8.79676
 20
20.8981
 30
0.0
 40
0.0104167
 41
0.0104167
  0
SEQEND
 8
0
  0
POLYLINE
  8
0
 62
     0
 66
     1
 10
0
 20
0
 30
0.0
 70
     1
 40
0.75
 41
0.75
  0
VERTEX
  8
0
 10
8.79676
 20
18.1543
 30
0.0
 40
0.0104167
 41
0.0104167
  0
VERTEX
  8
0
 10
12.9798
 20
18.1543
 30
0.0
 40
0.0104167
 41
0.0104167
  0
VERTEX
  8
0
 10
12.9798
 20
16.026
 30
0.0
 40
0.0104167
 41
0.0104167
  0
VERTEX
  8
0
 10
8.79676
 20
16.026
 30
0.0
 40
0.0104167
 41
0.0104167
  0
VERTEX
  8
0
 10
8.79676
 20
18.1543
 30
0.0
 40
0.0104167
 41
0.0104167
  0
SEQEND
 8
0
  0
POLYLINE
  8
0
 62
     0
 66
     1
 10
0
 20
0
 30
0.0
 70
     1
 40
0.75
 41
0.75
  0
VERTEX
  8
0
 10
8.79676
 20
15.4108
 30
0.0
 40
0.0104167
 41
0.0104167
  0
VERTEX
  8
0
 10
12.9798
 20
15.4108
 30
0.0
 40
0.0104167
 41
0.0104167
  0
VERTEX
  8
0
 10
12.9798
 20
13.2824
 30
0.0
 40
0.0104167
 41
0.0104167
  0
VERTEX
  8
0
 10
8.79676
 20
13.2824
 30
0.0
 40
0.0104167
 41
0.0104167
  0
VERTEX
  8
0
 10
8.79676
 20
15.4108
 30
0.0
 40
0.0104167
 41
0.0104167
  0
SEQEND
 8
0
  0
POLYLINE
  8
0
 62
     0
 66
     1
 10
0
 20
0
 30
0.0
 70
     1
 40
0.75
 41
0.75
  0
VERTEX
  8
0
 10
8.79676
 20
12.6672
 30
0.0
 40
0.0104167
 41
0.0104167
  0
VERTEX
  8
0
 10
12.9798
 20
12.6672
 30
0.0
 40
0.0104167
 41
0.0104167
  0
VERTEX
  8
0
 10
12.9798
 20
10.5387
 30
0.0
 40
0.0104167
 41
0.0104167
  0
VERTEX
  8
0
 10
8.79676
 20
10.5387
 30
0.0
 40
0.0104167
 41
0.0104167
  0
VERTEX
  8
0
 10
8.79676
 20
12.6672
 30
0.0
 40
0.0104167
 41
0.0104167
  0
SEQEND
 8
0
  0
POLYLINE
  8
0
 62
     0
 66
     1
 10
0
 20
0
 30
0.0
 70
     1
 40
0.75
 41
0.75
  0
VERTEX
  8
0
 10
8.79676
 20
9.9235
 30
0.0
 40
0.0104167
 41
0.0104167
  0
VERTEX
  8
0
 10
12.9798
 20
9.9235
 30
0.0
 40
0.0104167
 41
0.0104167
  0
VERTEX
  8
0
 10
12.9798
 20
7.79508
 30
0.0
 40
0.0104167
 41
0.0104167
  0
VERTEX
  8
0
 10
8.79676
 20
7.79508
 30
0.0
 40
0.0104167
 41
0.0104167
  0
VERTEX
  8
0
 10
8.79676
 20
9.9235
 30
0.0
 40
0.0104167
 41
0.0104167
  0
SEQEND
 8
0
  0
POLYLINE
  8
0
 62
     0
 66
     1
 10
0
 20
0
 30
0.0
 70
     1
 40
0.75
 41
0.75
  0
VERTEX
  8
0
 10
8.79676
 20
7.17996
 30
0.0
 40
0.0104167
 41
0.0104167
  0
VERTEX
  8
0
 10
12.9798
 20
7.17996
 30
0.0
 40
0.0104167
 41
0.0104167
  0
VERTEX
  8
0
 10
12.9798
 20
5.05154
 30
0.0
 40
0.0104167
 41
0.0104167
  0
VERTEX
  8
0
 10
8.79676
 20
5.05154
 30
0.0
 40
0.0104167
 41
0.0104167
  0
VERTEX
  8
0
 10
8.79676
 20
7.17996
 30
0.0
 40
0.0104167
 41
0.0104167
  0
SEQEND
 8
0
  0
POLYLINE
  8
0
 62
     0
 66
     1
 10
0
 20
0
 30
0.0
 70
     1
 40
0.75
 41
0.75
  0
VERTEX
  8
0
 10
13.595
 20
26.3851
 30
0.0
 40
0.0104167
 41
0.0104167
  0
VERTEX
  8
0
 10
17.7781
 20
26.3851
 30
0.0
 40
0.0104167
 41
0.0104167
  0
VERTEX
  8
0
 10
17.7781
 20
24.2567
 30
0.0
 40
0.0104167
 41
0.0104167
  0
VERTEX
  8
0
 10
13.595
 20
24.2567
 30
0.0
 40
0.0104167
 41
0.0104167
  0
VERTEX
  8
0
 10
13.595
 20
26.3851
 30
0.0
 40
0.0104167
 41
0.0104167
  0
SEQEND
 8
0
  0
POLYLINE
  8
0
 62
     0
 66
     1
 10
0
 20
0
 30
0.0
 70
     1
 40
0.75
 41
0.75
  0
VERTEX
  8
0
 10
13.595
 20
29.1288
 30
0.0
 40
0.0104167
 41
0.0104167
  0
VERTEX
  8
0
 10
17.7781
 20
29.1288
 30
0.0
 40
0.0104167
 41
0.0104167
  0
VERTEX
  8
0
 10
17.7781
 20
27.0003
 30
0.0
 40
0.0104167
 41
0.0104167
  0
VERTEX
  8
0
 10
13.595
 20
27.0003
 30
0.0
 40
0.0104167
 41
0.0104167
  0
VERTEX
  8
0
 10
13.595
 20
29.1288
 30
0.0
 40
0.0104167
 41
0.0104167
  0
SEQEND
 8
0
  0
POLYLINE
  8
0
 62
     0
 66
     1
 10
0
 20
0
 30
0.0
 70
     1
 40
0.75
 41
0.75
  0
VERTEX
  8
0
 10
13.595
 20
31.8724
 30
0.0
 40
0.0104167
 41
0.0104167
  0
VERTEX
  8
0
 10
17.7781
 20
31.8724
 30
0.0
 40
0.0104167
 41
0.0104167
  0
VERTEX
  8
0
 10
17.7781
 20
29.7439
 30
0.0
 40
0.0104167
 41
0.0104167
  0
VERTEX
  8
0
 10
13.595
 20
29.7439
 30
0.0
 40
0.0104167
 41
0.0104167
  0
VERTEX
  8
0
 10
13.595
 20
31.8724
 30
0.0
 40
0.0104167
 41
0.0104167
  0
SEQEND
 8
0
  0
POLYLINE
  8
0
 62
     0
 66
     1
 10
0
 20
0
 30
0.0
 70
     1
 40
0.75
 41
0.75
  0
VERTEX
  8
0
 10
13.595
 20
23.6415
 30
0.0
 40
0.0104167
 41
0.0104167
  0
VERTEX
  8
0
 10
17.7781
 20
23.6415
 30
0.0
 40
0.0104167
 41
0.0104167
  0
VERTEX
  8
0
 10
17.7781
 20
21.5132
 30
0.0
 40
0.0104167
 41
0.0104167
  0
VERTEX
  8
0
 10
13.595
 20
21.5132
 30
0.0
 40
0.0104167
 41
0.0104167
  0
VERTEX
  8
0
 10
13.595
 20
23.6415
 30
0.0
 40
0.0104167
 41
0.0104167
  0
SEQEND
 8
0
  0
POLYLINE
  8
0
 62
     0
 66
     1
 10
0
 20
0
 30
0.0
 70
     1
 40
0.75
 41
0.75
  0
VERTEX
  8
0
 10
13.595
 20
20.8981
 30
0.0
 40
0.0104167
 41
0.0104167
  0
VERTEX
  8
0
 10
17.7781
 20
20.8981
 30
0.0
 40
0.0104167
 41
0.0104167
  0
VERTEX
  8
0
 10
17.7781
 20
18.7696
 30
0.0
 40
0.0104167
 41
0.0104167
  0
VERTEX
  8
0
 10
13.595
 20
18.7696
 30
0.0
 40
0.0104167
 41
0.0104167
  0
VERTEX
  8
0
 10
13.595
 20
20.8981
 30
0.0
 40
0.0104167
 41
0.0104167
  0
SEQEND
 8
0
  0
POLYLINE
  8
0
 62
     0
 66
     1
 10
0
 20
0
 30
0.0
 70
     1
 40
0.75
 41
0.75
  0
VERTEX
  8
0
 10
13.595
 20
18.1543
 30
0.0
 40
0.0104167
 41
0.0104167
  0
VERTEX
  8
0
 10
17.7781
 20
18.1543
 30
0.0
 40
0.0104167
 41
0.0104167
  0
VERTEX
  8
0
 10
17.7781
 20
16.026
 30
0.0
 40
0.0104167
 41
0.0104167
  0
VERTEX
  8
0
 10
13.595
 20
16.026
 30
0.0
 40
0.0104167
 41
0.0104167
  0
VERTEX
  8
0
 10
13.595
 20
18.1543
 30
0.0
 40
0.0104167
 41
0.0104167
  0
SEQEND
 8
0
  0
POLYLINE
  8
0
 62
     0
 66
     1
 10
0
 20
0
 30
0.0
 70
     1
 40
0.75
 41
0.75
  0
VERTEX
  8
0
 10
13.595
 20
15.4108
 30
0.0
 40
0.0104167
 41
0.0104167
  0
VERTEX
  8
0
 10
17.7781
 20
15.4108
 30
0.0
 40
0.0104167
 41
0.0104167
  0
VERTEX
  8
0
 10
17.7781
 20
13.2824
 30
0.0
 40
0.0104167
 41
0.0104167
  0
VERTEX
  8
0
 10
13.595
 20
13.2824
 30
0.0
 40
0.0104167
 41
0.0104167
  0
VERTEX
  8
0
 10
13.595
 20
15.4108
 30
0.0
 40
0.0104167
 41
0.0104167
  0
SEQEND
 8
0
  0
POLYLINE
  8
0
 62
     0
 66
     1
 10
0
 20
0
 30
0.0
 70
     1
 40
0.75
 41
0.75
  0
VERTEX
  8
0
 10
13.595
 20
12.6672
 30
0.0
 40
0.0104167
 41
0.0104167
  0
VERTEX
  8
0
 10
17.7781
 20
12.6672
 30
0.0
 40
0.0104167
 41
0.0104167
  0
VERTEX
  8
0
 10
17.7781
 20
10.5387
 30
0.0
 40
0.0104167
 41
0.0104167
  0
VERTEX
  8
0
 10
13.595
 20
10.5387
 30
0.0
 40
0.0104167
 41
0.0104167
  0
VERTEX
  8
0
 10
13.595
 20
12.6672
 30
0.0
 40
0.0104167
 41
0.0104167
  0
SEQEND
 8
0
  0
POLYLINE
  8
0
 62
     0
 66
     1
 10
0
 20
0
 30
0.0
 70
     1
 40
0.75
 41
0.75
  0
VERTEX
  8
0
 10
13.595
 20
9.9235
 30
0.0
 40
0.0104167
 41
0.0104167
  0
VERTEX
  8
0
 10
17.7781
 20
9.9235
 30
0.0
 40
0.0104167
 41
0.0104167
  0
VERTEX
  8
0
 10
17.7781
 20
7.79508
 30
0.0
 40
0.0104167
 41
0.0104167
  0
VERTEX
  8
0
 10
13.595
 20
7.79508
 30
0.0
 40
0.0104167
 41
0.0104167
  0
VERTEX
  8
0
 10
13.595
 20
9.9235
 30
0.0
 40
0.0104167
 41
0.0104167
  0
SEQEND
 8
0
  0
POLYLINE
  8
0
 62
     0
 66
     1
 10
0
 20
0
 30
0.0
 70
     1
 40
0.75
 41
0.75
  0
VERTEX
  8
0
 10
13.595
 20
7.17996
 30
0.0
 40
0.0104167
 41
0.0104167
  0
VERTEX
  8
0
 10
17.7781
 20
7.17996
 30
0.0
 40
0.0104167
 41
0.0104167
  0
VERTEX
  8
0
 10
17.7781
 20
5.05154
 30
0.0
 40
0.0104167
 41
0.0104167
  0
VERTEX
  8
0
 10
13.595
 20
5.05154
 30
0.0
 40
0.0104167
 41
0.0104167
  0
VERTEX
  8
0
 10
13.595
 20
7.17996
 30
0.0
 40
0.0104167
 41
0.0104167
  0
SEQEND
 8
0
  0
POLYLINE
  8
0
 62
     0
 66
     1
 10
0
 20
0
 30
0.0
 70
     1
 40
0.75
 41
0.75
  0
VERTEX
  8
0
 10
18.3932
 20
26.3851
 30
0.0
 40
0.0104167
 41
0.0104167
  0
VERTEX
  8
0
 10
22.5763
 20
26.3851
 30
0.0
 40
0.0104167
 41
0.0104167
  0
VERTEX
  8
0
 10
22.5763
 20
24.2567
 30
0.0
 40
0.0104167
 41
0.0104167
  0
VERTEX
  8
0
 10
18.3932
 20
24.2567
 30
0.0
 40
0.0104167
 41
0.0104167
  0
VERTEX
  8
0
 10
18.3932
 20
26.3851
 30
0.0
 40
0.0104167
 41
0.0104167
  0
SEQEND
 8
0
  0
POLYLINE
  8
0
 62
     0
 66
     1
 10
0
 20
0
 30
0.0
 70
     1
 40
0.75
 41
0.75
  0
VERTEX
  8
0
 10
18.3932
 20
29.1288
 30
0.0
 40
0.0104167
 41
0.0104167
  0
VERTEX
  8
0
 10
22.5763
 20
29.1288
 30
0.0
 40
0.0104167
 41
0.0104167
  0
VERTEX
  8
0
 10
22.5763
 20
27.0003
 30
0.0
 40
0.0104167
 41
0.0104167
  0
VERTEX
  8
0
 10
18.3932
 20
27.0003
 30
0.0
 40
0.0104167
 41
0.0104167
  0
VERTEX
  8
0
 10
18.3932
 20
29.1288
 30
0.0
 40
0.0104167
 41
0.0104167
  0
SEQEND
 8
0
  0
POLYLINE
  8
0
 62
     0
 66
     1
 10
0
 20
0
 30
0.0
 70
     1
 40
0.75
 41
0.75
  0
VERTEX
  8
0
 10
18.3932
 20
31.8724
 30
0.0
 40
0.0104167
 41
0.0104167
  0
VERTEX
  8
0
 10
22.5763
 20
31.8724
 30
0.0
 40
0.0104167
 41
0.0104167
  0
VERTEX
  8
0
 10
22.5763
 20
29.7439
 30
0.0
 40
0.0104167
 41
0.0104167
  0
VERTEX
  8
0
 10
18.3932
 20
29.7439
 30
0.0
 40
0.0104167
 41
0.0104167
  0
VERTEX
  8
0
 10
18.3932
 20
31.8724
 30
0.0
 40
0.0104167
 41
0.0104167
  0
SEQEND
 8
0
  0
POLYLINE
  8
0
 62
     0
 66
     1
 10
0
 20
0
 30
0.0
 70
     1
 40
0.75
 41
0.75
  0
VERTEX
  8
0
 10
18.3932
 20
23.6415
 30
0.0
 40
0.0104167
 41
0.0104167
  0
VERTEX
  8
0
 10
22.5763
 20
23.6415
 30
0.0
 40
0.0104167
 41
0.0104167
  0
VERTEX
  8
0
 10
22.5763
 20
21.5132
 30
0.0
 40
0.0104167
 41
0.0104167
  0
VERTEX
  8
0
 10
18.3932
 20
21.5132
 30
0.0
 40
0.0104167
 41
0.0104167
  0
VERTEX
  8
0
 10
18.3932
 20
23.6415
 30
0.0
 40
0.0104167
 41
0.0104167
  0
SEQEND
 8
0
  0
POLYLINE
  8
0
 62
     0
 66
     1
 10
0
 20
0
 30
0.0
 70
     1
 40
0.75
 41
0.75
  0
VERTEX
  8
0
 10
18.3932
 20
20.8981
 30
0.0
 40
0.0104167
 41
0.0104167
  0
VERTEX
  8
0
 10
22.5763
 20
20.8981
 30
0.0
 40
0.0104167
 41
0.0104167
  0
VERTEX
  8
0
 10
22.5763
 20
18.7696
 30
0.0
 40
0.0104167
 41
0.0104167
  0
VERTEX
  8
0
 10
18.3932
 20
18.7696
 30
0.0
 40
0.0104167
 41
0.0104167
  0
VERTEX
  8
0
 10
18.3932
 20
20.8981
 30
0.0
 40
0.0104167
 41
0.0104167
  0
SEQEND
 8
0
  0
POLYLINE
  8
0
 62
     0
 66
     1
 10
0
 20
0
 30
0.0
 70
     1
 40
0.75
 41
0.75
  0
VERTEX
  8
0
 10
18.3932
 20
18.1543
 30
0.0
 40
0.0104167
 41
0.0104167
  0
VERTEX
  8
0
 10
22.5763
 20
18.1543
 30
0.0
 40
0.0104167
 41
0.0104167
  0
VERTEX
  8
0
 10
22.5763
 20
16.026
 30
0.0
 40
0.0104167
 41
0.0104167
  0
VERTEX
  8
0
 10
18.3932
 20
16.026
 30
0.0
 40
0.0104167
 41
0.0104167
  0
VERTEX
  8
0
 10
18.3932
 20
18.1543
 30
0.0
 40
0.0104167
 41
0.0104167
  0
SEQEND
 8
0
  0
POLYLINE
  8
0
 62
     0
 66
     1
 10
0
 20
0
 30
0.0
 70
     1
 40
0.75
 41
0.75
  0
VERTEX
  8
0
 10
18.3932
 20
15.4108
 30
0.0
 40
0.0104167
 41
0.0104167
  0
VERTEX
  8
0
 10
22.5763
 20
15.4108
 30
0.0
 40
0.0104167
 41
0.0104167
  0
VERTEX
  8
0
 10
22.5763
 20
13.2824
 30
0.0
 40
0.0104167
 41
0.0104167
  0
VERTEX
  8
0
 10
18.3932
 20
13.2824
 30
0.0
 40
0.0104167
 41
0.0104167
  0
VERTEX
  8
0
 10
18.3932
 20
15.4108
 30
0.0
 40
0.0104167
 41
0.0104167
  0
SEQEND
 8
0
  0
POLYLINE
  8
0
 62
     0
 66
     1
 10
0
 20
0
 30
0.0
 70
     1
 40
0.75
 41
0.75
  0
VERTEX
  8
0
 10
18.3932
 20
12.6672
 30
0.0
 40
0.0104167
 41
0.0104167
  0
VERTEX
  8
0
 10
22.5763
 20
12.6672
 30
0.0
 40
0.0104167
 41
0.0104167
  0
VERTEX
  8
0
 10
22.5763
 20
10.5387
 30
0.0
 40
0.0104167
 41
0.0104167
  0
VERTEX
  8
0
 10
18.3932
 20
10.5387
 30
0.0
 40
0.0104167
 41
0.0104167
  0
VERTEX
  8
0
 10
18.3932
 20
12.6672
 30
0.0
 40
0.0104167
 41
0.0104167
  0
SEQEND
 8
0
  0
POLYLINE
  8
0
 62
     0
 66
     1
 10
0
 20
0
 30
0.0
 70
     1
 40
0.75
 41
0.75
  0
VERTEX
  8
0
 10
18.3932
 20
9.9235
 30
0.0
 40
0.0104167
 41
0.0104167
  0
VERTEX
  8
0
 10
22.5763
 20
9.9235
 30
0.0
 40
0.0104167
 41
0.0104167
  0
VERTEX
  8
0
 10
22.5763
 20
7.79508
 30
0.0
 40
0.0104167
 41
0.0104167
  0
VERTEX
  8
0
 10
18.3932
 20
7.79508
 30
0.0
 40
0.0104167
 41
0.0104167
  0
VERTEX
  8
0
 10
18.3932
 20
9.9235
 30
0.0
 40
0.0104167
 41
0.0104167
  0
SEQEND
 8
0
  0
POLYLINE
  8
0
 62
     0
 66
     1
 10
0
 20
0
 30
0.0
 70
     1
 40
0.75
 41
0.75
  0
VERTEX
  8
0
 10
18.3932
 20
7.17996
 30
0.0
 40
0.0104167
 41
0.0104167
  0
VERTEX
  8
0
 10
22.5763
 20
7.17996
 30
0.0
 40
0.0104167
 41
0.0104167
  0
VERTEX
  8
0
 10
22.5763
 20
5.05154
 30
0.0
 40
0.0104167
 41
0.0104167
  0
VERTEX
  8
0
 10
18.3932
 20
5.05154
 30
0.0
 40
0.0104167
 41
0.0104167
  0
VERTEX
  8
0
 10
18.3932
 20
7.17996
 30
0.0
 40
0.0104167
 41
0.0104167
  0
SEQEND
 8
0
  0
POLYLINE
  8
0
 62
     0
 66
     1
 10
0
 20
0
 30
0.0
 70
     1
 40
0.75
 41
0.75
  0
VERTEX
  8
0
 10
23.1915
 20
26.3851
 30
0.0
 40
0.0104167
 41
0.0104167
  0
VERTEX
  8
0
 10
27.3744
 20
26.3851
 30
0.0
 40
0.0104167
 41
0.0104167
  0
VERTEX
  8
0
 10
27.3744
 20
24.2567
 30
0.0
 40
0.0104167
 41
0.0104167
  0
VERTEX
  8
0
 10
23.1915
 20
24.2567
 30
0.0
 40
0.0104167
 41
0.0104167
  0
VERTEX
  8
0
 10
23.1915
 20
26.3851
 30
0.0
 40
0.0104167
 41
0.0104167
  0
SEQEND
 8
0
  0
POLYLINE
  8
0
 62
     0
 66
     1
 10
0
 20
0
 30
0.0
 70
     1
 40
0.75
 41
0.75
  0
VERTEX
  8
0
 10
23.1915
 20
29.1288
 30
0.0
 40
0.0104167
 41
0.0104167
  0
VERTEX
  8
0
 10
27.3744
 20
29.1288
 30
0.0
 40
0.0104167
 41
0.0104167
  0
VERTEX
  8
0
 10
27.3744
 20
27.0003
 30
0.0
 40
0.0104167
 41
0.0104167
  0
VERTEX
  8
0
 10
23.1915
 20
27.0003
 30
0.0
 40
0.0104167
 41
0.0104167
  0
VERTEX
  8
0
 10
23.1915
 20
29.1288
 30
0.0
 40
0.0104167
 41
0.0104167
  0
SEQEND
 8
0
  0
POLYLINE
  8
0
 62
     0
 66
     1
 10
0
 20
0
 30
0.0
 70
     1
 40
0.75
 41
0.75
  0
VERTEX
  8
0
 10
23.1915
 20
31.8724
 30
0.0
 40
0.0104167
 41
0.0104167
  0
VERTEX
  8
0
 10
27.3744
 20
31.8724
 30
0.0
 40
0.0104167
 41
0.0104167
  0
VERTEX
  8
0
 10
27.3744
 20
29.7439
 30
0.0
 40
0.0104167
 41
0.0104167
  0
VERTEX
  8
0
 10
23.1915
 20
29.7439
 30
0.0
 40
0.0104167
 41
0.0104167
  0
VERTEX
  8
0
 10
23.1915
 20
31.8724
 30
0.0
 40
0.0104167
 41
0.0104167
  0
SEQEND
 8
0
  0
POLYLINE
  8
0
 62
     0
 66
     1
 10
0
 20
0
 30
0.0
 70
     1
 40
0.75
 41
0.75
  0
VERTEX
  8
0
 10
23.1915
 20
23.6415
 30
0.0
 40
0.0104167
 41
0.0104167
  0
VERTEX
  8
0
 10
27.3744
 20
23.6415
 30
0.0
 40
0.0104167
 41
0.0104167
  0
VERTEX
  8
0
 10
27.3744
 20
21.5132
 30
0.0
 40
0.0104167
 41
0.0104167
  0
VERTEX
  8
0
 10
23.1915
 20
21.5132
 30
0.0
 40
0.0104167
 41
0.0104167
  0
VERTEX
  8
0
 10
23.1915
 20
23.6415
 30
0.0
 40
0.0104167
 41
0.0104167
  0
SEQEND
 8
0
  0
POLYLINE
  8
0
 62
     0
 66
     1
 10
0
 20
0
 30
0.0
 70
     1
 40
0.75
 41
0.75
  0
VERTEX
  8
0
 10
23.1915
 20
20.8981
 30
0.0
 40
0.0104167
 41
0.0104167
  0
VERTEX
  8
0
 10
27.3744
 20
20.8981
 30
0.0
 40
0.0104167
 41
0.0104167
  0
VERTEX
  8
0
 10
27.3744
 20
18.7696
 30
0.0
 40
0.0104167
 41
0.0104167
  0
VERTEX
  8
0
 10
23.1915
 20
18.7696
 30
0.0
 40
0.0104167
 41
0.0104167
  0
VERTEX
  8
0
 10
23.1915
 20
20.8981
 30
0.0
 40
0.0104167
 41
0.0104167
  0
SEQEND
 8
0
  0
POLYLINE
  8
0
 62
     0
 66
     1
 10
0
 20
0
 30
0.0
 70
     1
 40
0.75
 41
0.75
  0
VERTEX
  8
0
 10
23.1915
 20
18.1543
 30
0.0
 40
0.0104167
 41
0.0104167
  0
VERTEX
  8
0
 10
27.3744
 20
18.1543
 30
0.0
 40
0.0104167
 41
0.0104167
  0
VERTEX
  8
0
 10
27.3744
 20
16.026
 30
0.0
 40
0.0104167
 41
0.0104167
  0
VERTEX
  8
0
 10
23.1915
 20
16.026
 30
0.0
 40
0.0104167
 41
0.0104167
  0
VERTEX
  8
0
 10
23.1915
 20
18.1543
 30
0.0
 40
0.0104167
 41
0.0104167
  0
SEQEND
 8
0
  0
POLYLINE
  8
0
 62
     0
 66
     1
 10
0
 20
0
 30
0.0
 70
     1
 40
0.75
 41
0.75
  0
VERTEX
  8
0
 10
23.1915
 20
15.4108
 30
0.0
 40
0.0104167
 41
0.0104167
  0
VERTEX
  8
0
 10
27.3744
 20
15.4108
 30
0.0
 40
0.0104167
 41
0.0104167
  0
VERTEX
  8
0
 10
27.3744
 20
13.2824
 30
0.0
 40
0.0104167
 41
0.0104167
  0
VERTEX
  8
0
 10
23.1915
 20
13.2824
 30
0.0
 40
0.0104167
 41
0.0104167
  0
VERTEX
  8
0
 10
23.1915
 20
15.4108
 30
0.0
 40
0.0104167
 41
0.0104167
  0
SEQEND
 8
0
  0
POLYLINE
  8
0
 62
     0
 66
     1
 10
0
 20
0
 30
0.0
 70
     1
 40
0.75
 41
0.75
  0
VERTEX
  8
0
 10
23.1915
 20
12.6672
 30
0.0
 40
0.0104167
 41
0.0104167
  0
VERTEX
  8
0
 10
27.3744
 20
12.6672
 30
0.0
 40
0.0104167
 41
0.0104167
  0
VERTEX
  8
0
 10
27.3744
 20
10.5387
 30
0.0
 40
0.0104167
 41
0.0104167
  0
VERTEX
  8
0
 10
23.1915
 20
10.5387
 30
0.0
 40
0.0104167
 41
0.0104167
  0
VERTEX
  8
0
 10
23.1915
 20
12.6672
 30
0.0
 40
0.0104167
 41
0.0104167
  0
SEQEND
 8
0
  0
POLYLINE
  8
0
 62
     0
 66
     1
 10
0
 20
0
 30
0.0
 70
     1
 40
0.75
 41
0.75
  0
VERTEX
  8
0
 10
23.1915
 20
9.9235
 30
0.0
 40
0.0104167
 41
0.0104167
  0
VERTEX
  8
0
 10
27.3744
 20
9.9235
 30
0.0
 40
0.0104167
 41
0.0104167
  0
VERTEX
  8
0
 10
27.3744
 20
7.79508
 30
0.0
 40
0.0104167
 41
0.0104167
  0
VERTEX
  8
0
 10
23.1915
 20
7.79508
 30
0.0
 40
0.0104167
 41
0.0104167
  0
VERTEX
  8
0
 10
23.1915
 20
9.9235
 30
0.0
 40
0.0104167
 41
0.0104167
  0
SEQEND
 8
0
  0
POLYLINE
  8
0
 62
     0
 66
     1
 10
0
 20
0
 30
0.0
 70
     1
 40
0.75
 41
0.75
  0
VERTEX
  8
0
 10
23.1915
 20
7.17996
 30
0.0
 40
0.0104167
 41
0.0104167
  0
VERTEX
  8
0
 10
27.3744
 20
7.17996
 30
0.0
 40
0.0104167
 41
0.0104167
  0
VERTEX
  8
0
 10
27.3744
 20
5.05154
 30
0.0
 40
0.0104167
 41
0.0104167
  0
VERTEX
  8
0
 10
23.1915
 20
5.05154
 30
0.0
 40
0.0104167
 41
0.0104167
  0
VERTEX
  8
0
 10
23.1915
 20
7.17996
 30
0.0
 40
0.0104167
 41
0.0104167
  0
SEQEND
 8
0
  0
POLYLINE
  8
0
 62
     0
 66
     1
 10
0
 20
0
 30
0.0
 70
     1
 40
0.75
 41
0.75
  0
VERTEX
  8
0
 10
27.9897
 20
26.3851
 30
0.0
 40
0.0104167
 41
0.0104167
  0
VERTEX
  8
0
 10
32.1728
 20
26.3851
 30
0.0
 40
0.0104167
 41
0.0104167
  0
VERTEX
  8
0
 10
32.1728
 20
24.2567
 30
0.0
 40
0.0104167
 41
0.0104167
  0
VERTEX
  8
0
 10
27.9897
 20
24.2567
 30
0.0
 40
0.0104167
 41
0.0104167
  0
VERTEX
  8
0
 10
27.9897
 20
26.3851
 30
0.0
 40
0.0104167
 41
0.0104167
  0
SEQEND
 8
0
  0
POLYLINE
  8
0
 62
     0
 66
     1
 10
0
 20
0
 30
0.0
 70
     1
 40
0.75
 41
0.75
  0
VERTEX
  8
0
 10
27.9897
 20
29.1288
 30
0.0
 40
0.0104167
 41
0.0104167
  0
VERTEX
  8
0
 10
32.1728
 20
29.1288
 30
0.0
 40
0.0104167
 41
0.0104167
  0
VERTEX
  8
0
 10
32.1728
 20
27.0003
 30
0.0
 40
0.0104167
 41
0.0104167
  0
VERTEX
  8
0
 10
27.9897
 20
27.0003
 30
0.0
 40
0.0104167
 41
0.0104167
  0
VERTEX
  8
0
 10
27.9897
 20
29.1288
 30
0.0
 40
0.0104167
 41
0.0104167
  0
SEQEND
 8
0
  0
POLYLINE
  8
0
 62
     0
 66
     1
 10
0
 20
0
 30
0.0
 70
     1
 40
0.75
 41
0.75
  0
VERTEX
  8
0
 10
27.9897
 20
31.8724
 30
0.0
 40
0.0104167
 41
0.0104167
  0
VERTEX
  8
0
 10
32.1728
 20
31.8724
 30
0.0
 40
0.0104167
 41
0.0104167
  0
VERTEX
  8
0
 10
32.1728
 20
29.7439
 30
0.0
 40
0.0104167
 41
0.0104167
  0
VERTEX
  8
0
 10
27.9897
 20
29.7439
 30
0.0
 40
0.0104167
 41
0.0104167
  0
VERTEX
  8
0
 10
27.9897
 20
31.8724
 30
0.0
 40
0.0104167
 41
0.0104167
  0
SEQEND
 8
0
  0
POLYLINE
  8
0
 62
     0
 66
     1
 10
0
 20
0
 30
0.0
 70
     1
 40
0.75
 41
0.75
  0
VERTEX
  8
0
 10
27.9897
 20
23.6415
 30
0.0
 40
0.0104167
 41
0.0104167
  0
VERTEX
  8
0
 10
32.1728
 20
23.6415
 30
0.0
 40
0.0104167
 41
0.0104167
  0
VERTEX
  8
0
 10
32.1728
 20
21.5132
 30
0.0
 40
0.0104167
 41
0.0104167
  0
VERTEX
  8
0
 10
27.9897
 20
21.5132
 30
0.0
 40
0.0104167
 41
0.0104167
  0
VERTEX
  8
0
 10
27.9897
 20
23.6415
 30
0.0
 40
0.0104167
 41
0.0104167
  0
SEQEND
 8
0
  0
POLYLINE
  8
0
 62
     0
 66
     1
 10
0
 20
0
 30
0.0
 70
     1
 40
0.75
 41
0.75
  0
VERTEX
  8
0
 10
27.9897
 20
20.8981
 30
0.0
 40
0.0104167
 41
0.0104167
  0
VERTEX
  8
0
 10
32.1728
 20
20.8981
 30
0.0
 40
0.0104167
 41
0.0104167
  0
VERTEX
  8
0
 10
32.1728
 20
18.7696
 30
0.0
 40
0.0104167
 41
0.0104167
  0
VERTEX
  8
0
 10
27.9897
 20
18.7696
 30
0.0
 40
0.0104167
 41
0.0104167
  0
VERTEX
  8
0
 10
27.9897
 20
20.8981
 30
0.0
 40
0.0104167
 41
0.0104167
  0
SEQEND
 8
0
  0
POLYLINE
  8
0
 62
     0
 66
     1
 10
0
 20
0
 30
0.0
 70
     1
 40
0.75
 41
0.75
  0
VERTEX
  8
0
 10
27.9897
 20
18.1543
 30
0.0
 40
0.0104167
 41
0.0104167
  0
VERTEX
  8
0
 10
32.1728
 20
18.1543
 30
0.0
 40
0.0104167
 41
0.0104167
  0
VERTEX
  8
0
 10
32.1728
 20
16.026
 30
0.0
 40
0.0104167
 41
0.0104167
  0
VERTEX
  8
0
 10
27.9897
 20
16.026
 30
0.0
 40
0.0104167
 41
0.0104167
  0
VERTEX
  8
0
 10
27.9897
 20
18.1543
 30
0.0
 40
0.0104167
 41
0.0104167
  0
SEQEND
 8
0
  0
POLYLINE
  8
0
 62
     0
 66
     1
 10
0
 20
0
 30
0.0
 70
     1
 40
0.75
 41
0.75
  0
VERTEX
  8
0
 10
27.9897
 20
15.4108
 30
0.0
 40
0.0104167
 41
0.0104167
  0
VERTEX
  8
0
 10
32.1728
 20
15.4108
 30
0.0
 40
0.0104167
 41
0.0104167
  0
VERTEX
  8
0
 10
32.1728
 20
13.2824
 30
0.0
 40
0.0104167
 41
0.0104167
  0
VERTEX
  8
0
 10
27.9897
 20
13.2824
 30
0.0
 40
0.0104167
 41
0.0104167
  0
VERTEX
  8
0
 10
27.9897
 20
15.4108
 30
0.0
 40
0.0104167
 41
0.0104167
  0
SEQEND
 8
0
  0
POLYLINE
  8
0
 62
     0
 66
     1
 10
0
 20
0
 30
0.0
 70
     1
 40
0.75
 41
0.75
  0
VERTEX
  8
0
 10
27.9897
 20
12.6672
 30
0.0
 40
0.0104167
 41
0.0104167
  0
VERTEX
  8
0
 10
32.1728
 20
12.6672
 30
0.0
 40
0.0104167
 41
0.0104167
  0
VERTEX
  8
0
 10
32.1728
 20
10.5387
 30
0.0
 40
0.0104167
 41
0.0104167
  0
VERTEX
  8
0
 10
27.9897
 20
10.5387
 30
0.0
 40
0.0104167
 41
0.0104167
  0
VERTEX
  8
0
 10
27.9897
 20
12.6672
 30
0.0
 40
0.0104167
 41
0.0104167
  0
SEQEND
 8
0
  0
POLYLINE
  8
0
 62
     0
 66
     1
 10
0
 20
0
 30
0.0
 70
     1
 40
0.75
 41
0.75
  0
VERTEX
  8
0
 10
27.9897
 20
9.9235
 30
0.0
 40
0.0104167
 41
0.0104167
  0
VERTEX
  8
0
 10
32.1728
 20
9.9235
 30
0.0
 40
0.0104167
 41
0.0104167
  0
VERTEX
  8
0
 10
32.1728
 20
7.79508
 30
0.0
 40
0.0104167
 41
0.0104167
  0
VERTEX
  8
0
 10
27.9897
 20
7.79508
 30
0.0
 40
0.0104167
 41
0.0104167
  0
VERTEX
  8
0
 10
27.9897
 20
9.9235
 30
0.0
 40
0.0104167
 41
0.0104167
  0
SEQEND
 8
0
  0
POLYLINE
  8
0
 62
     0
 66
     1
 10
0
 20
0
 30
0.0
 70
     1
 40
0.75
 41
0.75
  0
VERTEX
  8
0
 10
27.9897
 20
7.17996
 30
0.0
 40
0.0104167
 41
0.0104167
  0
VERTEX
  8
0
 10
32.1728
 20
7.17996
 30
0.0
 40
0.0104167
 41
0.0104167
  0
VERTEX
  8
0
 10
32.1728
 20
5.05154
 30
0.0
 40
0.0104167
 41
0.0104167
  0
VERTEX
  8
0
 10
27.9897
 20
5.05154
 30
0.0
 40
0.0104167
 41
0.0104167
  0
VERTEX
  8
0
 10
27.9897
 20
7.17996
 30
0.0
 40
0.0104167
 41
0.0104167
  0
SEQEND
 8
0
  0
POLYLINE
  8
0
 62
     0
 66
     1
 10
0
 20
0
 30
0.0
 70
     1
 40
0.75
 41
0.75
  0
VERTEX
  8
0
 10
32.7879
 20
26.3851
 30
0.0
 40
0.0104167
 41
0.0104167
  0
VERTEX
  8
0
 10
36.971
 20
26.3851
 30
0.0
 40
0.0104167
 41
0.0104167
  0
VERTEX
  8
0
 10
36.971
 20
24.2567
 30
0.0
 40
0.0104167
 41
0.0104167
  0
VERTEX
  8
0
 10
32.7879
 20
24.2567
 30
0.0
 40
0.0104167
 41
0.0104167
  0
VERTEX
  8
0
 10
32.7879
 20
26.3851
 30
0.0
 40
0.0104167
 41
0.0104167
  0
SEQEND
 8
0
  0
POLYLINE
  8
0
 62
     0
 66
     1
 10
0
 20
0
 30
0.0
 70
     1
 40
0.75
 41
0.75
  0
VERTEX
  8
0
 10
32.7879
 20
29.1288
 30
0.0
 40
0.0104167
 41
0.0104167
  0
VERTEX
  8
0
 10
36.971
 20
29.1288
 30
0.0
 40
0.0104167
 41
0.0104167
  0
VERTEX
  8
0
 10
36.971
 20
27.0003
 30
0.0
 40
0.0104167
 41
0.0104167
  0
VERTEX
  8
0
 10
32.7879
 20
27.0003
 30
0.0
 40
0.0104167
 41
0.0104167
  0
VERTEX
  8
0
 10
32.7879
 20
29.1288
 30
0.0
 40
0.0104167
 41
0.0104167
  0
SEQEND
 8
0
  0
POLYLINE
  8
0
 62
     0
 66
     1
 10
0
 20
0
 30
0.0
 70
     1
 40
0.75
 41
0.75
  0
VERTEX
  8
0
 10
32.7879
 20
31.8724
 30
0.0
 40
0.0104167
 41
0.0104167
  0
VERTEX
  8
0
 10
36.971
 20
31.8724
 30
0.0
 40
0.0104167
 41
0.0104167
  0
VERTEX
  8
0
 10
36.971
 20
29.7439
 30
0.0
 40
0.0104167
 41
0.0104167
  0
VERTEX
  8
0
 10
32.7879
 20
29.7439
 30
0.0
 40
0.0104167
 41
0.0104167
  0
VERTEX
  8
0
 10
32.7879
 20
31.8724
 30
0.0
 40
0.0104167
 41
0.0104167
  0
SEQEND
 8
0
  0
POLYLINE
  8
0
 62
     0
 66
     1
 10
0
 20
0
 30
0.0
 70
     1
 40
0.75
 41
0.75
  0
VERTEX
  8
0
 10
32.7879
 20
23.6415
 30
0.0
 40
0.0104167
 41
0.0104167
  0
VERTEX
  8
0
 10
36.971
 20
23.6415
 30
0.0
 40
0.0104167
 41
0.0104167
  0
VERTEX
  8
0
 10
36.971
 20
21.5132
 30
0.0
 40
0.0104167
 41
0.0104167
  0
VERTEX
  8
0
 10
32.7879
 20
21.5132
 30
0.0
 40
0.0104167
 41
0.0104167
  0
VERTEX
  8
0
 10
32.7879
 20
23.6415
 30
0.0
 40
0.0104167
 41
0.0104167
  0
SEQEND
 8
0
  0
POLYLINE
  8
0
 62
     0
 66
     1
 10
0
 20
0
 30
0.0
 70
     1
 40
0.75
 41
0.75
  0
VERTEX
  8
0
 10
32.7879
 20
20.8981
 30
0.0
 40
0.0104167
 41
0.0104167
  0
VERTEX
  8
0
 10
36.971
 20
20.8981
 30
0.0
 40
0.0104167
 41
0.0104167
  0
VERTEX
  8
0
 10
36.971
 20
18.7696
 30
0.0
 40
0.0104167
 41
0.0104167
  0
VERTEX
  8
0
 10
32.7879
 20
18.7696
 30
0.0
 40
0.0104167
 41
0.0104167
  0
VERTEX
  8
0
 10
32.7879
 20
20.8981
 30
0.0
 40
0.0104167
 41
0.0104167
  0
SEQEND
 8
0
  0
POLYLINE
  8
0
 62
     0
 66
     1
 10
0
 20
0
 30
0.0
 70
     1
 40
0.75
 41
0.75
  0
VERTEX
  8
0
 10
32.7879
 20
18.1543
 30
0.0
 40
0.0104167
 41
0.0104167
  0
VERTEX
  8
0
 10
36.971
 20
18.1543
 30
0.0
 40
0.0104167
 41
0.0104167
  0
VERTEX
  8
0
 10
36.971
 20
16.026
 30
0.0
 40
0.0104167
 41
0.0104167
  0
VERTEX
  8
0
 10
32.7879
 20
16.026
 30
0.0
 40
0.0104167
 41
0.0104167
  0
VERTEX
  8
0
 10
32.7879
 20
18.1543
 30
0.0
 40
0.0104167
 41
0.0104167
  0
SEQEND
 8
0
  0
POLYLINE
  8
0
 62
     0
 66
     1
 10
0
 20
0
 30
0.0
 70
     1
 40
0.75
 41
0.75
  0
VERTEX
  8
0
 10
32.7879
 20
15.4108
 30
0.0
 40
0.0104167
 41
0.0104167
  0
VERTEX
  8
0
 10
36.971
 20
15.4108
 30
0.0
 40
0.0104167
 41
0.0104167
  0
VERTEX
  8
0
 10
36.971
 20
13.2824
 30
0.0
 40
0.0104167
 41
0.0104167
  0
VERTEX
  8
0
 10
32.7879
 20
13.2824
 30
0.0
 40
0.0104167
 41
0.0104167
  0
VERTEX
  8
0
 10
32.7879
 20
15.4108
 30
0.0
 40
0.0104167
 41
0.0104167
  0
SEQEND
 8
0
  0
POLYLINE
  8
0
 62
     0
 66
     1
 10
0
 20
0
 30
0.0
 70
     1
 40
0.75
 41
0.75
  0
VERTEX
  8
0
 10
32.7879
 20
12.6672
 30
0.0
 40
0.0104167
 41
0.0104167
  0
VERTEX
  8
0
 10
36.971
 20
12.6672
 30
0.0
 40
0.0104167
 41
0.0104167
  0
VERTEX
  8
0
 10
36.971
 20
10.5387
 30
0.0
 40
0.0104167
 41
0.0104167
  0
VERTEX
  8
0
 10
32.7879
 20
10.5387
 30
0.0
 40
0.0104167
 41
0.0104167
  0
VERTEX
  8
0
 10
32.7879
 20
12.6672
 30
0.0
 40
0.0104167
 41
0.0104167
  0
SEQEND
 8
0
  0
POLYLINE
  8
0
 62
     0
 66
     1
 10
0
 20
0
 30
0.0
 70
     1
 40
0.75
 41
0.75
  0
VERTEX
  8
0
 10
32.7879
 20
9.9235
 30
0.0
 40
0.0104167
 41
0.0104167
  0
VERTEX
  8
0
 10
36.971
 20
9.9235
 30
0.0
 40
0.0104167
 41
0.0104167
  0
VERTEX
  8
0
 10
36.971
 20
7.79508
 30
0.0
 40
0.0104167
 41
0.0104167
  0
VERTEX
  8
0
 10
32.7879
 20
7.79508
 30
0.0
 40
0.0104167
 41
0.0104167
  0
VERTEX
  8
0
 10
32.7879
 20
9.9235
 30
0.0
 40
0.0104167
 41
0.0104167
  0
SEQEND
 8
0
  0
POLYLINE
  8
0
 62
     0
 66
     1
 10
0
 20
0
 30
0.0
 70
     1
 40
0.75
 41
0.75
  0
VERTEX
  8
0
 10
32.7879
 20
7.17996
 30
0.0
 40
0.0104167
 41
0.0104167
  0
VERTEX
  8
0
 10
36.971
 20
7.17996
 30
0.0
 40
0.0104167
 41
0.0104167
  0
VERTEX
  8
0
 10
36.971
 20
5.05154
 30
0.0
 40
0.0104167
 41
0.0104167
  0
VERTEX
  8
0
 10
32.7879
 20
5.05154
 30
0.0
 40
0.0104167
 41
0.0104167
  0
VERTEX
  8
0
 10
32.7879
 20
7.17996
 30
0.0
 40
0.0104167
 41
0.0104167
  0
SEQEND
 8
0
  0
POLYLINE
  8
0
 62
     0
 66
     1
 10
0
 20
0
 30
0.0
 70
     1
 40
0.75
 41
0.75
  0
VERTEX
  8
0
 10
37.5861
 20
26.3851
 30
0.0
 40
0.0104167
 41
0.0104167
  0
VERTEX
  8
0
 10
41.7692
 20
26.3851
 30
0.0
 40
0.0104167
 41
0.0104167
  0
VERTEX
  8
0
 10
41.7692
 20
24.2567
 30
0.0
 40
0.0104167
 41
0.0104167
  0
VERTEX
  8
0
 10
37.5861
 20
24.2567
 30
0.0
 40
0.0104167
 41
0.0104167
  0
VERTEX
  8
0
 10
37.5861
 20
26.3851
 30
0.0
 40
0.0104167
 41
0.0104167
  0
SEQEND
 8
0
  0
POLYLINE
  8
0
 62
     0
 66
     1
 10
0
 20
0
 30
0.0
 70
     1
 40
0.75
 41
0.75
  0
VERTEX
  8
0
 10
37.5861
 20
29.1288
 30
0.0
 40
0.0104167
 41
0.0104167
  0
VERTEX
  8
0
 10
41.7692
 20
29.1288
 30
0.0
 40
0.0104167
 41
0.0104167
  0
VERTEX
  8
0
 10
41.7692
 20
27.0003
 30
0.0
 40
0.0104167
 41
0.0104167
  0
VERTEX
  8
0
 10
37.5861
 20
27.0003
 30
0.0
 40
0.0104167
 41
0.0104167
  0
VERTEX
  8
0
 10
37.5861
 20
29.1288
 30
0.0
 40
0.0104167
 41
0.0104167
  0
SEQEND
 8
0
  0
POLYLINE
  8
0
 62
     0
 66
     1
 10
0
 20
0
 30
0.0
 70
     1
 40
0.75
 41
0.75
  0
VERTEX
  8
0
 10
37.5861
 20
31.8724
 30
0.0
 40
0.0104167
 41
0.0104167
  0
VERTEX
  8
0
 10
41.7692
 20
31.8724
 30
0.0
 40
0.0104167
 41
0.0104167
  0
VERTEX
  8
0
 10
41.7692
 20
29.7439
 30
0.0
 40
0.0104167
 41
0.0104167
  0
VERTEX
  8
0
 10
37.5861
 20
29.7439
 30
0.0
 40
0.0104167
 41
0.0104167
  0
VERTEX
  8
0
 10
37.5861
 20
31.8724
 30
0.0
 40
0.0104167
 41
0.0104167
  0
SEQEND
 8
0
  0
POLYLINE
  8
0
 62
     0
 66
     1
 10
0
 20
0
 30
0.0
 70
     1
 40
0.75
 41
0.75
  0
VERTEX
  8
0
 10
37.5861
 20
23.6415
 30
0.0
 40
0.0104167
 41
0.0104167
  0
VERTEX
  8
0
 10
41.7692
 20
23.6415
 30
0.0
 40
0.0104167
 41
0.0104167
  0
VERTEX
  8
0
 10
41.7692
 20
21.5132
 30
0.0
 40
0.0104167
 41
0.0104167
  0
VERTEX
  8
0
 10
37.5861
 20
21.5132
 30
0.0
 40
0.0104167
 41
0.0104167
  0
VERTEX
  8
0
 10
37.5861
 20
23.6415
 30
0.0
 40
0.0104167
 41
0.0104167
  0
SEQEND
 8
0
  0
POLYLINE
  8
0
 62
     0
 66
     1
 10
0
 20
0
 30
0.0
 70
     1
 40
0.75
 41
0.75
  0
VERTEX
  8
0
 10
37.5861
 20
20.8981
 30
0.0
 40
0.0104167
 41
0.0104167
  0
VERTEX
  8
0
 10
41.7692
 20
20.8981
 30
0.0
 40
0.0104167
 41
0.0104167
  0
VERTEX
  8
0
 10
41.7692
 20
18.7696
 30
0.0
 40
0.0104167
 41
0.0104167
  0
VERTEX
  8
0
 10
37.5861
 20
18.7696
 30
0.0
 40
0.0104167
 41
0.0104167
  0
VERTEX
  8
0
 10
37.5861
 20
20.8981
 30
0.0
 40
0.0104167
 41
0.0104167
  0
SEQEND
 8
0
  0
POLYLINE
  8
0
 62
     0
 66
     1
 10
0
 20
0
 30
0.0
 70
     1
 40
0.75
 41
0.75
  0
VERTEX
  8
0
 10
37.5861
 20
18.1543
 30
0.0
 40
0.0104167
 41
0.0104167
  0
VERTEX
  8
0
 10
41.7692
 20
18.1543
 30
0.0
 40
0.0104167
 41
0.0104167
  0
VERTEX
  8
0
 10
41.7692
 20
16.026
 30
0.0
 40
0.0104167
 41
0.0104167
  0
VERTEX
  8
0
 10
37.5861
 20
16.026
 30
0.0
 40
0.0104167
 41
0.0104167
  0
VERTEX
  8
0
 10
37.5861
 20
18.1543
 30
0.0
 40
0.0104167
 41
0.0104167
  0
SEQEND
 8
0
  0
POLYLINE
  8
0
 62
     0
 66
     1
 10
0
 20
0
 30
0.0
 70
     1
 40
0.75
 41
0.75
  0
VERTEX
  8
0
 10
37.5861
 20
15.4108
 30
0.0
 40
0.0104167
 41
0.0104167
  0
VERTEX
  8
0
 10
41.7692
 20
15.4108
 30
0.0
 40
0.0104167
 41
0.0104167
  0
VERTEX
  8
0
 10
41.7692
 20
13.2824
 30
0.0
 40
0.0104167
 41
0.0104167
  0
VERTEX
  8
0
 10
37.5861
 20
13.2824
 30
0.0
 40
0.0104167
 41
0.0104167
  0
VERTEX
  8
0
 10
37.5861
 20
15.4108
 30
0.0
 40
0.0104167
 41
0.0104167
  0
SEQEND
 8
0
  0
POLYLINE
  8
0
 62
     0
 66
     1
 10
0
 20
0
 30
0.0
 70
     1
 40
0.75
 41
0.75
  0
VERTEX
  8
0
 10
37.5861
 20
12.6672
 30
0.0
 40
0.0104167
 41
0.0104167
  0
VERTEX
  8
0
 10
41.7692
 20
12.6672
 30
0.0
 40
0.0104167
 41
0.0104167
  0
VERTEX
  8
0
 10
41.7692
 20
10.5387
 30
0.0
 40
0.0104167
 41
0.0104167
  0
VERTEX
  8
0
 10
37.5861
 20
10.5387
 30
0.0
 40
0.0104167
 41
0.0104167
  0
VERTEX
  8
0
 10
37.5861
 20
12.6672
 30
0.0
 40
0.0104167
 41
0.0104167
  0
SEQEND
 8
0
  0
POLYLINE
  8
0
 62
     0
 66
     1
 10
0
 20
0
 30
0.0
 70
     1
 40
0.75
 41
0.75
  0
VERTEX
  8
0
 10
37.5861
 20
9.9235
 30
0.0
 40
0.0104167
 41
0.0104167
  0
VERTEX
  8
0
 10
41.7692
 20
9.9235
 30
0.0
 40
0.0104167
 41
0.0104167
  0
VERTEX
  8
0
 10
41.7692
 20
7.79508
 30
0.0
 40
0.0104167
 41
0.0104167
  0
VERTEX
  8
0
 10
37.5861
 20
7.79508
 30
0.0
 40
0.0104167
 41
0.0104167
  0
VERTEX
  8
0
 10
37.5861
 20
9.9235
 30
0.0
 40
0.0104167
 41
0.0104167
  0
SEQEND
 8
0
  0
POLYLINE
  8
0
 62
     0
 66
     1
 10
0
 20
0
 30
0.0
 70
     1
 40
0.75
 41
0.75
  0
VERTEX
  8
0
 10
37.5861
 20
7.17996
 30
0.0
 40
0.0104167
 41
0.0104167
  0
VERTEX
  8
0
 10
41.7692
 20
7.17996
 30
0.0
 40
0.0104167
 41
0.0104167
  0
VERTEX
  8
0
 10
41.7692
 20
5.05154
 30
0.0
 40
0.0104167
 41
0.0104167
  0
VERTEX
  8
0
 10
37.5861
 20
5.05154
 30
0.0
 40
0.0104167
 41
0.0104167
  0
VERTEX
  8
0
 10
37.5861
 20
7.17996
 30
0.0
 40
0.0104167
 41
0.0104167
  0
SEQEND
 8
0
  0
POLYLINE
  8
0
 62
     0
 66
     1
 10
0
 20
0
 30
0.0
 70
     1
 40
0.75
 41
0.75
  0
VERTEX
  8
0
 10
42.3843
 20
26.3851
 30
0.0
 40
0.0104167
 41
0.0104167
  0
VERTEX
  8
0
 10
46.5675
 20
26.3851
 30
0.0
 40
0.0104167
 41
0.0104167
  0
VERTEX
  8
0
 10
46.5675
 20
24.2567
 30
0.0
 40
0.0104167
 41
0.0104167
  0
VERTEX
  8
0
 10
42.3843
 20
24.2567
 30
0.0
 40
0.0104167
 41
0.0104167
  0
VERTEX
  8
0
 10
42.3843
 20
26.3851
 30
0.0
 40
0.0104167
 41
0.0104167
  0
SEQEND
 8
0
  0
POLYLINE
  8
0
 62
     0
 66
     1
 10
0
 20
0
 30
0.0
 70
     1
 40
0.75
 41
0.75
  0
VERTEX
  8
0
 10
42.3843
 20
29.1288
 30
0.0
 40
0.0104167
 41
0.0104167
  0
VERTEX
  8
0
 10
46.5675
 20
29.1288
 30
0.0
 40
0.0104167
 41
0.0104167
  0
VERTEX
  8
0
 10
46.5675
 20
27.0003
 30
0.0
 40
0.0104167
 41
0.0104167
  0
VERTEX
  8
0
 10
42.3843
 20
27.0003
 30
0.0
 40
0.0104167
 41
0.0104167
  0
VERTEX
  8
0
 10
42.3843
 20
29.1288
 30
0.0
 40
0.0104167
 41
0.0104167
  0
SEQEND
 8
0
  0
POLYLINE
  8
0
 62
     0
 66
     1
 10
0
 20
0
 30
0.0
 70
     1
 40
0.75
 41
0.75
  0
VERTEX
  8
0
 10
42.3843
 20
31.8724
 30
0.0
 40
0.0104167
 41
0.0104167
  0
VERTEX
  8
0
 10
46.5675
 20
31.8724
 30
0.0
 40
0.0104167
 41
0.0104167
  0
VERTEX
  8
0
 10
46.5675
 20
29.7439
 30
0.0
 40
0.0104167
 41
0.0104167
  0
VERTEX
  8
0
 10
42.3843
 20
29.7439
 30
0.0
 40
0.0104167
 41
0.0104167
  0
VERTEX
  8
0
 10
42.3843
 20
31.8724
 30
0.0
 40
0.0104167
 41
0.0104167
  0
SEQEND
 8
0
  0
POLYLINE
  8
0
 62
     0
 66
     1
 10
0
 20
0
 30
0.0
 70
     1
 40
0.75
 41
0.75
  0
VERTEX
  8
0
 10
42.3843
 20
23.6415
 30
0.0
 40
0.0104167
 41
0.0104167
  0
VERTEX
  8
0
 10
46.5675
 20
23.6415
 30
0.0
 40
0.0104167
 41
0.0104167
  0
VERTEX
  8
0
 10
46.5675
 20
21.5132
 30
0.0
 40
0.0104167
 41
0.0104167
  0
VERTEX
  8
0
 10
42.3843
 20
21.5132
 30
0.0
 40
0.0104167
 41
0.0104167
  0
VERTEX
  8
0
 10
42.3843
 20
23.6415
 30
0.0
 40
0.0104167
 41
0.0104167
  0
SEQEND
 8
0
  0
POLYLINE
  8
0
 62
     0
 66
     1
 10
0
 20
0
 30
0.0
 70
     1
 40
0.75
 41
0.75
  0
VERTEX
  8
0
 10
42.3843
 20
20.8981
 30
0.0
 40
0.0104167
 41
0.0104167
  0
VERTEX
  8
0
 10
46.5675
 20
20.8981
 30
0.0
 40
0.0104167
 41
0.0104167
  0
VERTEX
  8
0
 10
46.5675
 20
18.7696
 30
0.0
 40
0.0104167
 41
0.0104167
  0
VERTEX
  8
0
 10
42.3843
 20
18.7696
 30
0.0
 40
0.0104167
 41
0.0104167
  0
VERTEX
  8
0
 10
42.3843
 20
20.8981
 30
0.0
 40
0.0104167
 41
0.0104167
  0
SEQEND
 8
0
  0
POLYLINE
  8
0
 62
     0
 66
     1
 10
0
 20
0
 30
0.0
 70
     1
 40
0.75
 41
0.75
  0
VERTEX
  8
0
 10
42.3843
 20
18.1543
 30
0.0
 40
0.0104167
 41
0.0104167
  0
VERTEX
  8
0
 10
46.5675
 20
18.1543
 30
0.0
 40
0.0104167
 41
0.0104167
  0
VERTEX
  8
0
 10
46.5675
 20
16.026
 30
0.0
 40
0.0104167
 41
0.0104167
  0
VERTEX
  8
0
 10
42.3843
 20
16.026
 30
0.0
 40
0.0104167
 41
0.0104167
  0
VERTEX
  8
0
 10
42.3843
 20
18.1543
 30
0.0
 40
0.0104167
 41
0.0104167
  0
SEQEND
 8
0
  0
POLYLINE
  8
0
 62
     0
 66
     1
 10
0
 20
0
 30
0.0
 70
     1
 40
0.75
 41
0.75
  0
VERTEX
  8
0
 10
42.3843
 20
15.4108
 30
0.0
 40
0.0104167
 41
0.0104167
  0
VERTEX
  8
0
 10
46.5675
 20
15.4108
 30
0.0
 40
0.0104167
 41
0.0104167
  0
VERTEX
  8
0
 10
46.5675
 20
13.2824
 30
0.0
 40
0.0104167
 41
0.0104167
  0
VERTEX
  8
0
 10
42.3843
 20
13.2824
 30
0.0
 40
0.0104167
 41
0.0104167
  0
VERTEX
  8
0
 10
42.3843
 20
15.4108
 30
0.0
 40
0.0104167
 41
0.0104167
  0
SEQEND
 8
0
  0
POLYLINE
  8
0
 62
     0
 66
     1
 10
0
 20
0
 30
0.0
 70
     1
 40
0.75
 41
0.75
  0
VERTEX
  8
0
 10
42.3843
 20
12.6672
 30
0.0
 40
0.0104167
 41
0.0104167
  0
VERTEX
  8
0
 10
46.5675
 20
12.6672
 30
0.0
 40
0.0104167
 41
0.0104167
  0
VERTEX
  8
0
 10
46.5675
 20
10.5387
 30
0.0
 40
0.0104167
 41
0.0104167
  0
VERTEX
  8
0
 10
42.3843
 20
10.5387
 30
0.0
 40
0.0104167
 41
0.0104167
  0
VERTEX
  8
0
 10
42.3843
 20
12.6672
 30
0.0
 40
0.0104167
 41
0.0104167
  0
SEQEND
 8
0
  0
POLYLINE
  8
0
 62
     0
 66
     1
 10
0
 20
0
 30
0.0
 70
     1
 40
0.75
 41
0.75
  0
VERTEX
  8
0
 10
42.3843
 20
9.9235
 30
0.0
 40
0.0104167
 41
0.0104167
  0
VERTEX
  8
0
 10
46.5675
 20
9.9235
 30
0.0
 40
0.0104167
 41
0.0104167
  0
VERTEX
  8
0
 10
46.5675
 20
7.79508
 30
0.0
 40
0.0104167
 41
0.0104167
  0
VERTEX
  8
0
 10
42.3843
 20
7.79508
 30
0.0
 40
0.0104167
 41
0.0104167
  0
VERTEX
  8
0
 10
42.3843
 20
9.9235
 30
0.0
 40
0.0104167
 41
0.0104167
  0
SEQEND
 8
0
  0
POLYLINE
  8
0
 62
     0
 66
     1
 10
0
 20
0
 30
0.0
 70
     1
 40
0.75
 41
0.75
  0
VERTEX
  8
0
 10
42.3843
 20
7.17996
 30
0.0
 40
0.0104167
 41
0.0104167
  0
VERTEX
  8
0
 10
46.5675
 20
7.17996
 30
0.0
 40
0.0104167
 41
0.0104167
  0
VERTEX
  8
0
 10
46.5675
 20
5.05154
 30
0.0
 40
0.0104167
 41
0.0104167
  0
VERTEX
  8
0
 10
42.3843
 20
5.05154
 30
0.0
 40
0.0104167
 41
0.0104167
  0
VERTEX
  8
0
 10
42.3843
 20
7.17996
 30
0.0
 40
0.0104167
 41
0.0104167
  0
SEQEND
 8
0
  0
POLYLINE
  8
0
 62
     0
 66
     1
 10
0
 20
0
 30
0.0
 70
     1
 40
0.75
 41
0.75
  0
VERTEX
  8
0
 10
47.1825
 20
26.3851
 30
0.0
 40
0.0104167
 41
0.0104167
  0
VERTEX
  8
0
 10
51.3657
 20
26.3851
 30
0.0
 40
0.0104167
 41
0.0104167
  0
VERTEX
  8
0
 10
51.3657
 20
24.2567
 30
0.0
 40
0.0104167
 41
0.0104167
  0
VERTEX
  8
0
 10
47.1825
 20
24.2567
 30
0.0
 40
0.0104167
 41
0.0104167
  0
VERTEX
  8
0
 10
47.1825
 20
26.3851
 30
0.0
 40
0.0104167
 41
0.0104167
  0
SEQEND
 8
0
  0
POLYLINE
  8
0
 62
     0
 66
     1
 10
0
 20
0
 30
0.0
 70
     1
 40
0.75
 41
0.75
  0
VERTEX
  8
0
 10
47.1825
 20
29.1288
 30
0.0
 40
0.0104167
 41
0.0104167
  0
VERTEX
  8
0
 10
51.3657
 20
29.1288
 30
0.0
 40
0.0104167
 41
0.0104167
  0
VERTEX
  8
0
 10
51.3657
 20
27.0003
 30
0.0
 40
0.0104167
 41
0.0104167
  0
VERTEX
  8
0
 10
47.1825
 20
27.0003
 30
0.0
 40
0.0104167
 41
0.0104167
  0
VERTEX
  8
0
 10
47.1825
 20
29.1288
 30
0.0
 40
0.0104167
 41
0.0104167
  0
SEQEND
 8
0
  0
POLYLINE
  8
0
 62
     0
 66
     1
 10
0
 20
0
 30
0.0
 70
     1
 40
0.75
 41
0.75
  0
VERTEX
  8
0
 10
47.1825
 20
31.8724
 30
0.0
 40
0.0104167
 41
0.0104167
  0
VERTEX
  8
0
 10
51.3657
 20
31.8724
 30
0.0
 40
0.0104167
 41
0.0104167
  0
VERTEX
  8
0
 10
51.3657
 20
29.7439
 30
0.0
 40
0.0104167
 41
0.0104167
  0
VERTEX
  8
0
 10
47.1825
 20
29.7439
 30
0.0
 40
0.0104167
 41
0.0104167
  0
VERTEX
  8
0
 10
47.1825
 20
31.8724
 30
0.0
 40
0.0104167
 41
0.0104167
  0
SEQEND
 8
0
  0
POLYLINE
  8
0
 62
     0
 66
     1
 10
0
 20
0
 30
0.0
 70
     1
 40
0.75
 41
0.75
  0
VERTEX
  8
0
 10
47.1825
 20
23.6415
 30
0.0
 40
0.0104167
 41
0.0104167
  0
VERTEX
  8
0
 10
51.3657
 20
23.6415
 30
0.0
 40
0.0104167
 41
0.0104167
  0
VERTEX
  8
0
 10
51.3657
 20
21.5132
 30
0.0
 40
0.0104167
 41
0.0104167
  0
VERTEX
  8
0
 10
47.1825
 20
21.5132
 30
0.0
 40
0.0104167
 41
0.0104167
  0
VERTEX
  8
0
 10
47.1825
 20
23.6415
 30
0.0
 40
0.0104167
 41
0.0104167
  0
SEQEND
 8
0
  0
POLYLINE
  8
0
 62
     0
 66
     1
 10
0
 20
0
 30
0.0
 70
     1
 40
0.75
 41
0.75
  0
VERTEX
  8
0
 10
47.1825
 20
20.8981
 30
0.0
 40
0.0104167
 41
0.0104167
  0
VERTEX
  8
0
 10
51.3657
 20
20.8981
 30
0.0
 40
0.0104167
 41
0.0104167
  0
VERTEX
  8
0
 10
51.3657
 20
18.7696
 30
0.0
 40
0.0104167
 41
0.0104167
  0
VERTEX
  8
0
 10
47.1825
 20
18.7696
 30
0.0
 40
0.0104167
 41
0.0104167
  0
VERTEX
  8
0
 10
47.1825
 20
20.8981
 30
0.0
 40
0.0104167
 41
0.0104167
  0
SEQEND
 8
0
  0
POLYLINE
  8
0
 62
     0
 66
     1
 10
0
 20
0
 30
0.0
 70
     1
 40
0.75
 41
0.75
  0
VERTEX
  8
0
 10
47.1825
 20
18.1543
 30
0.0
 40
0.0104167
 41
0.0104167
  0
VERTEX
  8
0
 10
51.3657
 20
18.1543
 30
0.0
 40
0.0104167
 41
0.0104167
  0
VERTEX
  8
0
 10
51.3657
 20
16.026
 30
0.0
 40
0.0104167
 41
0.0104167
  0
VERTEX
  8
0
 10
47.1825
 20
16.026
 30
0.0
 40
0.0104167
 41
0.0104167
  0
VERTEX
  8
0
 10
47.1825
 20
18.1543
 30
0.0
 40
0.0104167
 41
0.0104167
  0
SEQEND
 8
0
  0
POLYLINE
  8
0
 62
     0
 66
     1
 10
0
 20
0
 30
0.0
 70
     1
 40
0.75
 41
0.75
  0
VERTEX
  8
0
 10
47.1825
 20
15.4108
 30
0.0
 40
0.0104167
 41
0.0104167
  0
VERTEX
  8
0
 10
51.3657
 20
15.4108
 30
0.0
 40
0.0104167
 41
0.0104167
  0
VERTEX
  8
0
 10
51.3657
 20
13.2824
 30
0.0
 40
0.0104167
 41
0.0104167
  0
VERTEX
  8
0
 10
47.1825
 20
13.2824
 30
0.0
 40
0.0104167
 41
0.0104167
  0
VERTEX
  8
0
 10
47.1825
 20
15.4108
 30
0.0
 40
0.0104167
 41
0.0104167
  0
SEQEND
 8
0
  0
POLYLINE
  8
0
 62
     0
 66
     1
 10
0
 20
0
 30
0.0
 70
     1
 40
0.75
 41
0.75
  0
VERTEX
  8
0
 10
47.1825
 20
12.6672
 30
0.0
 40
0.0104167
 41
0.0104167
  0
VERTEX
  8
0
 10
51.3657
 20
12.6672
 30
0.0
 40
0.0104167
 41
0.0104167
  0
VERTEX
  8
0
 10
51.3657
 20
10.5387
 30
0.0
 40
0.0104167
 41
0.0104167
  0
VERTEX
  8
0
 10
47.1825
 20
10.5387
 30
0.0
 40
0.0104167
 41
0.0104167
  0
VERTEX
  8
0
 10
47.1825
 20
12.6672
 30
0.0
 40
0.0104167
 41
0.0104167
  0
SEQEND
 8
0
  0
POLYLINE
  8
0
 62
     0
 66
     1
 10
0
 20
0
 30
0.0
 70
     1
 40
0.75
 41
0.75
  0
VERTEX
  8
0
 10
47.1825
 20
9.9235
 30
0.0
 40
0.0104167
 41
0.0104167
  0
VERTEX
  8
0
 10
51.3657
 20
9.9235
 30
0.0
 40
0.0104167
 41
0.0104167
  0
VERTEX
  8
0
 10
51.3657
 20
7.79508
 30
0.0
 40
0.0104167
 41
0.0104167
  0
VERTEX
  8
0
 10
47.1825
 20
7.79508
 30
0.0
 40
0.0104167
 41
0.0104167
  0
VERTEX
  8
0
 10
47.1825
 20
9.9235
 30
0.0
 40
0.0104167
 41
0.0104167
  0
SEQEND
 8
0
  0
POLYLINE
  8
0
 62
     0
 66
     1
 10
0
 20
0
 30
0.0
 70
     1
 40
0.75
 41
0.75
  0
VERTEX
  8
0
 10
47.1825
 20
7.17996
 30
0.0
 40
0.0104167
 41
0.0104167
  0
VERTEX
  8
0
 10
51.3657
 20
7.17996
 30
0.0
 40
0.0104167
 41
0.0104167
  0
VERTEX
  8
0
 10
51.3657
 20
5.05154
 30
0.0
 40
0.0104167
 41
0.0104167
  0
VERTEX
  8
0
 10
47.1825
 20
5.05154
 30
0.0
 40
0.0104167
 41
0.0104167
  0
VERTEX
  8
0
 10
47.1825
 20
7.17996
 30
0.0
 40
0.0104167
 41
0.0104167
  0
SEQEND
 8
0
  0
ENDSEC
  0
EOF
