<?xml version="1.0" encoding="UTF-8" standalone="no"?>
<!DOCTYPE svg PUBLIC "-//W3C//DTD SVG 1.1//EN" "http://www.w3.org/Graphics/SVG/1.1/DTD/svg11.dtd">
<svg width="100%" height="100%" viewBox="0 0 5315 3544" version="1.1" xmlns="http://www.w3.org/2000/svg" xmlns:xlink="http://www.w3.org/1999/xlink" xml:space="preserve" xmlns:serif="http://www.serif.com/" style="fill-rule:evenodd;clip-rule:evenodd;stroke-linecap:round;stroke-linejoin:round;stroke-miterlimit:1.5;">
    <g transform="matrix(1.15571,0,0,1.46734,-332.363,-225.683)">
        <rect x="517.54" y="403.826" width="4138.82" height="1915.74" style="fill:none;stroke:black;stroke-width:0.76px;"/>
    </g>
    <g transform="matrix(1,0,0,1,0,526.772)">
        <rect x="383.858" y="484.252" width="401.575" height="204.331" style="fill:none;stroke:black;stroke-width:1px;"/>
    </g>
    <g transform="matrix(1,0,0,1,0,263.386)">
        <rect x="383.858" y="484.252" width="401.575" height="204.331" style="fill:none;stroke:black;stroke-width:1px;"/>
    </g>
    <rect x="383.858" y="484.252" width="401.575" height="204.331" style="fill:none;stroke:black;stroke-width:1px;"/>
    <g transform="matrix(1,0,0,1,0,790.157)">
        <rect x="383.858" y="484.252" width="401.575" height="204.331" style="fill:none;stroke:black;stroke-width:1px;"/>
    </g>
    <g transform="matrix(1,0,0,1,0,1053.54)">
        <rect x="383.858" y="484.252" width="401.575" height="204.331" style="fill:none;stroke:black;stroke-width:1px;"/>
    </g>
    <g transform="matrix(1,0,0,1,0,1316.93)">
        <rect x="383.858" y="484.252" width="401.575" height="204.331" style="fill:none;stroke:black;stroke-width:1px;"/>
    </g>
    <g transform="matrix(1,0,0,1,0,1580.31)">
        <rect x="383.858" y="484.252" width="401.575" height="204.331" style="fill:none;stroke:black;stroke-width:1px;"/>
    </g>
    <g transform="matrix(1,0,0,1,0,1843.7)">
        <rect x="383.858" y="484.252" width="401.575" height="204.331" style="fill:none;stroke:black;stroke-width:1px;"/>
    </g>
    <g transform="matrix(1,0,0,1,0,2107.09)">
        <rect x="383.858" y="484.252" width="401.575" height="204.331" style="fill:none;stroke:black;stroke-width:1px;"/>
    </g>
    <g transform="matrix(1,0,0,1,0,2370.47)">
        <rect x="383.858" y="484.252" width="401.575" height="204.331" style="fill:none;stroke:black;stroke-width:1px;"/>
    </g>
    <g transform="matrix(1,0,0,1,460.63,526.772)">
        <rect x="383.858" y="484.252" width="401.575" height="204.331" style="fill:none;stroke:black;stroke-width:1px;"/>
    </g>
    <g transform="matrix(1,0,0,1,460.63,263.386)">
        <rect x="383.858" y="484.252" width="401.575" height="204.331" style="fill:none;stroke:black;stroke-width:1px;"/>
    </g>
    <g transform="matrix(1,0,0,1,460.63,0)">
        <rect x="383.858" y="484.252" width="401.575" height="204.331" style="fill:none;stroke:black;stroke-width:1px;"/>
    </g>
    <g transform="matrix(1,0,0,1,460.63,790.157)">
        <rect x="383.858" y="484.252" width="401.575" height="204.331" style="fill:none;stroke:black;stroke-width:1px;"/>
    </g>
    <g transform="matrix(1,0,0,1,460.63,1053.54)">
        <rect x="383.858" y="484.252" width="401.575" height="204.331" style="fill:none;stroke:black;stroke-width:1px;"/>
    </g>
    <g transform="matrix(1,0,0,1,460.63,1316.93)">
        <rect x="383.858" y="484.252" width="401.575" height="204.331" style="fill:none;stroke:black;stroke-width:1px;"/>
    </g>
    <g transform="matrix(1,0,0,1,460.63,1580.31)">
        <rect x="383.858" y="484.252" width="401.575" height="204.331" style="fill:none;stroke:black;stroke-width:1px;"/>
    </g>
    <g transform="matrix(1,0,0,1,460.63,1843.7)">
        <rect x="383.858" y="484.252" width="401.575" height="204.331" style="fill:none;stroke:black;stroke-width:1px;"/>
    </g>
    <g transform="matrix(1,0,0,1,460.63,2107.09)">
        <rect x="383.858" y="484.252" width="401.575" height="204.331" style="fill:none;stroke:black;stroke-width:1px;"/>
    </g>
    <g transform="matrix(1,0,0,1,460.63,2370.47)">
        <rect x="383.858" y="484.252" width="401.575" height="204.331" style="fill:none;stroke:black;stroke-width:1px;"/>
    </g>
    <g transform="matrix(1,0,0,1,921.26,526.772)">
        <rect x="383.858" y="484.252" width="401.575" height="204.331" style="fill:none;stroke:black;stroke-width:1px;"/>
    </g>
    <g transform="matrix(1,0,0,1,921.26,263.386)">
        <rect x="383.858" y="484.252" width="401.575" height="204.331" style="fill:none;stroke:black;stroke-width:1px;"/>
    </g>
    <g transform="matrix(1,0,0,1,921.26,0)">
        <rect x="383.858" y="484.252" width="401.575" height="204.331" style="fill:none;stroke:black;stroke-width:1px;"/>
    </g>
    <g transform="matrix(1,0,0,1,921.26,790.157)">
        <rect x="383.858" y="484.252" width="401.575" height="204.331" style="fill:none;stroke:black;stroke-width:1px;"/>
    </g>
    <g transform="matrix(1,0,0,1,921.26,1053.54)">
        <rect x="383.858" y="484.252" width="401.575" height="204.331" style="fill:none;stroke:black;stroke-width:1px;"/>
    </g>
    <g transform="matrix(1,0,0,1,921.26,1316.93)">
        <rect x="383.858" y="484.252" width="401.575" height="204.331" style="fill:none;stroke:black;stroke-width:1px;"/>
    </g>
    <g transform="matrix(1,0,0,1,921.26,1580.31)">
        <rect x="383.858" y="484.252" width="401.575" height="204.331" style="fill:none;stroke:black;stroke-width:1px;"/>
    </g>
    <g transform="matrix(1,0,0,1,921.26,1843.7)">
        <rect x="383.858" y="484.252" width="401.575" height="204.331" style="fill:none;stroke:black;stroke-width:1px;"/>
    </g>
    <g transform="matrix(1,0,0,1,921.26,2107.09)">
        <rect x="383.858" y="484.252" width="401.575" height="204.331" style="fill:none;stroke:black;stroke-width:1px;"/>
    </g>
    <g transform="matrix(1,0,0,1,921.26,2370.47)">
        <rect x="383.858" y="484.252" width="401.575" height="204.331" style="fill:none;stroke:black;stroke-width:1px;"/>
    </g>
    <g transform="matrix(1,0,0,1,1381.89,526.772)">
        <rect x="383.858" y="484.252" width="401.575" height="204.331" style="fill:none;stroke:black;stroke-width:1px;"/>
    </g>
    <g transform="matrix(1,0,0,1,1381.89,263.386)">
        <rect x="383.858" y="484.252" width="401.575" height="204.331" style="fill:none;stroke:black;stroke-width:1px;"/>
    </g>
    <g transform="matrix(1,0,0,1,1381.89,4.54747e-13)">
        <rect x="383.858" y="484.252" width="401.575" height="204.331" style="fill:none;stroke:black;stroke-width:1px;"/>
    </g>
    <g transform="matrix(1,0,0,1,1381.89,790.157)">
        <rect x="383.858" y="484.252" width="401.575" height="204.331" style="fill:none;stroke:black;stroke-width:1px;"/>
    </g>
    <g transform="matrix(1,0,0,1,1381.89,1053.54)">
        <rect x="383.858" y="484.252" width="401.575" height="204.331" style="fill:none;stroke:black;stroke-width:1px;"/>
    </g>
    <g transform="matrix(1,0,0,1,1381.89,1316.93)">
        <rect x="383.858" y="484.252" width="401.575" height="204.331" style="fill:none;stroke:black;stroke-width:1px;"/>
    </g>
    <g transform="matrix(1,0,0,1,1381.89,1580.31)">
        <rect x="383.858" y="484.252" width="401.575" height="204.331" style="fill:none;stroke:black;stroke-width:1px;"/>
    </g>
    <g transform="matrix(1,0,0,1,1381.89,1843.7)">
        <rect x="383.858" y="484.252" width="401.575" height="204.331" style="fill:none;stroke:black;stroke-width:1px;"/>
    </g>
    <g transform="matrix(1,0,0,1,1381.89,2107.09)">
        <rect x="383.858" y="484.252" width="401.575" height="204.331" style="fill:none;stroke:black;stroke-width:1px;"/>
    </g>
    <g transform="matrix(1,0,0,1,1381.89,2370.47)">
        <rect x="383.858" y="484.252" width="401.575" height="204.331" style="fill:none;stroke:black;stroke-width:1px;"/>
    </g>
    <g transform="matrix(1,0,0,1,1842.52,526.772)">
        <rect x="383.858" y="484.252" width="401.575" height="204.331" style="fill:none;stroke:black;stroke-width:1px;"/>
    </g>
    <g transform="matrix(1,0,0,1,1842.52,263.386)">
        <rect x="383.858" y="484.252" width="401.575" height="204.331" style="fill:none;stroke:black;stroke-width:1px;"/>
    </g>
    <g transform="matrix(1,0,0,1,1842.52,4.54747e-13)">
        <rect x="383.858" y="484.252" width="401.575" height="204.331" style="fill:none;stroke:black;stroke-width:1px;"/>
    </g>
    <g transform="matrix(1,0,0,1,1842.52,790.157)">
        <rect x="383.858" y="484.252" width="401.575" height="204.331" style="fill:none;stroke:black;stroke-width:1px;"/>
    </g>
    <g transform="matrix(1,0,0,1,1842.52,1053.54)">
        <rect x="383.858" y="484.252" width="401.575" height="204.331" style="fill:none;stroke:black;stroke-width:1px;"/>
    </g>
    <g transform="matrix(1,0,0,1,1842.52,1316.93)">
        <rect x="383.858" y="484.252" width="401.575" height="204.331" style="fill:none;stroke:black;stroke-width:1px;"/>
    </g>
    <g transform="matrix(1,0,0,1,1842.52,1580.31)">
        <rect x="383.858" y="484.252" width="401.575" height="204.331" style="fill:none;stroke:black;stroke-width:1px;"/>
    </g>
    <g transform="matrix(1,0,0,1,1842.52,1843.7)">
        <rect x="383.858" y="484.252" width="401.575" height="204.331" style="fill:none;stroke:black;stroke-width:1px;"/>
    </g>
    <g transform="matrix(1,0,0,1,1842.52,2107.09)">
        <rect x="383.858" y="484.252" width="401.575" height="204.331" style="fill:none;stroke:black;stroke-width:1px;"/>
    </g>
    <g transform="matrix(1,0,0,1,1842.52,2370.47)">
        <rect x="383.858" y="484.252" width="401.575" height="204.331" style="fill:none;stroke:black;stroke-width:1px;"/>
    </g>
    <g transform="matrix(1,0,0,1,2303.15,526.772)">
        <rect x="383.858" y="484.252" width="401.575" height="204.331" style="fill:none;stroke:black;stroke-width:1px;"/>
    </g>
    <g transform="matrix(1,0,0,1,2303.15,263.386)">
        <rect x="383.858" y="484.252" width="401.575" height="204.331" style="fill:none;stroke:black;stroke-width:1px;"/>
    </g>
    <g transform="matrix(1,0,0,1,2303.15,0)">
        <rect x="383.858" y="484.252" width="401.575" height="204.331" style="fill:none;stroke:black;stroke-width:1px;"/>
    </g>
    <g transform="matrix(1,0,0,1,2303.15,790.157)">
        <rect x="383.858" y="484.252" width="401.575" height="204.331" style="fill:none;stroke:black;stroke-width:1px;"/>
    </g>
    <g transform="matrix(1,0,0,1,2303.15,1053.54)">
        <rect x="383.858" y="484.252" width="401.575" height="204.331" style="fill:none;stroke:black;stroke-width:1px;"/>
    </g>
    <g transform="matrix(1,0,0,1,2303.15,1316.93)">
        <rect x="383.858" y="484.252" width="401.575" height="204.331" style="fill:none;stroke:black;stroke-width:1px;"/>
    </g>
    <g transform="matrix(1,0,0,1,2303.15,1580.31)">
        <rect x="383.858" y="484.252" width="401.575" height="204.331" style="fill:none;stroke:black;stroke-width:1px;"/>
    </g>
    <g transform="matrix(1,0,0,1,2303.15,1843.7)">
        <rect x="383.858" y="484.252" width="401.575" height="204.331" style="fill:none;stroke:black;stroke-width:1px;"/>
    </g>
    <g transform="matrix(1,0,0,1,2303.15,2107.09)">
        <rect x="383.858" y="484.252" width="401.575" height="204.331" style="fill:none;stroke:black;stroke-width:1px;"/>
    </g>
    <g transform="matrix(1,0,0,1,2303.15,2370.47)">
        <rect x="383.858" y="484.252" width="401.575" height="204.331" style="fill:none;stroke:black;stroke-width:1px;"/>
    </g>
    <g transform="matrix(1,0,0,1,2763.78,526.772)">
        <rect x="383.858" y="484.252" width="401.575" height="204.331" style="fill:none;stroke:black;stroke-width:1px;"/>
    </g>
    <g transform="matrix(1,0,0,1,2763.78,263.386)">
        <rect x="383.858" y="484.252" width="401.575" height="204.331" style="fill:none;stroke:black;stroke-width:1px;"/>
    </g>
    <g transform="matrix(1,0,0,1,2763.78,4.54747e-13)">
        <rect x="383.858" y="484.252" width="401.575" height="204.331" style="fill:none;stroke:black;stroke-width:1px;"/>
    </g>
    <g transform="matrix(1,0,0,1,2763.78,790.157)">
        <rect x="383.858" y="484.252" width="401.575" height="204.331" style="fill:none;stroke:black;stroke-width:1px;"/>
    </g>
    <g transform="matrix(1,0,0,1,2763.78,1053.54)">
        <rect x="383.858" y="484.252" width="401.575" height="204.331" style="fill:none;stroke:black;stroke-width:1px;"/>
    </g>
    <g transform="matrix(1,0,0,1,2763.78,1316.93)">
        <rect x="383.858" y="484.252" width="401.575" height="204.331" style="fill:none;stroke:black;stroke-width:1px;"/>
    </g>
    <g transform="matrix(1,0,0,1,2763.78,1580.31)">
        <rect x="383.858" y="484.252" width="401.575" height="204.331" style="fill:none;stroke:black;stroke-width:1px;"/>
    </g>
    <g transform="matrix(1,0,0,1,2763.78,1843.7)">
        <rect x="383.858" y="484.252" width="401.575" height="204.331" style="fill:none;stroke:black;stroke-width:1px;"/>
    </g>
    <g transform="matrix(1,0,0,1,2763.78,2107.09)">
        <rect x="383.858" y="484.252" width="401.575" height="204.331" style="fill:none;stroke:black;stroke-width:1px;"/>
    </g>
    <g transform="matrix(1,0,0,1,2763.78,2370.47)">
        <rect x="383.858" y="484.252" width="401.575" height="204.331" style="fill:none;stroke:black;stroke-width:1px;"/>
    </g>
    <g transform="matrix(1,0,0,1,3224.41,526.772)">
        <rect x="383.858" y="484.252" width="401.575" height="204.331" style="fill:none;stroke:black;stroke-width:1px;"/>
    </g>
    <g transform="matrix(1,0,0,1,3224.41,263.386)">
        <rect x="383.858" y="484.252" width="401.575" height="204.331" style="fill:none;stroke:black;stroke-width:1px;"/>
    </g>
    <g transform="matrix(1,0,0,1,3224.41,0)">
        <rect x="383.858" y="484.252" width="401.575" height="204.331" style="fill:none;stroke:black;stroke-width:1px;"/>
    </g>
    <g transform="matrix(1,0,0,1,3224.41,790.157)">
        <rect x="383.858" y="484.252" width="401.575" height="204.331" style="fill:none;stroke:black;stroke-width:1px;"/>
    </g>
    <g transform="matrix(1,0,0,1,3224.41,1053.54)">
        <rect x="383.858" y="484.252" width="401.575" height="204.331" style="fill:none;stroke:black;stroke-width:1px;"/>
    </g>
    <g transform="matrix(1,0,0,1,3224.41,1316.93)">
        <rect x="383.858" y="484.252" width="401.575" height="204.331" style="fill:none;stroke:black;stroke-width:1px;"/>
    </g>
    <g transform="matrix(1,0,0,1,3224.41,1580.31)">
        <rect x="383.858" y="484.252" width="401.575" height="204.331" style="fill:none;stroke:black;stroke-width:1px;"/>
    </g>
    <g transform="matrix(1,0,0,1,3224.41,1843.7)">
        <rect x="383.858" y="484.252" width="401.575" height="204.331" style="fill:none;stroke:black;stroke-width:1px;"/>
    </g>
    <g transform="matrix(1,0,0,1,3224.41,2107.09)">
        <rect x="383.858" y="484.252" width="401.575" height="204.331" style="fill:none;stroke:black;stroke-width:1px;"/>
    </g>
    <g transform="matrix(1,0,0,1,3224.41,2370.47)">
        <rect x="383.858" y="484.252" width="401.575" height="204.331" style="fill:none;stroke:black;stroke-width:1px;"/>
    </g>
    <g transform="matrix(1,0,0,1,3685.04,526.772)">
        <rect x="383.858" y="484.252" width="401.575" height="204.331" style="fill:none;stroke:black;stroke-width:1px;"/>
    </g>
    <g transform="matrix(1,0,0,1,3685.04,263.386)">
        <rect x="383.858" y="484.252" width="401.575" height="204.331" style="fill:none;stroke:black;stroke-width:1px;"/>
    </g>
    <g transform="matrix(1,0,0,1,3685.04,4.54747e-13)">
        <rect x="383.858" y="484.252" width="401.575" height="204.331" style="fill:none;stroke:black;stroke-width:1px;"/>
    </g>
    <g transform="matrix(1,0,0,1,3685.04,790.157)">
        <rect x="383.858" y="484.252" width="401.575" height="204.331" style="fill:none;stroke:black;stroke-width:1px;"/>
    </g>
    <g transform="matrix(1,0,0,1,3685.04,1053.54)">
        <rect x="383.858" y="484.252" width="401.575" height="204.331" style="fill:none;stroke:black;stroke-width:1px;"/>
    </g>
    <g transform="matrix(1,0,0,1,3685.04,1316.93)">
        <rect x="383.858" y="484.252" width="401.575" height="204.331" style="fill:none;stroke:black;stroke-width:1px;"/>
    </g>
    <g transform="matrix(1,0,0,1,3685.04,1580.31)">
        <rect x="383.858" y="484.252" width="401.575" height="204.331" style="fill:none;stroke:black;stroke-width:1px;"/>
    </g>
    <g transform="matrix(1,0,0,1,3685.04,1843.7)">
        <rect x="383.858" y="484.252" width="401.575" height="204.331" style="fill:none;stroke:black;stroke-width:1px;"/>
    </g>
    <g transform="matrix(1,0,0,1,3685.04,2107.09)">
        <rect x="383.858" y="484.252" width="401.575" height="204.331" style="fill:none;stroke:black;stroke-width:1px;"/>
    </g>
    <g transform="matrix(1,0,0,1,3685.04,2370.47)">
        <rect x="383.858" y="484.252" width="401.575" height="204.331" style="fill:none;stroke:black;stroke-width:1px;"/>
    </g>
    <g transform="matrix(1,0,0,1,4145.67,526.772)">
        <rect x="383.858" y="484.252" width="401.575" height="204.331" style="fill:none;stroke:black;stroke-width:1px;"/>
    </g>
    <g transform="matrix(1,0,0,1,4145.67,263.386)">
        <rect x="383.858" y="484.252" width="401.575" height="204.331" style="fill:none;stroke:black;stroke-width:1px;"/>
    </g>
    <g transform="matrix(1,0,0,1,4145.67,0)">
        <rect x="383.858" y="484.252" width="401.575" height="204.331" style="fill:none;stroke:black;stroke-width:1px;"/>
    </g>
    <g transform="matrix(1,0,0,1,4145.67,790.157)">
        <rect x="383.858" y="484.252" width="401.575" height="204.331" style="fill:none;stroke:black;stroke-width:1px;"/>
    </g>
    <g transform="matrix(1,0,0,1,4145.67,1053.54)">
        <rect x="383.858" y="484.252" width="401.575" height="204.331" style="fill:none;stroke:black;stroke-width:1px;"/>
    </g>
    <g transform="matrix(1,0,0,1,4145.67,1316.93)">
        <rect x="383.858" y="484.252" width="401.575" height="204.331" style="fill:none;stroke:black;stroke-width:1px;"/>
    </g>
    <g transform="matrix(1,0,0,1,4145.67,1580.31)">
        <rect x="383.858" y="484.252" width="401.575" height="204.331" style="fill:none;stroke:black;stroke-width:1px;"/>
    </g>
    <g transform="matrix(1,0,0,1,4145.67,1843.7)">
        <rect x="383.858" y="484.252" width="401.575" height="204.331" style="fill:none;stroke:black;stroke-width:1px;"/>
    </g>
    <g transform="matrix(1,0,0,1,4145.67,2107.09)">
        <rect x="383.858" y="484.252" width="401.575" height="204.331" style="fill:none;stroke:black;stroke-width:1px;"/>
    </g>
    <g transform="matrix(1,0,0,1,4145.67,2370.47)">
        <rect x="383.858" y="484.252" width="401.575" height="204.331" style="fill:none;stroke:black;stroke-width:1px;"/>
    </g>
</svg>
