  0
SECTION
  2
HEADER
  9
$ACADVER
  1
AC1009
  9
$EXTMIN
 10
0.0
 20
0.0
 30
0.0
  9
$EXTMAX
 10
1000.0
 20
1000.0
 30
0.0
  9
$FILLMODE
 70
 0
  9
$SPLFRAME
 70
 1
  0
ENDSEC
  0
SECTION
  2
TABLES
  0
TABLE
  2
LAYER
 70
1
  0
LAYER
  2
0
 70
     0
 62
     7
  6
CONTINUOUS
  0
ENDTAB
  0
ENDSEC
  0
SECTION
  2
ENTITIES
  0
TEXT
  8
0
 62
     0
 10
0.489701
 20
1.67074
 30
0
 40
0.303822
  1
This device 
 50
0
  7
DejaVuSans
  0
TEXT
  8
0
 62
     0
 10
2.30225
 20
1.67074
 30
0
 40
0.303822
  1
run
 50
0
  7
DejaVuSans
  0
TEXT
  8
0
 62
     0
 10
2.81314
 20
1.67074
 30
0
 40
0.303822
  1
s GNUK
 50
0
  7
DejaVuSans
  0
TEXT
  8
0
 62
     0
 10
0.427464
 20
0.534054
 30
0
 40
0.830817
  1
Modi
 50
0
  7
DejaVuSans-Bold
  0
TEXT
  8
0
 62
     0
 10
2.70686
 20
0.534054
 30
0
 40
0.830817
  1
rum
 50
0
  7
DejaVuSans-Bold
  0
TEXT
  8
0
 62
     0
 10
1.64558
 20
0.256504
 30
0
 40
0.238718
  1
Secur
 50
0
  7
DejaVuSans
  0
TEXT
  8
0
 62
     0
 10
2.28236
 20
0.256504
 30
0
 40
0.238718
  1
e
 50
0
  7
DejaVuSans
  0
TEXT
  8
0
 62
     0
 10
2.41515
 20
0.256504
 30
0
 40
0.238718
  1
d by F
 50
0
  7
DejaVuSans
  0
TEXT
  8
0
 62
     0
 10
3.13167
 20
0.256504
 30
0
 40
0.238718
  1
r
 50
0
  7
DejaVuSans
  0
TEXT
  8
0
 62
     0
 10
3.18469
 20
0.256504
 30
0
 40
0.238718
  1
e
 50
0
  7
DejaVuSans
  0
TEXT
  8
0
 62
     0
 10
3.31724
 20
0.256504
 30
0
 40
0.238718
  1
eB
 50
0
  7
DejaVuSans
  0
TEXT
  8
0
 62
     0
 10
3.62354
 20
0.256504
 30
0
 40
0.238718
  1
SD
 50
0
  7
DejaVuSans
  0
TEXT
  8
0
 62
     0
 10
0.467867
 20
1.42833
 30
0
 40
0.217011
  1
F
 50
0
  7
DejaVuSans
  0
TEXT
  8
0
 62
     0
 10
0.577242
 20
1.42833
 30
0
 40
0.217011
  1
r
 50
0
  7
DejaVuSans
  0
TEXT
  8
0
 62
     0
 10
0.660792
 20
1.42833
 30
0
 40
0.217011
  1
e
 50
0
  7
DejaVuSans
  0
TEXT
  8
0
 62
     0
 10
0.777112
 20
1.42833
 30
0
 40
0.217011
  1
e Sof
 50
0
  7
DejaVuSans
  0
TEXT
  8
0
 62
     0
 10
1.32252
 20
1.42833
 30
0
 40
0.217011
  1
twar
 50
0
  7
DejaVuSans
  0
TEXT
  8
0
 62
     0
 10
1.70111
 20
1.42833
 30
0
 40
0.217011
  1
e
 50
0
  7
DejaVuSans
  0
TEXT
  8
0
 62
     0
 10
1.81764
 20
1.42833
 30
0
 40
0.217011
  1
 Initiative of Japan
 50
0
  7
DejaVuSans
  0
POLYLINE
  8
0
 62
     7
 66
     1
 10
0
 20
0
 30
0.0
 70
     1
 40
0
 41
0
  0
VERTEX
  8
0
 10
0.000542535
 20
2.13878
 30
0.0
 40
0
 41
0
  0
VERTEX
  8
0
 10
0.000542535
 20
2.13878
 30
0.0
 40
0
 41
0
  0
VERTEX
  8
0
 10
0.000325521
 20
2.13872
 30
0.0
 40
0
 41
0
  0
VERTEX
  8
0
 10
0.000271268
 20
2.13872
 30
0.0
 40
0
 41
0
  0
VERTEX
  8
0
 10
0.000162761
 20
2.13872
 30
0.0
 40
0
 41
0
  0
VERTEX
  8
0
 10
0
 20
2.13878
 30
0.0
 40
0
 41
0
  0
VERTEX
  8
0
 10
0
 20
2.13878
 30
0.0
 40
0
 41
0
  0
VERTEX
  8
0
 10
0
 20
2.13878
 30
0.0
 40
0
 41
0
  0
VERTEX
  8
0
 10
0.000162761
 20
2.13889
 30
0.0
 40
0
 41
0
  0
VERTEX
  8
0
 10
0.000271268
 20
2.13889
 30
0.0
 40
0
 41
0
  0
VERTEX
  8
0
 10
0.000325521
 20
2.13889
 30
0.0
 40
0
 41
0
  0
VERTEX
  8
0
 10
0.000542535
 20
2.13878
 30
0.0
 40
0
 41
0
  0
VERTEX
  8
0
 10
0.000542535
 20
2.13878
 30
0.0
 40
0
 41
0
  0
SEQEND
 8
0
  0
POLYLINE
  8
0
 62
     0
 66
     1
 10
0
 20
0
 30
0.0
 70
     1
 40
0.156377
 41
0.156377
  0
VERTEX
  8
0
 10
0.000542535
 20
2.13878
 30
0.0
 40
0.0021719
 41
0.0021719
  0
VERTEX
  8
0
 10
0.000542535
 20
2.13878
 30
0.0
 40
0.0021719
 41
0.0021719
  0
VERTEX
  8
0
 10
0.000325521
 20
2.13872
 30
0.0
 40
0.0021719
 41
0.0021719
  0
VERTEX
  8
0
 10
0.000271268
 20
2.13872
 30
0.0
 40
0.0021719
 41
0.0021719
  0
VERTEX
  8
0
 10
0.000162761
 20
2.13872
 30
0.0
 40
0.0021719
 41
0.0021719
  0
VERTEX
  8
0
 10
0
 20
2.13878
 30
0.0
 40
0.0021719
 41
0.0021719
  0
VERTEX
  8
0
 10
0
 20
2.13878
 30
0.0
 40
0.0021719
 41
0.0021719
  0
VERTEX
  8
0
 10
0
 20
2.13878
 30
0.0
 40
0.0021719
 41
0.0021719
  0
VERTEX
  8
0
 10
0.000162761
 20
2.13889
 30
0.0
 40
0.0021719
 41
0.0021719
  0
VERTEX
  8
0
 10
0.000271268
 20
2.13889
 30
0.0
 40
0.0021719
 41
0.0021719
  0
VERTEX
  8
0
 10
0.000325521
 20
2.13889
 30
0.0
 40
0.0021719
 41
0.0021719
  0
VERTEX
  8
0
 10
0.000542535
 20
2.13878
 30
0.0
 40
0.0021719
 41
0.0021719
  0
VERTEX
  8
0
 10
0.000542535
 20
2.13878
 30
0.0
 40
0.0021719
 41
0.0021719
  0
SEQEND
 8
0
  0
POLYLINE
  8
0
 62
     0
 66
     1
 10
0
 20
0
 30
0.0
 70
     1
 40
0.156156
 41
0.156156
  0
VERTEX
  8
0
 10
4.18354
 20
0.00992839
 30
0.0
 40
0.00216883
 41
0.00216883
  0
VERTEX
  8
0
 10
4.18354
 20
0.0100912
 30
0.0
 40
0.00216883
 41
0.00216883
  0
VERTEX
  8
0
 10
4.18392
 20
0.0104709
 30
0.0
 40
0.00216883
 41
0.00216883
  0
VERTEX
  8
0
 10
4.18408
 20
0.0104709
 30
0.0
 40
0.00216883
 41
0.00216883
  0
VERTEX
  8
0
 10
4.18419
 20
0.0104709
 30
0.0
 40
0.00216883
 41
0.00216883
  0
VERTEX
  8
0
 10
4.18457
 20
0.0100912
 30
0.0
 40
0.00216883
 41
0.00216883
  0
VERTEX
  8
0
 10
4.18457
 20
0.00992839
 30
0.0
 40
0.00216883
 41
0.00216883
  0
VERTEX
  8
0
 10
4.18457
 20
0.00981988
 30
0.0
 40
0.00216883
 41
0.00216883
  0
VERTEX
  8
0
 10
4.18419
 20
0.00944011
 30
0.0
 40
0.00216883
 41
0.00216883
  0
VERTEX
  8
0
 10
4.18408
 20
0.00944011
 30
0.0
 40
0.00216883
 41
0.00216883
  0
VERTEX
  8
0
 10
4.18392
 20
0.00944011
 30
0.0
 40
0.00216883
 41
0.00216883
  0
VERTEX
  8
0
 10
4.18354
 20
0.00981988
 30
0.0
 40
0.00216883
 41
0.00216883
  0
VERTEX
  8
0
 10
4.18354
 20
0.00992839
 30
0.0
 40
0.00216883
 41
0.00216883
  0
SEQEND
 8
0
  0
ENDSEC
  0
EOF
