<?xml version="1.0" encoding="UTF-8" standalone="no"?>
<!DOCTYPE svg PUBLIC "-//W3C//DTD SVG 1.1//EN" "http://www.w3.org/Graphics/SVG/1.1/DTD/svg11.dtd">
<svg width="100%" height="100%" viewBox="0 0 378 205" version="1.1" xmlns="http://www.w3.org/2000/svg" xmlns:xlink="http://www.w3.org/1999/xlink" xml:space="preserve" xmlns:serif="http://www.serif.com/" style="fill-rule:evenodd;clip-rule:evenodd;stroke-linecap:round;stroke-linejoin:round;stroke-miterlimit:1.5;">
    <g transform="matrix(0.20359,0,0,0.241772,-161.291,-12.7999)">
        <text x="900.232px" y="232.282px" style="font-family:'Arial-BoldItalicMT', 'Arial', sans-serif;font-weight:700;font-style:italic;font-size:110.014px;">This device runs GNUK</text>
        <text x="900.232px" y="321.042px" style="font-family:'ArialMT', 'Arial', sans-serif;font-size:85.948px;">Free Software Initiative of Japan</text>
    </g>
    <g transform="matrix(0.167586,0,0,0.193,64.3587,133.156)">
        <text x="900.232px" y="232.282px" style="font-family:'Arial-BoldMT', 'Arial', sans-serif;font-weight:700;font-size:75.634px;">Secured by FreeBSD ®</text>
    </g>
    <g transform="matrix(0.0356855,0,0,-0.0394499,-2.9459,208.502)">
        <path d="M5127,3284C5123,3280 5120,3122 5120,2933C5120,2652 5118,2588 5106,2584C5099,2581 5064,2595 5028,2614C4895,2688 4712,2709 4556,2670C4259,2595 4098,2353 4113,2006C4121,1811 4177,1674 4295,1557C4344,1509 4452,1448 4526,1428C4586,1411 4816,1406 4880,1421C5117,1474 5279,1664 5320,1935C5327,1980 5329,2236 5328,2645L5325,3285L5230,3288C5177,3289 5131,3288 5127,3284ZM4795,2516C4908,2492 4979,2443 5040,2348C5090,2271 5115,2172 5115,2045C5114,1829 5039,1680 4892,1608C4829,1577 4820,1575 4715,1575C4614,1575 4601,1577 4552,1603C4398,1684 4320,1832 4320,2046C4320,2304 4441,2481 4645,2519C4714,2531 4727,2531 4795,2516Z" style="fill-rule:nonzero;"/>
    </g>
    <g transform="matrix(0.0356855,0,0,-0.0394499,-2.9459,208.502)">
        <path d="M5127,3284C5123,3280 5120,3122 5120,2933C5120,2652 5118,2588 5106,2584C5099,2581 5064,2595 5028,2614C4895,2688 4712,2709 4556,2670C4259,2595 4098,2353 4113,2006C4121,1811 4177,1674 4295,1557C4344,1509 4452,1448 4526,1428C4586,1411 4816,1406 4880,1421C5117,1474 5279,1664 5320,1935C5327,1980 5329,2236 5328,2645L5325,3285L5230,3288C5177,3289 5131,3288 5127,3284ZM4795,2516C4908,2492 4979,2443 5040,2348C5090,2271 5115,2172 5115,2045C5114,1829 5039,1680 4892,1608C4829,1577 4820,1575 4715,1575C4614,1575 4601,1577 4552,1603C4398,1684 4320,1832 4320,2046C4320,2304 4441,2481 4645,2519C4714,2531 4727,2531 4795,2516Z" style="fill-rule:nonzero;"/>
    </g>
    <g transform="matrix(0.0356855,0,0,-0.0394499,-2.9459,208.502)">
        <path d="M5569,3151C5536,3118 5530,3106 5530,3068C5530,2973 5619,2915 5705,2956C5820,3010 5774,3190 5645,3190C5615,3190 5600,3182 5569,3151Z" style="fill-rule:nonzero;"/>
    </g>
    <g transform="matrix(0.0356855,0,0,-0.0394499,-2.9459,208.502)">
        <path d="M5569,3151C5536,3118 5530,3106 5530,3068C5530,2973 5619,2915 5705,2956C5820,3010 5774,3190 5645,3190C5615,3190 5600,3182 5569,3151Z" style="fill-rule:nonzero;"/>
    </g>
    <g transform="matrix(0.0356855,0,0,-0.0394499,-2.9459,208.502)">
        <path d="M757,3103C748,3095 748,1467 756,1446C761,1433 779,1430 849,1430C903,1430 941,1435 948,1442C963,1457 964,2176 950,2585C945,2733 944,2858 949,2863C961,2875 974,2853 1020,2735C1072,2602 1578,1460 1592,1443C1607,1424 1665,1427 1682,1448C1700,1469 2124,2423 2229,2679C2271,2781 2310,2865 2315,2867C2322,2869 2325,2626 2325,2153L2325,1435L2515,1435L2515,3105L2366,3105L2216,3105L2175,3010C1788,2130 1700,1923 1657,1798C1645,1763 1622,1780 1599,1843C1552,1972 1114,2984 1064,3083L1049,3110L906,3110C828,3110 760,3107 757,3103Z" style="fill-rule:nonzero;"/>
    </g>
    <g transform="matrix(0.0356855,0,0,-0.0394499,-2.9459,208.502)">
        <path d="M757,3103C748,3095 748,1467 756,1446C761,1433 779,1430 849,1430C903,1430 941,1435 948,1442C963,1457 964,2176 950,2585C945,2733 944,2858 949,2863C961,2875 974,2853 1020,2735C1072,2602 1578,1460 1592,1443C1607,1424 1665,1427 1682,1448C1700,1469 2124,2423 2229,2679C2271,2781 2310,2865 2315,2867C2322,2869 2325,2626 2325,2153L2325,1435L2515,1435L2515,3105L2366,3105L2216,3105L2175,3010C1788,2130 1700,1923 1657,1798C1645,1763 1622,1780 1599,1843C1552,1972 1114,2984 1064,3083L1049,3110L906,3110C828,3110 760,3107 757,3103Z" style="fill-rule:nonzero;"/>
    </g>
    <g transform="matrix(0.0356855,0,0,-0.0394499,-2.9459,208.502)">
        <path d="M3180,2675C2956,2624 2811,2486 2744,2265C2721,2188 2718,2157 2717,2045C2717,1902 2737,1805 2784,1713C2856,1569 3001,1457 3160,1421C3224,1406 3454,1411 3514,1428C3601,1452 3699,1511 3758,1575C3873,1698 3919,1814 3927,2006C3942,2334 3802,2566 3535,2658C3440,2691 3282,2699 3180,2675ZM3405,2516C3607,2473 3720,2304 3720,2048C3720,1831 3640,1676 3490,1602C3440,1578 3424,1575 3325,1575C3224,1575 3210,1577 3156,1604C3005,1678 2927,1827 2926,2040C2925,2211 2965,2327 3054,2415C3111,2472 3159,2498 3240,2516C3312,2532 3333,2532 3405,2516Z" style="fill-rule:nonzero;"/>
    </g>
    <g transform="matrix(0.0356855,0,0,-0.0394499,-2.9459,208.502)">
        <path d="M3180,2675C2956,2624 2811,2486 2744,2265C2721,2188 2718,2157 2717,2045C2717,1902 2737,1805 2784,1713C2856,1569 3001,1457 3160,1421C3224,1406 3454,1411 3514,1428C3601,1452 3699,1511 3758,1575C3873,1698 3919,1814 3927,2006C3942,2334 3802,2566 3535,2658C3440,2691 3282,2699 3180,2675ZM3405,2516C3607,2473 3720,2304 3720,2048C3720,1831 3640,1676 3490,1602C3440,1578 3424,1575 3325,1575C3224,1575 3210,1577 3156,1604C3005,1678 2927,1827 2926,2040C2925,2211 2965,2327 3054,2415C3111,2472 3159,2498 3240,2516C3312,2532 3333,2532 3405,2516Z" style="fill-rule:nonzero;"/>
    </g>
    <g transform="matrix(0.0356855,0,0,-0.0394499,-2.9459,208.502)">
        <path d="M6530,2679C6404,2646 6333,2610 6261,2543C6231,2514 6202,2490 6198,2490C6193,2490 6190,2523 6190,2563C6190,2606 6185,2641 6178,2648C6164,2662 6023,2665 6002,2652C5992,2645 5990,2516 5992,2039L5995,1435L6078,1432C6131,1430 6167,1433 6176,1441C6188,1450 6190,1525 6190,1878L6190,2304L6241,2353C6291,2401 6385,2453 6458,2472C6478,2477 6533,2486 6580,2492C6627,2497 6671,2507 6678,2512C6687,2520 6690,2547 6688,2604L6685,2685L6625,2687C6592,2688 6549,2684 6530,2679Z" style="fill-rule:nonzero;"/>
    </g>
    <g transform="matrix(0.0356855,0,0,-0.0394499,-2.9459,208.502)">
        <path d="M6530,2679C6404,2646 6333,2610 6261,2543C6231,2514 6202,2490 6198,2490C6193,2490 6190,2523 6190,2563C6190,2606 6185,2641 6178,2648C6164,2662 6023,2665 6002,2652C5992,2645 5990,2516 5992,2039L5995,1435L6078,1432C6131,1430 6167,1433 6176,1441C6188,1450 6190,1525 6190,1878L6190,2304L6241,2353C6291,2401 6385,2453 6458,2472C6478,2477 6533,2486 6580,2492C6627,2497 6671,2507 6678,2512C6687,2520 6690,2547 6688,2604L6685,2685L6625,2687C6592,2688 6549,2684 6530,2679Z" style="fill-rule:nonzero;"/>
    </g>
    <g transform="matrix(0.0356855,0,0,-0.0394499,-2.9459,208.502)">
        <path d="M8613,2675C8540,2657 8465,2617 8397,2558C8363,2529 8335,2511 8330,2516C8325,2521 8320,2554 8318,2590L8315,2655L8232,2658C8179,2660 8143,2657 8134,2649C8113,2632 8113,1458 8134,1441C8143,1433 8179,1430 8232,1432L8315,1435L8318,1872L8320,2308L8367,2360C8410,2408 8501,2477 8545,2495C8595,2515 8702,2527 8753,2518C8831,2505 8857,2492 8898,2444C8963,2370 8963,2372 8969,1880L8975,1435L9064,1432C9129,1430 9156,1433 9162,1442C9166,1449 9170,1648 9170,1885L9170,2315L9243,2385C9328,2466 9388,2499 9483,2515C9634,2541 9737,2494 9792,2375C9815,2326 9815,2318 9820,1880L9825,1435L9908,1432C9961,1430 9997,1433 10006,1441C10018,1450 10020,1526 10020,1885C10020,2280 10018,2323 10001,2393C9978,2481 9964,2507 9901,2573C9848,2628 9793,2657 9700,2676C9516,2715 9366,2670 9221,2534C9178,2493 9137,2460 9131,2460C9125,2460 9113,2472 9103,2488C9072,2538 8986,2621 8940,2645C8852,2689 8721,2702 8613,2675Z" style="fill-rule:nonzero;"/>
    </g>
    <g transform="matrix(0.0356855,0,0,-0.0394499,-2.9459,208.502)">
        <path d="M8613,2675C8540,2657 8465,2617 8397,2558C8363,2529 8335,2511 8330,2516C8325,2521 8320,2554 8318,2590L8315,2655L8232,2658C8179,2660 8143,2657 8134,2649C8113,2632 8113,1458 8134,1441C8143,1433 8179,1430 8232,1432L8315,1435L8318,1872L8320,2308L8367,2360C8410,2408 8501,2477 8545,2495C8595,2515 8702,2527 8753,2518C8831,2505 8857,2492 8898,2444C8963,2370 8963,2372 8969,1880L8975,1435L9064,1432C9129,1430 9156,1433 9162,1442C9166,1449 9170,1648 9170,1885L9170,2315L9243,2385C9328,2466 9388,2499 9483,2515C9634,2541 9737,2494 9792,2375C9815,2326 9815,2318 9820,1880L9825,1435L9908,1432C9961,1430 9997,1433 10006,1441C10018,1450 10020,1526 10020,1885C10020,2280 10018,2323 10001,2393C9978,2481 9964,2507 9901,2573C9848,2628 9793,2657 9700,2676C9516,2715 9366,2670 9221,2534C9178,2493 9137,2460 9131,2460C9125,2460 9113,2472 9103,2488C9072,2538 8986,2621 8940,2645C8852,2689 8721,2702 8613,2675Z" style="fill-rule:nonzero;"/>
    </g>
    <g transform="matrix(0.0356855,0,0,-0.0394499,-2.9459,208.502)">
        <path d="M5563,2653C5553,2649 5550,2520 5550,2052C5550,1724 5554,1449 5558,1442C5564,1433 5591,1430 5656,1432L5745,1435L5748,2039C5750,2516 5748,2645 5738,2652C5724,2660 5583,2662 5563,2653Z" style="fill-rule:nonzero;"/>
    </g>
    <g transform="matrix(0.0356855,0,0,-0.0394499,-2.9459,208.502)">
        <path d="M5563,2653C5553,2649 5550,2520 5550,2052C5550,1724 5554,1449 5558,1442C5564,1433 5591,1430 5656,1432L5745,1435L5748,2039C5750,2516 5748,2645 5738,2652C5724,2660 5583,2662 5563,2653Z" style="fill-rule:nonzero;"/>
    </g>
    <g transform="matrix(0.0356855,0,0,-0.0394499,-2.9459,208.502)">
        <path d="M6883,2653C6867,2647 6864,1842 6880,1761C6902,1646 6991,1520 7086,1472C7181,1423 7247,1410 7390,1410C7589,1410 7696,1447 7794,1549C7913,1675 7920,1711 7920,2236C7920,2602 7918,2649 7904,2654C7882,2663 7747,2661 7733,2652C7724,2646 7720,2536 7718,2220C7714,1729 7715,1736 7626,1651C7555,1585 7492,1566 7365,1572C7288,1576 7264,1582 7220,1606C7150,1644 7106,1698 7086,1769C7072,1817 7070,1888 7070,2231C7070,2533 7067,2639 7058,2648C7046,2660 6909,2664 6883,2653Z" style="fill-rule:nonzero;"/>
    </g>
    <g transform="matrix(0.0356855,0,0,-0.0394499,-2.9459,208.502)">
        <path d="M6883,2653C6867,2647 6864,1842 6880,1761C6902,1646 6991,1520 7086,1472C7181,1423 7247,1410 7390,1410C7589,1410 7696,1447 7794,1549C7913,1675 7920,1711 7920,2236C7920,2602 7918,2649 7904,2654C7882,2663 7747,2661 7733,2652C7724,2646 7720,2536 7718,2220C7714,1729 7715,1736 7626,1651C7555,1585 7492,1566 7365,1572C7288,1576 7264,1582 7220,1606C7150,1644 7106,1698 7086,1769C7072,1817 7070,1888 7070,2231C7070,2533 7067,2639 7058,2648C7046,2660 6909,2664 6883,2653Z" style="fill-rule:nonzero;"/>
    </g>
    <g transform="matrix(0.0288074,0,0,-0.0331759,2.56966,197.791)">
        <path d="M9958,1073C9965,1070 9974,1071 9977,1074C9981,1077 9975,1080 9964,1079C9953,1079 9950,1076 9958,1073Z" style="fill-rule:nonzero;"/>
    </g>
    <g transform="matrix(0.0288074,0,0,-0.0331759,2.56966,197.791)">
        <path d="M9903,1053C9912,1051 9926,1051 9933,1053C9939,1056 9932,1058 9915,1058C9899,1058 9893,1056 9903,1053Z" style="fill-rule:nonzero;"/>
    </g>
    <g transform="matrix(1,0,0,1,-1.50669,-1.42219)">
        <circle cx="1.497" cy="1.412" r="0.01" style="fill:rgb(235,235,235);stroke:black;stroke-width:0.21px;"/>
    </g>
    <g transform="matrix(1,0,0,1,0.0338572,0.0198985)">
        <circle cx="377.919" cy="204.311" r="0" style="fill:rgb(235,235,235);stroke:black;stroke-width:0.21px;"/>
    </g>
</svg>
